<svg id="Layer_1" enable-background="new 0 0 50 50" height="512" viewBox="0 0 50 50" width="512" xmlns="http://www.w3.org/2000/svg"><g><g><path d="m45.98 36.35h-41.96c-1.39 0-2.52-1.13-2.52-2.52v-23.84c0-1.39 1.13-2.52 2.52-2.52h41.95c1.39 0 2.52 1.13 2.52 2.52v23.84c.01 1.39-1.12 2.52-2.51 2.52z" fill="#e5e5e5"/></g><g><circle cx="6.89" cy="16.97" fill="#fa4968" r="1.21"/></g><g><path d="m9.84 15.61h6.06v1h-6.06z" fill="#cccaca"/></g><g><path d="m9.84 17.32h4.09v1h-4.09z" fill="#cccaca"/></g><g><circle cx="6.89" cy="21.68" fill="#abb734" r="1.21"/></g><g><path d="m9.84 20.33h6.06v1h-6.06z" fill="#cccaca"/></g><g><path d="m9.84 22.04h4.09v1h-4.09z" fill="#cccaca"/></g><g><circle cx="6.89" cy="26.4" fill="#559aff" r="1.21"/></g><g><path d="m9.84 25.04h6.06v1h-6.06z" fill="#cccaca"/></g><g><path d="m9.84 26.76h4.09v1h-4.09z" fill="#cccaca"/></g><g><circle cx="6.89" cy="31.12" fill="#6cd8d5" r="1.21"/></g><g><path d="m9.84 29.76h6.06v1h-6.06z" fill="#cccaca"/></g><g><path d="m9.84 31.48h4.09v1h-4.09z" fill="#cccaca"/></g><g><path d="m22.58 26.15h3.41v6.18h-3.41z" fill="#ffd731"/></g><g><path d="m28.57 23.86h3.41v8.47h-3.41z" fill="#abb734"/></g><g><path d="m34.56 27.34h3.41v4.99h-3.41z" fill="#fa4968"/></g><g><path d="m40.55 21.82h3.41v10.52h-3.41z" fill="#6cd8d5"/></g><g><path d="m22.07 19.58-.71-.71 3.67-3.67c.19-.19.52-.19.71 0l2.8 2.8 4.43-4.44c.19-.19.52-.19.71 0l3.97 3.97 6.11-6.11.71.71-6.47 6.47c-.19.19-.52.19-.71 0l-3.97-3.97-4.43 4.44c-.19.19-.52.19-.71 0l-2.8-2.8z" fill="#616b77"/></g><g><circle cx="33.24" cy="13.97" fill="#fa4968" r="1.51"/></g><g><circle cx="37.83" cy="17.96" fill="#6cd8d5" r="1.51"/></g><g><circle cx="28.63" cy="18.35" fill="#abb734" r="1.51"/></g><g><path d="m44.42 15.11-.99-.11.32-2.94-2.94.32-.11-.99 3.56-.39c.15-.02.3.04.41.14.11.11.16.26.14.41z" fill="#616b77"/></g><g><path d="m34.21 36.35h-4.35l3.77 11.09h4.35z" fill="#ffca8a"/></g><g><path d="m15.79 36.35h4.35l-3.77 11.09h-4.35z" fill="#ffca8a"/></g><g><path d="m21.36 4.95h7.28v2.51h-7.28z" fill="#ffb95c"/></g><g><path d="m23.24 36.35h3.53v11.08h-3.53z" fill="#f9a846"/></g><g><path d="m23.24 2.56h3.53v2.39h-3.53z" fill="#ffca8a"/></g><g><path d="m32.53 44.24h-15.07l.94-2.77h13.19z" fill="#ffb95c"/></g></g></svg>