<svg id="Layer_1" enable-background="new 0 0 50 50" height="512" viewBox="0 0 50 50" width="512" xmlns="http://www.w3.org/2000/svg"><g><g><path d="m1.5 36.11 26.74 12.55 16.18-34.77-26.74-12.55z" fill="#9ab2a5"/></g><g><path d="m8.2 5.8h29.51v38.39h-29.51z" fill="#f4f4f4" transform="matrix(-1 .014 -.014 -1 46.252 49.689)"/></g><g><path d="m12.39 9.71h20.75v4.11h-20.75z" fill="#c6cc4a" transform="matrix(1 -.014 .014 1 -.156 .307)"/></g><g><path d="m18.59 17.11c4.88-.07 9.75-.13 14.63-.2" fill="#fff"/><path d="m18.59 16.51h14.63v1h-14.63z" fill="#e5e5e5" transform="matrix(1 -.014 .014 1 -.23 .356)"/></g><g><path d="m12.47 17.19c1.24-.02 2.48-.03 3.71-.05" fill="#fff"/><path d="m12.47 16.67h3.71v1h-3.71z" fill="#e5e5e5" transform="matrix(1 -.014 .014 1 -.233 .198)"/></g><g><path d="m24.8 19.67c2.82-.04 5.64-.08 8.46-.11" fill="#fff"/><path d="m24.8 19.12h8.46v1h-8.46z" fill="#e5e5e5" transform="matrix(1 -.014 .014 1 -.266 .399)"/></g><g><path d="m12.51 19.84c3.4-.05 6.8-.09 10.2-.14" fill="#fff"/><path d="m12.51 19.27h10.2v1h-10.2z" fill="#e5e5e5" transform="matrix(1 -.014 .014 1 -.269 .243)"/></g><g><path d="m29.3 22.26c1.33-.02 2.66-.04 3.99-.05" fill="#fff"/><path d="m29.3 21.73h3.99v1h-3.99z" fill="#e5e5e5" transform="matrix(1 -.014 .014 1 -.301 .43)"/></g><g><path d="m19.36 22.39c2.5-.03 5-.07 7.49-.1" fill="#fff"/><path d="m19.36 21.84h7.49v1h-7.49z" fill="#e5e5e5" transform="matrix(1 -.014 .014 1 -.303 .318)"/></g><g><path d="m12.55 22.48c1.36-.02 2.73-.04 4.09-.05" fill="#fff"/><path d="m12.55 21.96h4.09v1h-4.09z" fill="#e5e5e5" transform="matrix(1 -.014 .014 1 -.306 .202)"/></g><g><path d="m26.33 24.94c2.34-.03 4.67-.06 7.01-.09" fill="#fff"/><path d="m26.33 24.4h7.01v1h-7.01z" fill="#e5e5e5" transform="matrix(1 -.014 .014 1 -.338 .41)"/></g><g><path d="m20.02 25.03c1.17-.02 2.34-.03 3.5-.05" fill="#fff"/><path d="m20.02 24.51h3.5v1h-3.5z" fill="#e5e5e5" transform="matrix(1 -.014 .014 1 -.34 .3)"/></g><g><path d="m12.58 25.13c1.72-.02 3.45-.05 5.17-.07" fill="#fff"/><path d="m12.58 24.59h5.17v1h-5.17z" fill="#e5e5e5" transform="matrix(1 -.014 .014 1 -.342 .21)"/></g><g><path d="m18.42 27.7c2.72-.04 5.44-.07 8.16-.11" fill="#fff"/><path d="m18.42 27.14h8.16v1h-8.16z" fill="#e5e5e5" transform="matrix(1 -.014 .014 1 -.376 .31)"/></g><g><path d="m12.62 27.77c1.24-.02 2.48-.03 3.71-.05" fill="#fff"/><path d="m12.62 27.25h3.71v1h-3.71z" fill="#e5e5e5" transform="matrix(1 -.014 .014 1 -.378 .201)"/></g><g><path d="m12.66 30.42 11.25-.15" fill="#fff"/><path d="m12.66 29.84h11.25v1h-11.25z" fill="#e5e5e5" transform="matrix(1 -.014 .014 1 -.413 .253)"/></g><g><path d="m12.7 33.06c2.94-.04 5.87-.08 8.81-.12" fill="#fff"/><path d="m12.7 32.5h8.81v1h-8.81z" fill="#e5e5e5" transform="matrix(1 -.014 .014 1 -.45 .237)"/></g><g><path d="m12.74 35.71c1.33-.02 2.66-.04 3.99-.05" fill="#fff"/><path d="m12.74 35.18h3.99v1h-3.99z" fill="#e5e5e5" transform="matrix(1 -.014 .014 1 -.486 .205)"/></g><g><path d="m25.08 33.51-4.11 6.92 7.94-1.25c3.56-2.41-.27-8.07-3.83-5.67z" fill="#ffb95c"/></g><g><path d="m39.28 30.09.96 1.41-11.32 7.68.01-2.08z" fill="#3a8bed"/></g><g><path d="m27 36.35 1.93.75 10.35-7.01-.96-1.42-.96-1.41-10.35 7.01z" fill="#559aff"/></g><g><path d="m36.41 25.84.95 1.42-10.35 7.01-1.93-.76z" fill="#6eb0ff"/></g><g><path d="m22.64 37.63-1.67 2.8 3.22-.51z" fill="#616b77"/></g><g><path d="m45.42 27.99 2.21-1.5c.91-.61 1.14-1.85.53-2.75l-1.61-2.37c-.61-.91-1.85-1.15-2.75-.53l-2.21 1.5z" fill="#fa4968"/></g><g><path d="m38.1 24.61 3.91 5.77c.3.45.19 1.05-.26 1.36l-.11.07c-.45.3-1.05.19-1.36-.26l-3.91-5.77c-.3-.45-.19-1.05.26-1.36l.11-.07c.45-.3 1.05-.18 1.36.26z" fill="#fecd04"/></g><g><path d="m39.82 23.44 3.91 5.77c.3.45.19 1.05-.26 1.36l-.11.07c-.45.3-1.05.19-1.36-.26l-3.91-5.77c-.3-.45-.19-1.05.26-1.36l.11-.07c.45-.3 1.06-.18 1.36.26z" fill="#ffd731"/></g><g><path d="m41.55 22.27 3.91 5.77c.3.45.19 1.05-.26 1.36l-.11.07c-.45.3-1.05.19-1.36-.26l-3.91-5.77c-.3-.45-.19-1.05.26-1.36l.11-.07c.45-.3 1.06-.18 1.36.26z" fill="#fecd04"/></g></g></svg>