<svg id="Layer_1" enable-background="new 0 0 50 50" height="512" viewBox="0 0 50 50" width="512" xmlns="http://www.w3.org/2000/svg"><g><g><path d="m44.58 44.35h-39.16c-1.39 0-2.52-1.13-2.52-2.52v-33.66c0-1.39 1.13-2.52 2.52-2.52h39.17c1.39 0 2.52 1.13 2.52 2.52v33.66c0 1.39-1.13 2.52-2.53 2.52z" fill="#ddedeb"/></g><g><circle cx="6.58" cy="9.35" fill="#fa4968" r="1.3"/></g><g><circle cx="11.1" cy="9.35" fill="#6cd8d5" r="1.3"/></g><g><circle cx="15.62" cy="9.35" fill="#ffca8a" r="1.3"/></g><g><path d="m42.56 8.06h-21.52c-.71 0-1.28.57-1.28 1.28v.03c0 .71.57 1.28 1.28 1.28h21.52c.71 0 1.28-.57 1.28-1.28v-.04c0-.7-.57-1.27-1.28-1.27z" fill="#a7cec8"/></g><g><path d="m17.48 18.66.3-.32c.19-.2.45-.32.73-.32h2.69c.55 0 .99.43.99.96v7.43c0 .53-.44.96-.99.96h-10.69c-.55 0-.99-.43-.99-.96v-6.47c0-.53.44-.96.99-.96h6.24c.28 0 .54-.12.73-.32z" fill="#fecd04"/></g><g><path d="m12.14 22.69h3.72v1h-3.72z" fill="#ffd731"/></g><g><path d="m12.14 24.49h2.13v1h-2.13z" fill="#ffd731"/></g><g><path d="m35.77 18.66.3-.32c.19-.2.45-.32.73-.32h2.69c.55 0 .99.43.99.96v7.43c0 .53-.44.96-.99.96h-10.69c-.55 0-.99-.43-.99-.96v-6.47c0-.53.44-.96.99-.96h6.24c.28 0 .54-.12.73-.32z" fill="#fa4968"/></g><g><path d="m30.43 22.69h3.72v1h-3.72z" fill="#ff6989"/></g><g><path d="m30.43 24.49h2.13v1h-2.13z" fill="#ff6989"/></g><g><path d="m17.48 31.63.3-.32c.19-.2.45-.32.73-.32h2.69c.55 0 .99.43.99.96v7.43c0 .53-.44.96-.99.96h-10.69c-.55 0-.99-.43-.99-.96v-6.47c0-.53.44-.96.99-.96h6.24c.28-.01.54-.12.73-.32z" fill="#559aff"/></g><g><path d="m12.14 35.66h3.72v1h-3.72z" fill="#6eb0ff"/></g><g><path d="m12.14 37.46h2.13v1h-2.13z" fill="#6eb0ff"/></g><g><path d="m35.77 31.63.3-.32c.19-.2.45-.32.73-.32h2.69c.55 0 .99.43.99.96v7.43c0 .53-.44.96-.99.96h-10.69c-.55 0-.99-.43-.99-.96v-6.47c0-.53.44-.96.99-.96h6.24c.28-.01.54-.12.73-.32z" fill="#6cd8d5"/></g><g><path d="m30.43 35.66h3.72v1h-3.72z" fill="#8cf2ed"/></g><g><path d="m30.43 37.46h2.13v1h-2.13z" fill="#8cf2ed"/></g></g></svg>