<svg id="Layer_1" enable-background="new 0 0 50 50" height="512" viewBox="0 0 50 50" width="512" xmlns="http://www.w3.org/2000/svg"><g><g><path d="m45.98 40.89h-41.96c-1.39 0-2.52-1.13-2.52-2.52v-33.08c0-1.39 1.13-2.52 2.52-2.52h41.95c1.39 0 2.52 1.13 2.52 2.52v33.07c.01 1.4-1.12 2.53-2.51 2.53z" fill="#ddedeb"/></g><g><circle cx="5.42" cy="6.71" fill="#fa4968" r="1.38"/></g><g><circle cx="10.22" cy="6.71" fill="#ffb95c" r="1.38"/></g><g><circle cx="15.03" cy="6.71" fill="#559aff" r="1.38"/></g><g><path d="m43.69 5.33h-22.92c-.74 0-1.34.6-1.34 1.34v.09c0 .74.6 1.34 1.34 1.34h22.92c.74 0 1.34-.6 1.34-1.34v-.09c0-.74-.6-1.34-1.34-1.34z" fill="#a7cec8"/></g><g><path d="m30.28 15.78h-13.95c-1.46 0-2.65 1.19-2.65 2.65v26.15c0 1.46 1.19 2.65 2.65 2.65h17.35c1.46 0 2.65-1.19 2.65-2.65v-22.75h-4.41c-.9 0-1.63-.73-1.63-1.63v-4.42z" fill="#f4f4f4"/></g><g><path d="m30.28 15.78v4.41c0 .9.73 1.63 1.63 1.63h4.41z" fill="#cccaca"/></g><g><path d="m16.67 18.82h9.99v1h-9.99z" fill="#cccaca"/></g><g><path d="m16.67 21.02h9.99v1h-9.99z" fill="#cccaca"/></g><g><path d="m16.67 23.21h6v1h-6z" fill="#cccaca"/></g><g><ellipse cx="25" cy="35.56" fill="#559aff" rx="6.4" ry="6.41"/></g><g><path d="m28.2 35.96-3.2 3.88-3.2-3.88h2.01v-4.12h2.39v4.12z" fill="#fff"/></g><g><path d="m45.73 21.27-3.21 3.88-3.2-3.88h2.01v-4.12h2.39v4.12z" fill="#abb734"/></g><g><path d="m10.68 21.27-3.2 3.88-3.21-3.88h2.01v-4.12h2.39v4.12z" fill="#fecd04"/></g></g></svg>