<svg id="Layer_1" enable-background="new 0 0 50 50" height="512" viewBox="0 0 50 50" width="512" xmlns="http://www.w3.org/2000/svg"><g><g><path d="m42.68 41.75h-35.36c-1.39 0-2.52-1.13-2.52-2.52v-22.48c0-1.39 1.13-2.52 2.52-2.52h35.36c1.39 0 2.52 1.13 2.52 2.52v22.48c0 1.39-1.13 2.52-2.52 2.52z" fill="#559aff"/></g><g><path d="m46.81 41.75h-43.62c-1.21 0-2.19.98-2.19 2.19s.98 2.19 2.19 2.19h43.61c1.21 0 2.19-.98 2.19-2.19.01-1.21-.97-2.19-2.18-2.19z" fill="#616b77"/></g><g><path d="m18.25 41.75.48.98c.36.74 1.11 1.21 1.93 1.21h8.68c.82 0 1.57-.47 1.93-1.21l.48-.98z" fill="#425060"/></g><g><path d="m39.95 3.87h-29.9c-.97 0-1.76.79-1.76 1.76v36.12h33.41v-36.13c0-.97-.78-1.75-1.75-1.75z" fill="#ddedeb"/></g><g><circle cx="11.08" cy="6.67" fill="#fa4968" r=".98"/></g><g><circle cx="14.5" cy="6.67" fill="#c6cc4a" r=".98"/></g><g><circle cx="17.91" cy="6.67" fill="#fecd04" r=".98"/></g><g><path d="m38.36 5.69h-16.45c-.48 0-.87.39-.87.87v.22c0 .48.39.87.87.87h16.45c.48 0 .87-.39.87-.87v-.22c0-.49-.39-.87-.87-.87z" fill="#a7cec8"/></g><g><g><path d="m18.89 26.41c-1.45 1.71-3.23 3.22-5.07 4.48-1.07.53.24 3.09 1.31 2.55 2.11-.71 4.41-1.23 6.66-1.37" fill="#fecd04"/></g><g><path d="m25.89 19.36c-2.92 3.44-6.51 6.49-10.2 9.01-2.15 1.07.48 6.21 2.63 5.13 4.25-1.44 8.86-2.48 13.41-2.76" fill="#fa4968"/></g><g><ellipse cx="30.82" cy="24.05" fill="#f9a846" rx="3.89" ry="7.72" transform="matrix(.888 -.46 .46 .888 -7.608 16.876)"/></g><g><path d="m34.35 30.91c-1.51.76-3.77-.5-5.64-2.92-.5-.65-.97-1.4-1.38-2.21-.41-.79-.73-1.58-.96-2.36-.91-2.92-.6-5.49.92-6.24 1.92-.96 5.07 1.33 7 5.13 1.96 3.8 1.99 7.65.06 8.6z" fill="#fecd04"/></g><g><g><path d="m31.56 25.47c-1.27.76-2.2 1.57-2.76 2.44l-.08.09c-.5-.65-.97-1.4-1.38-2.21-.41-.79-.73-1.58-.96-2.36l.08-.06c1.04.07 2.26-.18 3.63-.74z" fill="#cccaca"/></g></g><g><ellipse cx="30.82" cy="24.05" fill="#f4f4f4" rx="1.15" ry="1.6" transform="matrix(.884 -.468 .468 .884 -7.669 17.209)"/></g></g></g></svg>