<svg id="Layer_1" enable-background="new 0 0 50 50" height="512" viewBox="0 0 50 50" width="512" xmlns="http://www.w3.org/2000/svg"><g><g><path d="m7.87 3.21h33.64v43.58h-33.64z" fill="#f4f4f4" transform="matrix(-1 0 0 -1 49.381 50)"/></g><g><path d="m7.87 3.21h33.64v43.58h-33.64z" fill="#f4f4f4" transform="matrix(-1 0 0 -1 49.381 50)"/></g><g><path d="m7.87 3.21h33.64v43.58h-33.64z" fill="#f4f4f4" transform="matrix(-1 0 0 -1 49.381 50)"/></g><g><path d="m30.31 9.75c-.09 0-.17-.03-.25-.03-2.68 0-4.85 2.17-4.85 4.86 0 2.68 2.17 4.86 4.85 4.86s4.85-2.17 4.85-4.86h-4.6z" fill="#ff8c83"/></g><g><path d="m32.59 7.47v4.83h4.6c0-2.59-2.04-4.7-4.6-4.83z" fill="#c6cc4a"/></g><g><circle cx="13.35" cy="8.7" fill="#fa4968" r="1.16"/></g><g><path d="m16.17 7.38h5.79v1h-5.79z" fill="#cccaca"/></g><g><path d="m16.17 9.02h3.91v1h-3.91z" fill="#cccaca"/></g><g><circle cx="13.35" cy="13.63" fill="#ffb95c" r="1.16"/></g><g><path d="m16.17 12.31h5.79v1h-5.79z" fill="#cccaca"/></g><g><path d="m16.17 13.95h3.91v1h-3.91z" fill="#cccaca"/></g><g><circle cx="13.35" cy="18.56" fill="#559aff" r="1.16"/></g><g><path d="m16.17 17.24h5.79v1h-5.79z" fill="#cccaca"/></g><g><path d="m16.17 18.88h3.91v1h-3.91z" fill="#cccaca"/></g><g><path d="m33.34 30.57h2.44v7.26h-2.44z" fill="#425060" transform="matrix(0 1 -1 0 68.761 -.361)"/></g><g><path d="m35.05 31.49h13.45v5.42h-13.45z" fill="#616b77"/></g><g><ellipse cx="21.73" cy="33.79" fill="#616b77" rx="10.3" ry="10.29" transform="matrix(.002 -1 1 .002 -12.113 55.44)"/></g><g><ellipse cx="21.73" cy="33.79" fill="#8cf2ed" rx="7.21" ry="7.21" transform="matrix(.002 -1 1 .002 -12.113 55.44)"/></g><g><path d="m35.8 21.01-1.26 6.47-1.19-.97-7.02 8.23c-.53.65-1.49.77-2.16.23l-3.21-2.58-.26.15-4.69 5.62c-.58-.76-1.02-1.64-1.27-2.62-.05-.18-.08-.37-.12-.56l4.81-5.79c.54-.67 1.5-.77 2.17-.24l3.21 2.59.23-.14 5.9-6.83-1.19-.96z" fill="#fa4968"/></g><g><path d="m4.69 6.39h3.19v37.22h-3.19z" fill="#e5e5e5"/></g><g><path d="m1.5 9.04h3.19v31.91h-3.19z" fill="#cccaca"/></g></g></svg>