<svg id="Layer_1" enable-background="new 0 0 50 50" height="512" viewBox="0 0 50 50" width="512" xmlns="http://www.w3.org/2000/svg"><g><g><path d="m27.58 4.39v13.21c-2.12 0-3.98 1.09-5.07 2.74l-11.05-7.22c3.44-5.26 9.37-8.73 16.12-8.73z" fill="#ffb95c"/></g><g><path d="m27.58 23.65h-26.08c0-5.27 1.56-10.17 4.24-14.26z" fill="#6cd8d5"/></g><g><path d="m27.58 23.65v23.63c-3.48 0-6.79-.75-9.77-2.12z" fill="#abb734"/></g><g><path d="m40.28 36.35c-3.25 3.25-7.75 5.26-12.7 5.26v-17.96z" fill="#d9baa8"/></g><g><path d="m48.5 23.65c0 5.78-2.34 11.01-6.13 14.79l-14.79-14.79v-20.93c11.56 0 20.92 9.37 20.92 20.93z" fill="#fa4968"/></g><g><path d="m27.58 23.65-8.8 19.38c-7.37-3.35-12.48-10.76-12.48-19.38z" fill="#559aff"/></g><g><circle cx="27.58" cy="23.65" fill="#e5e5e5" r="8.3"/></g><g><path d="m22.78 23.15h9.59v1h-9.59z" fill="#525f70" transform="matrix(.642 -.766 .766 .642 -8.259 29.592)"/></g><g><path d="m30.18 28.24c-1.1 0-2-.9-2-2s.9-2 2-2 2 .9 2 2c0 1.11-.9 2-2 2zm0-2.99c-.55 0-1 .45-1 1s.45 1 1 1 1-.45 1-1-.45-1-1-1z" fill="#525f70"/></g><g><path d="m24.98 23.04c-1.1 0-2-.9-2-2s.9-2 2-2 2 .9 2 2-.9 2-2 2zm0-2.99c-.55 0-1 .45-1 1s.45 1 1 1 1-.45 1-1-.45-1-1-1z" fill="#525f70"/></g></g></svg>