<svg id="Layer_1" enable-background="new 0 0 50 50" height="512" viewBox="0 0 50 50" width="512" xmlns="http://www.w3.org/2000/svg"><g><g><path d="m5.76 4.28h31.97v41.43h-31.97z" fill="#cccaca" transform="matrix(-.967 -.256 .256 -.967 36.389 54.727)"/></g><g><path d="m5.76 4.28h31.97v41.43h-31.97z" fill="#f4f4f4" transform="matrix(-1 0 0 -1 43.499 50)"/></g><g><path d="m16.51 17.8h-6.33c-.63 0-1.13-.51-1.13-1.13v-7.55c0-.63.51-1.13 1.13-1.13h6.33c.63 0 1.13.51 1.13 1.13v7.55c0 .63-.5 1.13-1.13 1.13z" fill="#6eb0ff"/></g><g><path d="m43.73 40.22h-25.25c-2.91 0-5.27-2.36-5.27-5.27 0-2.91 2.36-5.27 5.27-5.27h25.25c2.91 0 5.27 2.36 5.27 5.27 0 2.91-2.36 5.27-5.27 5.27z" fill="#e5e5e5"/></g><g><path d="m43.73 40.22h-1.69c-2.91 0-5.27-2.36-5.27-5.27 0-2.91 2.36-5.27 5.27-5.27h1.69c2.91 0 5.27 2.36 5.27 5.27 0 2.91-2.36 5.27-5.27 5.27z" fill="#9ab2a5"/></g><g><ellipse cx="42.44" cy="34.51" fill="#fff" rx="2.08" ry="2.06"/><path d="m42.44 37.07c-.66 0-1.32-.25-1.82-.75-.49-.48-.76-1.13-.76-1.81s.27-1.33.76-1.81c1-1 2.64-1 3.64 0 .49.48.76 1.13.76 1.81 0 .69-.27 1.33-.76 1.81-.5.5-1.16.75-1.82.75zm0-4.12c-.4 0-.81.15-1.11.46-.3.29-.46.69-.46 1.1 0 .42.16.81.46 1.1.61.61 1.62.61 2.23 0 .3-.29.46-.69.46-1.1 0-.42-.16-.81-.46-1.1-.31-.31-.72-.46-1.12-.46z" fill="#616b77"/></g><g><path d="m45.41 37.96c-.13 0-.25-.05-.35-.15l-1.5-1.49c-.2-.19-.2-.51 0-.71.2-.19.51-.2.71 0l1.5 1.49c.2.19.2.51 0 .71-.1.1-.23.15-.36.15z" fill="#616b77"/></g><g><ellipse cx="13.35" cy="11.45" fill="#559aff" rx="1.49" ry="1.5"/></g><g><path d="m15.63 14.12c0 .21-.03.42-.08.65-.15.64-.74 1.07-1.39 1.07h-1.61c-.65 0-1.24-.43-1.4-1.07-.05-.22-.08-.44-.08-.65 0-.89.5-1.38 1.23-1.6.27.27.64.44 1.05.44s.78-.17 1.05-.44c.73.21 1.23.71 1.23 1.6z" fill="#3a8bed"/></g><g><path d="m20.59 7.99h13.86v2.79h-13.86z" fill="#ff6989"/></g><g><path d="m20.59 13.43h13.86v1h-13.86z" fill="#cccaca"/></g><g><path d="m20.59 15.87h5.04v1h-5.04z" fill="#cccaca"/></g><g><circle cx="10.42" cy="22.99" fill="#c6cc4a" r="1.16"/></g><g><path d="m13.24 21.67h5.79v1h-5.79z" fill="#cccaca"/></g><g><path d="m13.24 24.06h3.91v1h-3.91z" fill="#cccaca"/></g><g><circle cx="25.84" cy="22.99" fill="#8cf2ed" r="1.16"/></g><g><path d="m28.66 21.67h5.79v1h-5.79z" fill="#cccaca"/></g><g><path d="m28.66 24.06h3.91v1h-3.91z" fill="#cccaca"/></g></g></svg>