<svg id="Layer_1" enable-background="new 0 0 50 50" height="512" viewBox="0 0 50 50" width="512" xmlns="http://www.w3.org/2000/svg"><g><g><path d="m7.98 2.84h34.2v44.32h-34.2z" fill="#f4f4f4" transform="matrix(-1 0 0 -1 50.17 50)"/></g><g><path d="m4.74 6.07h3.24v37.85h-3.24z" fill="#e5e5e5"/></g><g><path d="m1.5 8.77h3.24v32.45h-3.24z" fill="#cccaca"/></g><g><path d="m13.36 36.36h3.74v6.81h-3.74z" fill="#fa4968"/></g><g><path d="m19.93 33.84h3.74v9.33h-3.74z" fill="#ffb95c"/></g><g><path d="m26.5 37.68h3.74v5.5h-3.74z" fill="#6cd8d5"/></g><g><path d="m33.07 31.59h3.74v11.59h-3.74z" fill="#559aff"/></g><g><path d="m25.25 16.2c-.03 0-.06 0-.1-.01-.13-.03-.24-.1-.32-.21l-3.71-5.54-6.17 4.15-.56-.83 6.58-4.43c.11-.07.24-.1.38-.08.13.03.24.1.32.21l3.72 5.54 8.47-5.7.56.83-8.89 5.98c-.08.06-.18.09-.28.09z" fill="#616b77"/></g><g><ellipse cx="21.15" cy="9.79" fill="#ffb95c" rx="1.77" ry="1.77" transform="matrix(.072 -.997 .997 .072 9.876 30.181)"/></g><g><ellipse cx="25.53" cy="15.42" fill="#6cd8d5" rx="1.77" ry="1.77" transform="matrix(.072 -.997 .997 .072 8.327 39.777)"/></g><g><ellipse cx="34.14" cy="9.72" fill="#559aff" rx="1.77" ry="1.77" transform="matrix(.072 -.997 .997 .072 22 43.077)"/></g><g><ellipse cx="14.87" cy="13.78" fill="#fa4968" rx="1.77" ry="1.77" transform="matrix(.072 -.997 .997 .072 .061 27.62)"/></g><g><path d="m19.86 20.51h5.7v1h-5.7z" fill="#e5e5e5"/></g><g><path d="m13.16 20.51h4.25v1h-4.25z" fill="#e5e5e5"/></g><g><path d="m23.87 22.8h5.27v1h-5.27z" fill="#e5e5e5"/></g><g><path d="m13.16 22.8h8.18v1h-8.18z" fill="#e5e5e5"/></g><g><path d="m20.23 25.09h4.93v1h-4.93z" fill="#e5e5e5"/></g><g><path d="m13.16 25.09h4.59v1h-4.59z" fill="#e5e5e5"/></g><g><path d="m24.21 27.38h4.93v1h-4.93z" fill="#e5e5e5"/></g><g><path d="m13.16 27.38h8.54v1h-8.54z" fill="#e5e5e5"/></g><g><path d="m13.16 29.67h5.43v1h-5.43z" fill="#e5e5e5"/></g><g><path d="m41.73 28.17h2v5.96h-2z" fill="#425060" transform="matrix(-.939 .343 -.343 -.939 93.556 45.744)"/></g><g><path d="m42.96 40.01-2.18-7.71 4.17-1.52 3.3 7.31c.68 1.5-.06 3.25-1.6 3.82-1.55.55-3.24-.32-3.69-1.9z" fill="#616b77"/></g><g><ellipse cx="39.44" cy="21.15" fill="#616b77" rx="8.44" ry="8.44" transform="matrix(.259 -.966 .966 .259 8.795 53.77)"/></g><g><ellipse cx="39.44" cy="21.15" fill="#8cf2ed" rx="5.91" ry="5.91" transform="matrix(.259 -.966 .966 .259 8.795 53.77)"/></g></g></svg>