<?xml version="1.0" encoding="UTF-8"?>
<svg id="Layer_1" data-name="Layer 1" xmlns="http://www.w3.org/2000/svg" viewBox="0 0 27.26 28.35">
  <defs>
    <style>
      .cls-1 {
        fill: #1c70a9;
      }

      .cls-1, .cls-2, .cls-3, .cls-4, .cls-5, .cls-6, .cls-7 {
        stroke-width: 0px;
      }

      .cls-2, .cls-5 {
        fill: #fff;
      }

      .cls-3 {
        fill: #818286;
      }

      .cls-3, .cls-5, .cls-6, .cls-7 {
        fill-rule: evenodd;
      }

      .cls-4 {
        fill: #808085;
      }

      .cls-6 {
        fill: #108743;
      }

      .cls-7 {
        fill: #f59522;
      }
    </style>
  </defs>
  <g>
    <polygon class="cls-2" points="1.41 25.35 1.41 25.01 1.32 25.35 .73 25.35 .64 25.01 .64 25.35 0 25.35 0 23.42 .81 23.42 1.03 24.15 1.24 23.42 2.05 23.42 2.05 25.35 1.41 25.35"/>
    <path class="cls-2" d="m.15,25.2v-1.64h.55l.33,1.12.33-1.12h.55v1.64h-.34v-1.29l-.36,1.29h-.36l-.36-1.29v1.29H.15Z"/>
    <path class="cls-2" d="m3.01,25.38c-.22,0-.4-.03-.53-.1-.14-.07-.24-.17-.29-.3-.05-.11-.07-.28-.07-.54v-1.02h.67v1.03c0,.12,0,.21.01.26,0,0,0,.03.04.05.02.01.07.03.17.03s.15-.02.16-.03c0,0,.04-.05.04-.29v-1.05h.67v1.01c0,.21-.02.37-.05.49-.04.14-.13.25-.27.34-.13.08-.31.13-.54.13Z"/>
    <path class="cls-2" d="m2.27,23.57h.37v.88c0,.13,0,.23.01.29,0,.06.05.11.1.15.06.04.14.06.25.06.13,0,.23-.03.27-.08.05-.06.07-.19.07-.39v-.9h.37v.86c0,.2-.01.35-.04.45-.03.1-.09.18-.2.25-.11.07-.26.1-.46.1s-.35-.03-.46-.09c-.11-.06-.19-.13-.23-.22-.04-.09-.06-.25-.06-.48v-.87Z"/>
    <polygon class="cls-2" points="5.19 25.35 4.74 24.66 4.62 24.77 4.62 25.35 3.96 25.35 3.96 23.42 4.62 23.42 4.62 23.94 5.16 23.42 6.09 23.42 5.22 24.22 6.04 25.35 5.19 25.35"/>
    <path class="cls-2" d="m4.11,25.2v-1.64h.37v.73l.74-.73h.49l-.68.64.72,1h-.48l-.5-.77-.3.27v.5h-.37Z"/>
    <rect class="cls-2" x="6.48" y="23.42" width=".67" height="1.94"/>
    <path class="cls-2" d="m6.63,25.2v-1.64h.37v1.64h-.37Z"/>
    <polygon class="cls-2" points="8.35 25.35 7.84 24.62 7.84 25.35 7.2 25.35 7.2 23.42 7.79 23.42 8.3 24.17 8.3 23.42 8.94 23.42 8.94 25.35 8.35 25.35"/>
    <path class="cls-2" d="m7.35,25.2v-1.64h.35l.74,1.09v-1.09h.34v1.64h-.37l-.73-1.07v1.07h-.34Z"/>
    <polygon class="cls-2" points="9.44 25.35 9.44 23.99 8.9 23.99 8.9 23.42 10.64 23.42 10.64 23.99 10.11 23.99 10.11 25.35 9.44 25.35"/>
    <path class="cls-2" d="m9.59,25.2v-1.36h-.54v-.28h1.44v.28h-.54v1.36h-.37Z"/>
    <polygon class="cls-2" points="10.58 25.35 10.58 23.42 12.23 23.42 12.23 23.99 11.25 23.99 11.25 24.06 12.16 24.06 12.16 24.63 11.25 24.63 11.25 24.78 12.26 24.78 12.26 25.35 10.58 25.35"/>
    <path class="cls-2" d="m10.73,25.2v-1.64h1.35v.28h-.98v.36h.91v.28h-.91v.45h1.02v.28h-1.38Z"/>
    <path class="cls-2" d="m13.55,25.35l-.44-.59s-.05-.06-.08-.07c0,0-.03-.01-.08-.02v.68h-.67v-1.94h.92c.27,0,.47.04.61.12.12.06.26.2.26.49,0,.15-.05.38-.31.52.07.07.14.15.21.26l.38.56h-.8Zm-.48-1.24c.23,0,.3-.02.31-.03,0,0,0-.01,0-.03,0-.02,0-.03,0-.03-.02,0-.08-.02-.3-.02h-.14v.12h.12Z"/>
    <path class="cls-2" d="m12.43,25.2v-1.64h.77c.24,0,.42.03.54.1.12.06.18.19.18.36,0,.26-.16.41-.48.46.12.06.26.19.41.4l.22.32h-.44l-.4-.53c-.04-.05-.08-.09-.13-.12-.05-.03-.12-.04-.23-.04h-.07v.68h-.37Zm.37-.94h.27c.18,0,.31-.01.37-.04.06-.03.1-.08.1-.17,0-.08-.03-.13-.08-.16-.05-.03-.18-.04-.37-.04h-.29v.42Z"/>
    <polygon class="cls-2" points="15.26 25.35 14.75 24.62 14.75 25.35 14.11 25.35 14.11 23.42 14.7 23.42 15.22 24.17 15.22 23.42 15.85 23.42 15.85 25.35 15.26 25.35"/>
    <path class="cls-2" d="m14.26,25.2v-1.64h.36l.75,1.09v-1.09h.34v1.64h-.37l-.73-1.07v1.07h-.34Z"/>
    <path class="cls-2" d="m17.23,25.35l-.16-.37h-.53l-.15.37h-.72l.84-1.94h.58l.86,1.94h-.73Zm-.4-.95l-.03-.06-.03.06h.05Z"/>
    <path class="cls-2" d="m17.73,25.2h-.4l-.16-.37h-.73l-.15.37h-.39l.71-1.64h.39l.73,1.64Zm-.67-.65l-.25-.61-.25.61h.5Z"/>
    <polygon class="cls-2" points="18.19 25.35 18.19 23.99 17.65 23.99 17.65 23.42 19.39 23.42 19.39 23.99 18.85 23.99 18.85 25.35 18.19 25.35"/>
    <path class="cls-2" d="m18.34,25.2v-1.36h-.54v-.28h1.44v.28h-.54v1.36h-.37Z"/>
    <rect class="cls-2" x="19.32" y="23.42" width=".67" height="1.94"/>
    <path class="cls-2" d="m19.47,25.2v-1.64h.37v1.64h-.37Z"/>
    <path class="cls-2" d="m20.99,25.38c-.32,0-.57-.09-.75-.26-.19-.18-.28-.42-.28-.72s.09-.55.28-.73c.18-.18.44-.27.75-.27.36,0,.62.1.79.31.16.2.24.43.24.69,0,.3-.09.54-.28.72-.18.18-.43.27-.75.27Zm0-1.41c-.18,0-.35.05-.35.41,0,.13.03.24.1.31.06.07.14.1.26.1.16,0,.22-.06.26-.1.06-.08.09-.19.09-.31,0-.36-.17-.41-.35-.41Z"/>
    <path class="cls-2" d="m20.11,24.39c0-.27.08-.47.23-.63.15-.15.37-.23.65-.23.31,0,.54.08.68.25.14.17.21.37.21.6,0,.26-.08.46-.23.62-.16.15-.37.23-.64.23s-.49-.07-.65-.22c-.16-.15-.23-.35-.23-.61Zm.38-.01c0,.17.04.3.13.41.09.1.21.15.37.15.17,0,.29-.05.38-.16.08-.11.12-.24.12-.41,0-.37-.17-.56-.5-.56s-.5.19-.5.56Z"/>
    <polygon class="cls-2" points="23.16 25.35 22.65 24.62 22.65 25.35 22.01 25.35 22.01 23.42 22.6 23.42 23.11 24.17 23.11 23.42 23.75 23.42 23.75 25.35 23.16 25.35"/>
    <path class="cls-2" d="m22.16,25.2v-1.64h.35l.75,1.09v-1.09h.34v1.64h-.37l-.73-1.07v1.07h-.34Z"/>
    <path class="cls-2" d="m25.13,25.35l-.16-.37h-.53l-.15.37h-.72l.84-1.94h.58l.86,1.94h-.73Zm-.4-.95l-.03-.06-.02.06h.05Z"/>
    <path class="cls-2" d="m25.63,25.2h-.4l-.16-.37h-.73l-.15.37h-.39l.71-1.64h.39l.73,1.64Zm-.67-.65l-.25-.61-.25.61h.5Z"/>
    <polygon class="cls-2" points="25.68 25.35 25.68 23.42 26.34 23.42 26.34 24.78 27.26 24.78 27.26 25.35 25.68 25.35"/>
    <path class="cls-2" d="m25.82,25.2v-1.64h.37v1.36h.91v.28h-1.28Z"/>
    <polygon class="cls-2" points="8.28 28.32 8.28 27.6 7.86 27.6 7.86 28.32 7.2 28.32 7.2 26.38 7.86 26.38 7.86 27.03 8.28 27.03 8.28 26.38 8.95 26.38 8.95 28.32 8.28 28.32"/>
    <path class="cls-2" d="m7.35,28.17v-1.64h.37v.64h.72v-.64h.37v1.64h-.37v-.71h-.72v.71h-.37Z"/>
    <path class="cls-2" d="m9.99,28.34c-.31,0-.57-.09-.75-.26-.19-.18-.28-.42-.28-.72s.09-.55.28-.73c.18-.18.44-.27.75-.27.36,0,.62.1.79.31.16.19.24.43.24.69,0,.3-.09.54-.28.72-.18.18-.43.27-.75.27Zm0-1.41c-.18,0-.35.05-.35.41,0,.13.03.23.1.31.04.04.1.1.26.1.12,0,.2-.03.26-.1.06-.08.09-.19.09-.32,0-.36-.17-.41-.35-.41Z"/>
    <path class="cls-2" d="m9.1,27.36c0-.26.08-.47.23-.63.16-.15.37-.23.65-.23.31,0,.54.08.68.25.14.17.21.37.21.6,0,.26-.08.46-.23.62-.16.15-.37.23-.64.23s-.49-.07-.65-.22c-.16-.15-.24-.35-.24-.61Zm.38-.01c0,.17.04.31.13.41.09.1.21.15.37.15s.29-.05.38-.16c.08-.11.12-.24.12-.41,0-.37-.17-.56-.5-.56s-.5.19-.5.56Z"/>
    <path class="cls-2" d="m11.81,28.35c-.67,0-.86-.38-.9-.69l-.02-.15.41-.04c-.26-.15-.33-.34-.33-.5,0-.2.09-.36.25-.46.14-.09.33-.14.56-.14.71,0,.84.4.85.64v.15s-.27,0-.27,0c.08.04.15.09.19.14.09.12.14.25.14.4,0,.25-.11.66-.88.66Zm-.25-.77c.03.14.1.19.25.19.2,0,.21-.05.21-.07-.02,0-.09-.04-.35-.1-.04,0-.08-.02-.11-.03h0Zm.1-.63s.11.04.24.07c.02,0,.04,0,.06.01-.01-.04-.04-.09-.18-.09-.06,0-.1,0-.12.01Z"/>
    <path class="cls-2" d="m11.06,27.64l.36-.03c.04.21.17.31.4.31.24,0,.36-.07.36-.22,0-.06-.03-.1-.08-.13-.05-.03-.18-.07-.39-.11-.39-.09-.58-.25-.58-.49,0-.15.06-.26.18-.34.12-.08.28-.12.48-.12.45,0,.68.17.7.5h-.37c-.03-.14-.14-.22-.33-.22-.21,0-.31.05-.31.16,0,.04.02.07.05.1.04.03.15.07.34.11.31.07.49.15.56.24.07.09.1.19.1.3,0,.34-.24.51-.73.51-.45,0-.7-.19-.75-.56Z"/>
    <path class="cls-2" d="m12.7,28.32v-1.94h.74c.21,0,.36,0,.47.03.13.02.24.09.34.2.1.11.15.25.15.43,0,.15-.04.28-.12.39-.08.1-.18.18-.3.22-.11.04-.28.06-.52.06h-.09v.62h-.67Zm.72-1.2c.18,0,.25-.02.28-.03,0,0,.02,0,.02-.05,0-.03,0-.05-.01-.05,0,0-.06-.03-.3-.03h-.03v.16h.05Z"/>
    <path class="cls-2" d="m12.85,28.17v-1.64h.59c.2,0,.35,0,.44.02.09.01.18.07.25.15.07.08.11.19.11.33,0,.12-.03.22-.09.3-.06.08-.13.14-.23.17-.09.03-.25.05-.47.05h-.24v.62h-.37Zm.37-1.36v.46h.2c.16,0,.28-.02.34-.05.07-.03.1-.09.1-.18s-.03-.15-.09-.18c-.06-.03-.19-.05-.38-.05h-.18Z"/>
    <rect class="cls-2" x="14.38" y="26.38" width=".67" height="1.94"/>
    <path class="cls-2" d="m14.53,28.17v-1.64h.37v1.64h-.37Z"/>
    <polygon class="cls-2" points="15.51 28.32 15.51 26.96 14.97 26.96 14.97 26.38 16.71 26.38 16.71 26.96 16.17 26.96 16.17 28.32 15.51 28.32"/>
    <path class="cls-2" d="m15.66,28.17v-1.36h-.54v-.28h1.44v.28h-.54v1.36h-.37Z"/>
    <path class="cls-2" d="m17.94,28.32l-.15-.37h-.53l-.15.37h-.72l.84-1.94h.58l.86,1.94h-.73Zm-.4-.95l-.03-.06-.02.06h.05Z"/>
    <path class="cls-2" d="m18.44,28.17h-.4l-.15-.37h-.73l-.15.37h-.39l.71-1.64h.39l.73,1.64Zm-.67-.65l-.25-.61-.25.61h.5Z"/>
    <polygon class="cls-2" points="18.48 28.32 18.48 26.38 19.15 26.38 19.15 27.74 20.06 27.74 20.06 28.32 18.48 28.32"/>
    <path class="cls-2" d="m18.63,28.17v-1.64h.37v1.36h.91v.28h-1.28Z"/>
  </g>
  <g>
    <path class="cls-1" d="m.14,25.21v-1.64h.55l.33,1.12.33-1.12h.55v1.64h-.34v-1.29l-.36,1.29h-.36l-.36-1.29v1.29H.14Z"/>
    <path class="cls-1" d="m2.26,23.57h.37v.88c0,.13,0,.23.01.29,0,.06.05.11.1.15.06.04.14.06.25.06.13,0,.23-.03.27-.08.05-.06.07-.19.07-.39v-.9h.37v.86c0,.2-.01.35-.04.45-.03.1-.09.18-.2.25-.11.07-.26.1-.46.1s-.35-.03-.46-.09c-.11-.06-.19-.13-.23-.22-.04-.09-.06-.25-.06-.48v-.87Z"/>
    <path class="cls-1" d="m4.1,25.21v-1.64h.37v.73l.74-.73h.49l-.68.64.72,1h-.48l-.5-.77-.3.27v.5h-.37Z"/>
    <path class="cls-1" d="m6.62,25.21v-1.64h.37v1.64h-.37Z"/>
    <path class="cls-1" d="m7.34,25.21v-1.64h.35l.74,1.09v-1.09h.34v1.64h-.37l-.73-1.07v1.07h-.34Z"/>
    <path class="cls-1" d="m9.58,25.21v-1.36h-.54v-.28h1.44v.28h-.54v1.36h-.37Z"/>
    <path class="cls-1" d="m10.72,25.21v-1.64h1.35v.28h-.98v.36h.91v.28h-.91v.45h1.02v.28h-1.38Z"/>
    <path class="cls-1" d="m12.42,25.21v-1.64h.77c.24,0,.42.03.54.1.12.06.18.19.18.36,0,.26-.16.41-.48.46.12.06.26.19.41.4l.22.32h-.44l-.4-.53c-.04-.05-.08-.09-.13-.12-.05-.03-.12-.04-.23-.04h-.07v.68h-.37Zm.37-.94h.27c.18,0,.31-.01.37-.04.06-.03.1-.08.1-.17,0-.08-.03-.13-.08-.16-.05-.03-.18-.04-.37-.04h-.29v.42Z"/>
    <path class="cls-1" d="m14.26,25.21v-1.64h.36l.75,1.09v-1.09h.34v1.64h-.37l-.73-1.07v1.07h-.34Z"/>
    <path class="cls-1" d="m17.72,25.21h-.4l-.16-.37h-.73l-.15.37h-.39l.71-1.64h.39l.73,1.64Zm-.67-.65l-.25-.61-.25.61h.5Z"/>
    <path class="cls-1" d="m18.33,25.21v-1.36h-.54v-.28h1.44v.28h-.54v1.36h-.37Z"/>
    <path class="cls-1" d="m19.46,25.21v-1.64h.37v1.64h-.37Z"/>
    <path class="cls-1" d="m20.1,24.4c0-.27.08-.47.23-.63.15-.15.37-.23.65-.23.31,0,.54.08.68.25.14.17.21.37.21.6,0,.26-.08.46-.23.62-.16.15-.37.23-.64.23s-.49-.07-.65-.22c-.16-.15-.23-.35-.23-.61Zm.38-.01c0,.17.04.3.13.41.09.1.21.15.37.15.17,0,.29-.05.38-.16.08-.11.12-.24.12-.41,0-.37-.17-.56-.5-.56s-.5.19-.5.56Z"/>
    <path class="cls-1" d="m22.16,25.21v-1.64h.35l.75,1.09v-1.09h.34v1.64h-.37l-.73-1.07v1.07h-.34Z"/>
    <path class="cls-1" d="m25.62,25.21h-.4l-.16-.37h-.73l-.15.37h-.39l.71-1.64h.39l.73,1.64Zm-.67-.65l-.25-.61-.25.61h.5Z"/>
    <path class="cls-1" d="m25.82,25.21v-1.64h.37v1.36h.91v.28h-1.28Z"/>
    <path class="cls-4" d="m7.34,28.17v-1.64h.37v.64h.72v-.64h.37v1.64h-.37v-.71h-.72v.71h-.37Z"/>
    <path class="cls-4" d="m9.1,27.36c0-.26.08-.47.23-.63.16-.15.37-.23.65-.23.31,0,.54.08.68.25.14.17.21.37.21.6,0,.26-.08.46-.23.62-.16.15-.37.23-.64.23s-.49-.07-.65-.22c-.16-.15-.24-.35-.24-.61Zm.38-.01c0,.17.04.31.13.41.09.1.21.15.37.15s.29-.05.38-.16c.08-.11.12-.24.12-.41,0-.37-.17-.56-.5-.56s-.5.19-.5.56Z"/>
    <path class="cls-4" d="m11.05,27.64l.36-.03c.04.21.17.31.4.31.24,0,.36-.07.36-.22,0-.06-.03-.1-.08-.13-.05-.03-.18-.07-.39-.11-.39-.09-.58-.25-.58-.49,0-.15.06-.26.18-.34.12-.08.28-.12.48-.12.45,0,.68.17.7.5h-.37c-.03-.14-.14-.22-.33-.22-.21,0-.31.05-.31.16,0,.04.02.07.05.1.04.03.15.07.34.11.31.07.49.15.56.24.07.09.1.19.1.3,0,.34-.24.51-.73.51-.45,0-.7-.19-.75-.56Z"/>
    <path class="cls-4" d="m12.84,28.17v-1.64h.59c.2,0,.35,0,.44.02.09.01.18.07.25.15.07.08.11.19.11.33,0,.12-.03.22-.09.3-.06.08-.13.14-.23.17-.09.03-.25.05-.47.05h-.24v.62h-.37Zm.37-1.36v.46h.2c.16,0,.28-.02.34-.05.07-.03.1-.09.1-.18s-.03-.15-.09-.18c-.06-.03-.19-.05-.38-.05h-.18Z"/>
    <path class="cls-4" d="m14.52,28.17v-1.64h.37v1.64h-.37Z"/>
    <path class="cls-4" d="m15.65,28.17v-1.36h-.54v-.28h1.44v.28h-.54v1.36h-.37Z"/>
    <path class="cls-4" d="m18.43,28.17h-.4l-.15-.37h-.73l-.15.37h-.39l.71-1.64h.39l.73,1.64Zm-.67-.65l-.25-.61-.25.61h.5Z"/>
    <path class="cls-4" d="m18.62,28.17v-1.64h.37v1.36h.91v.28h-1.28Z"/>
  </g>
  <g>
    <g>
      <path class="cls-5" d="m14.06,17.98c-4.87,0-8.83-3.96-8.83-8.83S9.19.32,14.06.32s8.83,3.96,8.83,8.83-3.96,8.83-8.83,8.83Z"/>
      <path class="cls-5" d="m22.53,9.15c0,4.68-3.79,8.47-8.47,8.47s-8.47-3.79-8.47-8.47S9.38.68,14.06.68s8.47,3.79,8.47,8.47Z"/>
      <path class="cls-5" d="m14.34,18.08c-.5,0-1-.04-1.48-.13-.14-.02-.28-.05-.41-.09-.15-.03-.3-.07-.45-.09-.46-.07-.68-.39-.84-.62l-.08-.11c-.84-1.14-1.29-2.43-1.61-3.54-.19-.65-.36-1.35-.52-2.2-.02-.1-.07-.33.09-.52.15-.19.39-.19.48-.19.46,0,.91,0,1.36,0s.93,0,1.39,0h0c.09,0,.3,0,.45.16.16.16.16.37.16.47,0,.67,0,1.33,0,2,0,.63,0,1.25,0,1.87.55,0,1.08,0,1.6,0s1.02,0,1.54,0c0-.58,0-1.13,0-1.69,0-.72,0-1.44,0-2.17,0-.15.02-.34.16-.48.14-.15.34-.16.47-.16.55,0,1.08,0,1.62,0,0,0,1.8,0,2.28,0,0-1.08,0-2.13,0-3.18-.67,0-1.31,0-1.96,0s-1.32,0-1.98,0h0c-.09,0-.29,0-.43-.15-.15-.15-.15-.35-.15-.44,0-.67,0-3.29,0-3.94-.55,0-1.07,0-1.6,0s-1.03,0-1.54,0c0,.6,0,1.18,0,1.75,0,.72,0,1.44,0,2.16,0,.09,0,.3-.15.46-.14.14-.32.15-.44.15-.34,0-.66,0-.98,0h-3.33c-.12,0-.37,0-.55-.25-.32-.46-.7-.88-1.14-1.24-.16-.14-.33-.37-.15-.74.53-1.14,1.28-2.13,2.22-2.95C9.67,1.08,11.22.36,12.95.1c.46-.07.92-.1,1.37-.1.93,0,1.87.15,2.78.44,1.43.46,2.69,1.25,3.75,2.35,1.17,1.21,1.95,2.67,2.31,4.35.2.93.25,1.91.14,2.91-.14,1.21-.5,2.35-1.07,3.38-.73,1.31-1.74,2.39-3,3.21-.96.62-2.01,1.05-3.11,1.27-.59.12-1.19.18-1.78.18Z"/>
      <path class="cls-5" d="m10.15,7.07c-.72,0-1.45,0-2.17,0-.1,0-.18,0-.25-.1-.34-.5-.75-.93-1.21-1.32-.12-.1-.11-.18-.06-.31.51-1.09,1.22-2.04,2.13-2.83,1.27-1.11,2.75-1.81,4.42-2.06,1.35-.2,2.68-.1,3.98.32,1.4.45,2.59,1.2,3.6,2.25,1.14,1.18,1.87,2.58,2.22,4.17.2.92.24,1.85.13,2.79-.13,1.15-.46,2.24-1.03,3.25-.71,1.27-1.67,2.29-2.88,3.08-.92.6-1.92,1.01-2.99,1.22-1.03.21-2.08.23-3.13.05-.29-.05-.58-.14-.87-.18-.36-.05-.5-.35-.68-.59-.76-1.03-1.2-2.21-1.56-3.43-.21-.71-.37-1.44-.51-2.17-.04-.21,0-.28.23-.28.92.01,1.83.01,2.75,0,.21,0,.25.07.25.26,0,1.33,0,2.67,0,4,0,.19.05.24.24.24,1.13,0,2.27-.01,3.4,0,.2,0,.23-.06.23-.24,0-1.33,0-2.65,0-3.98,0-.22.05-.28.28-.28,1.34,0,2.68,0,4.03,0,.19,0,.23-.05.22-.23,0-1.14,0-2.28,0-3.42,0-.2-.05-.26-.25-.26-1.35,0-2.7,0-4.05,0-.18,0-.22-.05-.22-.22,0-1.36,0-2.72,0-4.07,0-.18-.04-.23-.22-.23-1.14.01-2.28.01-3.42,0-.19,0-.22.05-.22.23,0,1.35,0,2.7,0,4.05,0,.2-.04.25-.25.25-.71-.02-1.41,0-2.12,0Z"/>
      <path class="cls-5" d="m13.55,21.6c-.14,0-.28,0-.42,0-1.08-.05-2.14-.27-3.14-.65-1.82-.69-3.39-1.81-4.82-3.42-.7-.8-1.26-1.74-1.7-2.89-.56-1.48-.78-3.05-.67-4.79.03-.38.06-.75.1-1.13.05-.51.09-1.01.12-1.52.05-1.13-.08-1.95-.41-2.67-.07-.16-.18-.31-.33-.48-.1-.11-.12-.27-.06-.41.06-.12.19-.2.32-.2.01,0,.02,0,.04,0,.25.02.43.12.58.19l.08.04c1.33.64,2.38,1.36,3.23,2.22.88.9,1.46,1.85,1.79,2.93.25.84.42,1.69.59,2.52.16.8.34,1.66.62,2.5.32.96.65,1.7,1.05,2.35.76,1.23,1.82,2.09,3.17,2.56.64.22,1.35.36,2.11.39.28.01.55.02.83.02.63,0,1.19-.04,1.72-.12l.34-.05c.5-.08.98-.15,1.44-.29.07-.02.14-.03.21-.03.08,0,.15.01.24.04.13.04.22.14.25.27.03.13-.02.26-.12.35-.26.22-.53.37-.79.51l-.13.07c-.87.48-1.67.83-2.45,1.07-.89.28-1.7.46-2.49.54-.46.05-.88.08-1.27.08Z"/>
      <path class="cls-5" d="m20.45,19.05c-.28.24-.57.38-.86.53-.76.42-1.55.78-2.38,1.05-.79.25-1.59.44-2.42.53-.55.06-1.09.09-1.63.06-1.04-.05-2.05-.26-3.03-.63-1.85-.7-3.38-1.85-4.68-3.32-.72-.82-1.24-1.76-1.63-2.78-.57-1.5-.75-3.06-.64-4.64.06-.89.17-1.77.21-2.66.04-.97-.03-1.94-.45-2.84-.09-.2-.22-.38-.4-.57.22.02.38.12.53.2,1.15.55,2.23,1.24,3.12,2.15.78.79,1.37,1.7,1.7,2.78.25.82.41,1.65.58,2.49.17.86.36,1.71.63,2.55.28.85.61,1.66,1.08,2.42.8,1.3,1.92,2.21,3.36,2.71.71.25,1.45.38,2.21.41.88.04,1.75.03,2.62-.11.61-.1,1.23-.17,1.83-.35.07-.02.13-.02.24,0Z"/>
      <path class="cls-5" d="m17.12,19.37c-1.27,0-2.5-.3-3.55-.86-.15-.08-.22-.25-.18-.41.04-.16.19-.27.35-.27,0,0,.23,0,.34,0,2.79,0,5.11-.99,6.89-2.95,1.87-2.06,2.59-4.57,2.16-7.45-.02-.17.07-.33.22-.39.04-.02.09-.03.13-.03.11,0,.23.06.3.15.62.89,1.02,1.93,1.19,3.08.31,2.21-.19,4.21-1.5,5.95-1.52,2.01-3.83,3.17-6.34,3.17Z"/>
      <path class="cls-5" d="m23.48,7.38c.62.88.97,1.87,1.12,2.92.29,2.08-.17,4-1.43,5.68-2.51,3.33-6.73,3.66-9.43,2.21,2.98.08,5.51-.88,7.49-3.07,1.99-2.2,2.69-4.81,2.25-7.74Z"/>
    </g>
    <g>
      <path class="cls-5" d="m22.53,9.15c0,4.68-3.79,8.47-8.47,8.47s-8.47-3.79-8.47-8.47S9.38.68,14.06.68s8.47,3.79,8.47,8.47Z"/>
      <path class="cls-6" d="m10.15,7.07c-.72,0-1.45,0-2.17,0-.1,0-.18,0-.25-.1-.34-.5-.75-.93-1.21-1.32-.12-.1-.11-.18-.06-.31.51-1.09,1.22-2.04,2.13-2.83,1.27-1.11,2.75-1.81,4.42-2.06,1.35-.2,2.68-.1,3.98.32,1.4.45,2.59,1.2,3.6,2.25,1.14,1.18,1.87,2.58,2.22,4.17.2.92.24,1.85.13,2.79-.13,1.15-.46,2.24-1.03,3.25-.71,1.27-1.67,2.29-2.89,3.08-.92.6-1.92,1.01-2.99,1.22-1.03.21-2.08.23-3.13.05-.29-.05-.58-.14-.87-.18-.36-.05-.5-.35-.68-.59-.76-1.03-1.2-2.21-1.56-3.43-.21-.71-.37-1.44-.51-2.17-.04-.21,0-.28.23-.28.91.01,1.83.01,2.75,0,.21,0,.25.07.25.26,0,1.33,0,2.67,0,4,0,.19.05.24.23.24,1.13,0,2.27-.01,3.4,0,.19,0,.23-.06.23-.24,0-1.33,0-2.65,0-3.98,0-.22.05-.28.28-.28,1.34,0,2.68,0,4.03,0,.19,0,.22-.05.22-.23,0-1.14,0-2.28,0-3.42,0-.2-.05-.26-.25-.26-1.35,0-2.7,0-4.05,0-.18,0-.22-.05-.22-.22,0-1.36,0-2.72,0-4.07,0-.18-.04-.23-.22-.23-1.14.01-2.28.01-3.42,0-.19,0-.22.05-.22.23,0,1.35,0,2.7,0,4.05,0,.2-.04.25-.25.25-.71-.02-1.41,0-2.12,0Z"/>
      <path class="cls-7" d="m20.45,19.05c-.28.24-.57.38-.86.53-.76.42-1.55.78-2.38,1.05-.79.25-1.59.44-2.42.53-.55.06-1.09.09-1.63.06-1.04-.05-2.05-.26-3.03-.63-1.85-.7-3.38-1.85-4.68-3.32-.72-.82-1.24-1.76-1.63-2.78-.57-1.5-.75-3.06-.64-4.64.06-.89.17-1.77.21-2.66.04-.97-.03-1.94-.45-2.84-.09-.2-.22-.38-.4-.57.22.02.38.12.53.2,1.15.55,2.22,1.24,3.12,2.15.78.79,1.37,1.7,1.7,2.78.25.82.41,1.65.58,2.49.17.86.36,1.71.63,2.55.28.85.61,1.66,1.08,2.42.8,1.3,1.92,2.21,3.36,2.71.71.25,1.46.38,2.21.41.87.04,1.75.03,2.62-.11.61-.1,1.23-.17,1.83-.35.07-.02.14-.02.24,0Z"/>
      <path class="cls-3" d="m23.48,7.38c.62.88.97,1.87,1.12,2.92.29,2.08-.17,4-1.43,5.68-2.51,3.33-6.73,3.66-9.43,2.21,2.98.08,5.51-.88,7.49-3.07,1.99-2.2,2.69-4.81,2.25-7.74Z"/>
    </g>
  </g>
</svg>