<?xml version="1.0" encoding="UTF-8"?>
<svg id="Layer_1" data-name="Layer 1" xmlns="http://www.w3.org/2000/svg" viewBox="0 0 65 26">
  <rect width="65" height="26" fill="none" stroke-width="0"/>
  <g>
    <g>
      <g>
        <g>
          <path d="m4.19,20.17s-.08,0-.11-.02c-.04.01-.07.02-.11.02h-.22s-.07,0-.11-.02c-.03.01-.07.02-.11.02h-.21c-.21,0-.38-.17-.38-.38v-1c0-.21.17-.38.38-.38h.34c.07,0,.14.02.2.06.06-.04.13-.06.2-.06h.34c.21,0,.38.17.38.38v1c0,.21-.17.38-.38.38h-.21Z" fill="#fff" stroke-width="0"/>
          <path d="m3.32,19.79v-1h.34l.2.68.2-.68h.34v1h-.21v-.79l-.22.79h-.22l-.22-.79v.79h-.21Z" fill="#fff" stroke-width="0"/>
          <path d="m5.07,20.19c-.18,0-.33-.03-.46-.09-.15-.08-.26-.19-.32-.33-.05-.11-.07-.24-.07-.44v-.53c0-.21.17-.38.38-.38h.22c.08,0,.16.03.22.07.06-.04.14-.07.22-.07h.22c.21,0,.38.17.38.38v.53c0,.16-.01.28-.04.37-.03.11-.11.26-.29.38-.13.08-.29.12-.49.12Z" fill="#fff" stroke-width="0"/>
          <path d="m4.62,18.79h.22v.54c0,.08,0,.14,0,.17,0,.04.03.07.06.09.04.02.09.04.15.04.08,0,.14-.02.17-.05.03-.03.04-.11.04-.24v-.55h.22v.53c0,.12,0,.21-.02.27-.02.06-.06.11-.12.15-.07.04-.16.06-.28.06s-.21-.02-.28-.05c-.07-.03-.11-.08-.14-.14-.02-.06-.04-.15-.04-.29v-.53Z" fill="#fff" stroke-width="0"/>
          <path d="m6.45,20.17c-.09,0-.18-.03-.24-.09-.07.05-.15.09-.24.09h-.22c-.21,0-.38-.17-.38-.38v-1c0-.21.17-.38.38-.38h.22c.09,0,.16.03.23.07.07-.05.15-.07.23-.07h.3c.16,0,.3.1.36.24.06.15.02.31-.1.42l-.17.16.24.34c.08.12.1.27.03.4s-.2.21-.34.21h-.29Z" fill="#fff" stroke-width="0"/>
          <path d="m5.74,19.79v-1h.22v.44l.45-.44h.3l-.42.39.44.61h-.29l-.31-.47-.18.17v.3h-.22Z" fill="#fff" stroke-width="0"/>
          <rect x="6.9" y="18.4" width=".99" height="1.77" rx=".38" ry=".38" fill="#fff" stroke-width="0"/>
          <path d="m7.28,19.79v-1h.23v1h-.23Z" fill="#fff" stroke-width="0"/>
          <path d="m8.38,20.17c-.08,0-.16-.03-.22-.07-.06.05-.14.07-.22.07h-.21c-.21,0-.38-.17-.38-.38v-1c0-.21.17-.38.38-.38h.22c.08,0,.16.03.23.07.06-.05.14-.07.23-.07h.21c.21,0,.38.17.38.38v1c0,.21-.17.38-.38.38h-.22Z" fill="#fff" stroke-width="0"/>
          <path d="m7.72,19.79v-1h.22l.46.67v-.67h.21v1h-.22l-.45-.65v.65h-.21Z" fill="#fff" stroke-width="0"/>
          <path d="m9.09,20.17c-.21,0-.38-.17-.38-.38v-.45c-.19-.03-.33-.19-.33-.38v-.17c0-.21.17-.38.38-.38h.88c.21,0,.38.17.38.38v.17c0,.19-.14.35-.33.38v.45c0,.21-.17.38-.38.38h-.22Z" fill="#fff" stroke-width="0"/>
          <path d="m9.09,19.79v-.83h-.33v-.17h.88v.17h-.33v.83h-.22Z" fill="#fff" stroke-width="0"/>
          <path d="m9.79,20.17c-.21,0-.38-.17-.38-.38v-1c0-.21.17-.38.38-.38h.82c.21,0,.38.17.38.38v.17c0,.06-.02.13-.04.18,0,.01,0,.03,0,.04v.17s0,.04,0,.06c.04.06.07.14.07.22v.17c0,.21-.17.38-.38.38h-.84Z" fill="#fff" stroke-width="0"/>
          <path d="m9.79,19.79v-1h.82v.17h-.6v.22h.56v.17h-.56v.27h.62v.17h-.84Z" fill="#fff" stroke-width="0"/>
          <path d="m11.56,20.17c-.09,0-.18-.03-.25-.1-.07.06-.16.1-.25.1h-.22c-.21,0-.38-.17-.38-.38v-1c0-.21.17-.38.38-.38h.47c.22,0,.38.03.52.11.19.1.3.31.3.55,0,.11-.03.23-.09.34l.11.16c.08.12.09.27.02.4s-.2.21-.34.21h-.27Z" fill="#fff" stroke-width="0"/>
          <path d="m10.83,19.79v-1h.47c.15,0,.26.02.33.06.07.04.11.11.11.22,0,.16-.1.25-.29.28.08.04.16.12.25.25l.14.2h-.27l-.24-.32s-.05-.06-.08-.07c-.03-.02-.08-.02-.14-.02h-.05v.42h-.22Zm.22-.58h.17c.11,0,.19,0,.23-.03.04-.02.06-.05.06-.1,0-.05-.02-.08-.05-.1-.03-.02-.11-.03-.23-.03h-.17v.25Z" fill="#fff" stroke-width="0"/>
          <path d="m12.6,20.17c-.08,0-.16-.03-.22-.07-.06.05-.14.07-.22.07h-.21c-.21,0-.38-.17-.38-.38v-1c0-.21.17-.38.38-.38h.22c.08,0,.16.03.23.07.06-.05.14-.07.23-.07h.21c.21,0,.38.17.38.38v1c0,.21-.17.38-.38.38h-.22Z" fill="#fff" stroke-width="0"/>
          <path d="m11.95,19.79v-1h.22l.46.67v-.67h.21v1h-.22l-.45-.65v.65h-.21Z" fill="#fff" stroke-width="0"/>
          <path d="m13.82,20.17c-.13,0-.25-.06-.32-.17-.07.1-.19.17-.32.17h-.24c-.13,0-.25-.06-.32-.17-.07-.11-.08-.24-.03-.36l.43-1c.06-.14.2-.23.35-.23h.24c.15,0,.29.09.35.23l.44,1c.05.12.04.26-.03.36-.07.11-.19.17-.32.17h-.24Z" fill="#fff" stroke-width="0"/>
          <path d="m14.07,19.79h-.24l-.09-.23h-.45l-.09.23h-.24l.43-1h.24l.44,1Zm-.41-.4l-.15-.37-.15.37h.3Z" fill="#fff" stroke-width="0"/>
          <path d="m14.44,20.17c-.21,0-.38-.17-.38-.38v-.45c-.19-.03-.33-.19-.33-.38v-.17c0-.21.17-.38.38-.38h.88c.21,0,.38.17.38.38v.17c0,.19-.14.35-.33.38v.45c0,.21-.17.38-.38.38h-.22Z" fill="#fff" stroke-width="0"/>
          <path d="m14.44,19.79v-.83h-.33v-.17h.88v.17h-.33v.83h-.22Z" fill="#fff" stroke-width="0"/>
          <rect x="14.74" y="18.4" width=".99" height="1.77" rx=".38" ry=".38" fill="#fff" stroke-width="0"/>
          <path d="m15.13,19.79v-1h.23v1h-.23Z" fill="#fff" stroke-width="0"/>
          <path d="m16.06,20.19c-.34,0-.54-.13-.66-.24-.12-.12-.26-.32-.26-.65s.14-.54.26-.66c.11-.11.32-.25.66-.25.38,0,.6.16.71.29.14.17.21.38.21.61,0,.33-.14.54-.26.65-.12.11-.32.25-.66.25Zm-.08-.94" fill="#fff" stroke-width="0"/>
          <path d="m15.52,19.29c0-.16.05-.29.14-.38.09-.09.23-.14.4-.14.19,0,.33.05.41.15.08.1.13.22.13.36,0,.16-.05.28-.14.38-.1.09-.23.14-.39.14s-.3-.05-.4-.14c-.1-.09-.14-.22-.14-.37Zm.23,0c0,.1.03.19.08.25.05.06.13.09.23.09.1,0,.18-.03.23-.1.05-.07.08-.15.08-.25,0-.23-.1-.34-.31-.34s-.31.11-.31.34Z" fill="#fff" stroke-width="0"/>
          <path d="m17.43,20.17c-.08,0-.16-.03-.22-.07-.06.05-.14.07-.22.07h-.21c-.21,0-.38-.17-.38-.38v-1c0-.21.17-.38.38-.38h.22c.08,0,.16.03.23.07.06-.05.14-.07.23-.07h.21c.21,0,.38.17.38.38v1c0,.21-.17.38-.38.38h-.22Z" fill="#fff" stroke-width="0"/>
          <path d="m16.78,19.79v-1h.22l.46.67v-.67h.21v1h-.22l-.45-.65v.65h-.21Z" fill="#fff" stroke-width="0"/>
          <path d="m18.65,20.17c-.13,0-.25-.06-.32-.17-.07.1-.19.17-.32.17h-.24c-.13,0-.25-.07-.32-.17-.07-.11-.08-.24-.03-.36l.43-1c.06-.14.2-.23.35-.23h.24c.15,0,.29.09.35.23l.44,1c.05.12.04.26-.03.36-.07.11-.19.17-.32.17h-.24Z" fill="#fff" stroke-width="0"/>
          <path d="m18.89,19.79h-.24l-.1-.23h-.45l-.09.23h-.24l.43-1h.24l.44,1Zm-.41-.4l-.15-.37-.15.37h.3Z" fill="#fff" stroke-width="0"/>
          <path d="m19.01,20.17c-.21,0-.38-.17-.38-.38v-1c0-.21.17-.38.38-.38h.23c.21,0,.38.17.38.38v.45h.17c.21,0,.38.17.38.38v.17c0,.21-.17.38-.38.38h-.78Z" fill="#fff" stroke-width="0"/>
          <path d="m19.01,19.79v-1h.23v.83h.56v.17h-.78Z" fill="#fff" stroke-width="0"/>
          <path d="m8.38,21.98c-.08,0-.16-.03-.22-.07-.06.04-.14.07-.22.07h-.22c-.21,0-.38-.17-.38-.38v-1c0-.21.17-.38.38-.38h.22c.08,0,.16.03.22.07.06-.04.14-.07.22-.07h.22c.21,0,.38.17.38.38v1c0,.21-.17.38-.38.38h-.22Z" fill="#fff" stroke-width="0"/>
          <path d="m7.72,21.6v-1h.22v.39h.44v-.39h.22v1h-.22v-.44h-.44v.44h-.22Z" fill="#fff" stroke-width="0"/>
          <path d="m9.34,22c-.27,0-.49-.08-.66-.24-.12-.11-.26-.32-.26-.65s.14-.54.26-.65c.12-.11.33-.25.66-.25.39,0,.6.16.71.29.14.17.21.38.21.61,0,.33-.14.54-.26.65-.11.11-.32.25-.66.25Zm-.08-.94" fill="#fff" stroke-width="0"/>
          <path d="m8.79,21.1c0-.16.05-.29.14-.38.09-.09.23-.14.4-.14.19,0,.33.05.41.15.08.1.13.22.13.36,0,.16-.05.28-.14.38-.09.09-.23.14-.39.14s-.3-.05-.4-.14c-.1-.09-.14-.22-.14-.37Zm.23,0c0,.1.03.19.08.25.05.06.13.09.23.09s.18-.03.23-.1c.05-.07.08-.15.08-.25,0-.23-.1-.34-.31-.34s-.31.11-.31.34Z" fill="#fff" stroke-width="0"/>
          <path d="m10.45,22c-.47,0-.78-.25-.84-.68-.01-.1.01-.19.07-.27-.02-.07-.03-.14-.03-.19,0-.22.1-.41.29-.53.13-.09.3-.13.5-.13.58,0,.8.35.81.67,0,.05,0,.11-.03.16.04.09.06.18.06.28,0,.33-.22.69-.83.69Z" fill="#fff" stroke-width="0"/>
          <path d="m9.99,21.27l.22-.02c.03.13.11.19.24.19.15,0,.22-.05.22-.14,0-.03-.02-.06-.05-.08-.03-.02-.11-.04-.24-.07-.24-.05-.36-.15-.36-.3,0-.09.04-.16.11-.21.07-.05.17-.07.29-.07.28,0,.42.1.43.3h-.22c-.02-.09-.09-.14-.2-.14-.13,0-.19.03-.19.1,0,.02.01.04.03.06.02.02.09.04.21.07.19.04.3.09.34.14.04.05.06.11.06.19,0,.21-.15.31-.45.31-.28,0-.43-.11-.46-.34Z" fill="#fff" stroke-width="0"/>
          <path d="m11.08,21.98c-.21,0-.38-.17-.38-.38v-1c0-.21.17-.38.38-.38h.36c.15,0,.26,0,.34.02.14.02.27.1.37.22.07.08.16.23.16.45,0,.16-.04.29-.13.41-.08.11-.19.19-.32.24-.05.02-.11.03-.18.04h0c0,.22-.17.39-.38.39h-.22Z" fill="#fff" stroke-width="0"/>
          <path d="m11.08,21.6v-1h.36c.12,0,.21,0,.27.02.06,0,.11.04.15.09.05.05.07.12.07.2,0,.07-.02.13-.05.18-.04.05-.08.08-.14.1-.06.02-.15.03-.29.03h-.15v.38h-.22Zm.22-.83v.28h.12c.1,0,.17,0,.21-.03.04-.02.06-.06.06-.11s-.02-.09-.06-.11c-.04-.02-.11-.03-.23-.03h-.11Z" fill="#fff" stroke-width="0"/>
          <rect x="11.73" y="20.22" width=".99" height="1.77" rx=".38" ry=".38" fill="#fff" stroke-width="0"/>
          <path d="m12.11,21.6v-1h.23v1h-.23Z" fill="#fff" stroke-width="0"/>
          <path d="m12.8,21.98c-.21,0-.38-.17-.38-.38v-.45c-.19-.03-.33-.19-.33-.38v-.17c0-.21.17-.38.38-.38h.88c.21,0,.38.17.38.38v.17c0,.19-.14.35-.33.38v.45c0,.21-.17.38-.38.38h-.22Z" fill="#fff" stroke-width="0"/>
          <path d="m12.8,21.6v-.83h-.33v-.17h.88v.17h-.33v.83h-.22Z" fill="#fff" stroke-width="0"/>
          <path d="m14.26,21.98c-.13,0-.25-.06-.32-.17-.07.1-.19.17-.32.17h-.24c-.13,0-.25-.06-.32-.17s-.08-.24-.03-.36l.43-1c.06-.14.2-.23.35-.23h.24c.15,0,.29.09.35.23l.44,1c.05.12.04.26-.03.36-.07.11-.19.17-.32.17h-.24Z" fill="#fff" stroke-width="0"/>
          <path d="m14.5,21.6h-.24l-.09-.23h-.45l-.09.23h-.24l.43-1h.24l.44,1Zm-.41-.4l-.15-.37-.15.37h.3Z" fill="#fff" stroke-width="0"/>
          <path d="m14.62,21.98c-.21,0-.38-.17-.38-.38v-1c0-.21.17-.38.38-.38h.22c.21,0,.38.17.38.38v.45h.17c.21,0,.38.17.38.38v.17c0,.21-.17.38-.38.38h-.78Z" fill="#fff" stroke-width="0"/>
          <path d="m14.62,21.6v-1h.23v.83h.56v.17h-.78Z" fill="#fff" stroke-width="0"/>
        </g>
        <g>
          <g>
            <path d="m11.83,15.76c-3.19,0-5.78-2.59-5.78-5.78s2.59-5.78,5.78-5.78,5.78,2.59,5.78,5.78-2.59,5.78-5.78,5.78Z" fill="#fff" fill-rule="evenodd" stroke-width="0"/>
            <path d="m11.83,15.37c-2.98,0-5.4-2.42-5.4-5.4s2.42-5.4,5.4-5.4,5.4,2.42,5.4,5.4-2.42,5.4-5.4,5.4Z" fill="#fff" fill-rule="evenodd" stroke-width="0"/>
            <path d="m11.83,15.54c-3.07,0-5.56-2.49-5.56-5.56s2.49-5.56,5.56-5.56,5.56,2.49,5.56,5.56-2.49,5.56-5.56,5.56Z" fill="#fff" fill-rule="evenodd" stroke-width="0"/>
            <path d="m17.01,9.98c0,2.86-2.32,5.18-5.18,5.18s-5.18-2.32-5.18-5.18,2.32-5.18,5.18-5.18,5.18,2.32,5.18,5.18Z" fill="#fff" fill-rule="evenodd" stroke-width="0"/>
            <path d="m12,15.82c-.33,0-.65-.03-.97-.08-.09-.02-.18-.04-.27-.06-.09-.02-.17-.04-.25-.05-.44-.07-.66-.37-.77-.54l-.04-.06c-.55-.74-.83-1.57-1.04-2.28-.12-.41-.22-.84-.33-1.38-.05-.25,0-.47.13-.64.14-.17.34-.25.59-.25.29,0,.56,0,.83,0s.56,0,.85,0h0c.23,0,.42.07.56.21.21.21.21.47.21.56,0,.41,0,.81,0,1.22,0,.25,0,.51,0,.76.2,0,.4,0,.6,0,.19,0,.37,0,.56,0,0-.22,0-.43,0-.64,0-.44,0-.88,0-1.32,0-.09,0-.36.21-.57.14-.14.33-.21.56-.21.34,0,.66,0,.99,0,0,0,.58,0,1.01,0,0-.4,0-.79,0-1.18-.27,0-.81,0-.81,0-.4,0-.81,0-1.21,0-.23,0-.41-.07-.54-.21-.2-.2-.2-.45-.2-.54,0-.22,0-.76,0-1.28,0-.27,0-.53,0-.74-.2,0-.4,0-.59,0-.19,0-.37,0-.56,0,0,.23,0,.46,0,.68,0,.44,0,.88,0,1.32,0,.23-.07.41-.2.55-.14.14-.32.21-.54.21-.21,0-.41,0-.6,0h-2.03c-.29,0-.5-.11-.65-.32-.17-.25-.39-.48-.63-.68-.28-.23-.35-.58-.2-.91.35-.74.84-1.39,1.45-1.93.87-.76,1.88-1.23,3.01-1.4.3-.04.6-.07.89-.07.61,0,1.22.1,1.81.29.94.3,1.76.82,2.45,1.53.76.79,1.27,1.75,1.51,2.84.13.61.16,1.25.09,1.9-.09.79-.32,1.53-.7,2.21-.48.86-1.14,1.56-1.96,2.1-.63.41-1.31.69-2.04.83-.39.08-.78.12-1.16.12Z" fill="#fff" fill-rule="evenodd" stroke-width="0"/>
            <path d="m12,15.43c-.3,0-.61-.03-.91-.08-.08-.01-.17-.03-.25-.05-.09-.02-.18-.04-.27-.06-.28-.04-.42-.24-.52-.38l-.05-.07c-.52-.7-.79-1.48-.99-2.16-.12-.4-.22-.83-.32-1.34-.01-.06-.04-.2.05-.32.09-.11.24-.11.29-.11.28,0,.56,0,.83,0s.57,0,.85,0h0c.05,0,.18,0,.28.1.1.1.1.23.1.28,0,.41,0,.81,0,1.22,0,.38,0,.76,0,1.15.34,0,.66,0,.98,0s.63,0,.94,0c0-.36,0-.69,0-1.03,0-.44,0-.88,0-1.32,0-.09.01-.21.1-.3.09-.09.21-.1.29-.1.33,0,.66,0,.99,0,0,0,1.1,0,1.39,0,0-.66,0-1.3,0-1.94-.41,0-.8,0-1.19,0s-.81,0-1.21,0h0c-.05,0-.17,0-.26-.09-.09-.09-.09-.22-.09-.27,0-.41,0-2.01,0-2.41-.34,0-.66,0-.98,0s-.63,0-.94,0c0,.37,0,.72,0,1.07,0,.44,0,.88,0,1.32,0,.06,0,.19-.09.28-.08.08-.19.09-.27.09-.21,0-.4,0-.6,0h-2.04c-.07,0-.23,0-.34-.15-.19-.28-.43-.54-.7-.76-.1-.08-.2-.23-.09-.45.33-.69.78-1.3,1.35-1.8.81-.71,1.76-1.15,2.82-1.31.28-.04.56-.06.84-.06.57,0,1.14.09,1.7.27.87.28,1.65.76,2.29,1.43.71.74,1.19,1.63,1.41,2.66.12.57.15,1.17.08,1.78-.08.74-.3,1.44-.65,2.07-.45.8-1.07,1.46-1.84,1.96-.59.38-1.23.64-1.9.78-.36.07-.73.11-1.09.11Z" fill="#fff" fill-rule="evenodd" stroke-width="0"/>
            <path d="m12,15.6c-.31,0-.63-.03-.94-.08-.09-.02-.17-.03-.26-.05-.09-.02-.17-.04-.26-.05-.35-.05-.52-.3-.63-.45-.01-.02-.03-.04-.04-.06-.53-.71-.81-1.52-1.01-2.21-.12-.4-.22-.83-.32-1.36-.01-.07-.06-.28.09-.45.09-.12.24-.17.42-.17.29,0,.56,0,.84,0s.56,0,.85,0h0c.17,0,.3.05.4.14.14.14.14.33.14.4,0,.41,0,.82,0,1.22,0,.33,0,.65,0,.98.27,0,.55,0,.82,0s.52,0,.78,0c0-.28,0-.56,0-.84,0-.45,0-.9,0-1.35,0-.07,0-.26.15-.41.15-.15.34-.15.4-.15.31,0,.62,0,.92,0h.63c.22,0,.45,0,.67,0,0-.58,0-1.11,0-1.62-.36,0-.71,0-1.07,0-.39,0-.78,0-1.18,0h0c-.07,0-.24,0-.38-.14-.14-.14-.14-.32-.14-.38,0-.41,0-.81,0-1.22,0-.34,0-.68,0-1.02-.28,0-.55,0-.82,0-.26,0-.51,0-.77,0,0,.31,0,.61,0,.91,0,.44,0,.88,0,1.32,0,.07,0,.25-.14.4-.14.14-.32.14-.38.14,0,0-.02,0-.02,0-.19,0-.37,0-.56,0h-.73s-1.33,0-1.33,0c-.09,0-.31,0-.47-.22-.19-.27-.41-.51-.67-.73-.09-.08-.3-.3-.14-.64.34-.72.8-1.34,1.39-1.86.84-.73,1.81-1.19,2.9-1.35.29-.04.58-.06.86-.06.59,0,1.17.09,1.75.28.9.29,1.69.79,2.36,1.48.74.76,1.22,1.68,1.45,2.73.13.59.16,1.2.09,1.83-.09.76-.31,1.48-.67,2.13-.46.82-1.1,1.5-1.89,2.02-.6.39-1.26.66-1.96.8-.37.07-.75.11-1.12.11Z" fill="#fff" fill-rule="evenodd" stroke-width="0"/>
            <path d="m9.44,8.7c-.44,0-.88,0-1.33,0-.06,0-.11,0-.15-.06-.21-.3-.46-.57-.74-.8-.07-.06-.07-.11-.03-.19.31-.67.75-1.25,1.3-1.73.78-.68,1.68-1.1,2.7-1.26.83-.12,1.64-.06,2.43.2.85.27,1.58.73,2.2,1.38.7.72,1.14,1.58,1.36,2.55.12.56.15,1.13.08,1.71-.08.7-.28,1.37-.63,1.98-.43.77-1.02,1.4-1.76,1.88-.56.37-1.17.62-1.83.75-.63.13-1.27.14-1.91.03-.18-.03-.35-.08-.53-.11-.22-.03-.31-.21-.42-.36-.47-.63-.73-1.35-.95-2.09-.13-.44-.23-.88-.31-1.32-.03-.13,0-.17.14-.17.56,0,1.12,0,1.68,0,.13,0,.15.04.15.16,0,.82,0,1.63,0,2.45,0,.11.03.15.14.14.69,0,1.39,0,2.08,0,.12,0,.14-.04.14-.15,0-.81,0-1.62,0-2.43,0-.13.03-.17.17-.17.82,0,1.64,0,2.46,0,.12,0,.14-.03.14-.14,0-.7,0-1.39,0-2.09,0-.12-.03-.16-.15-.16-.83,0-1.65,0-2.48,0-.11,0-.14-.03-.13-.14,0-.83,0-1.66,0-2.49,0-.11-.02-.14-.14-.14-.7,0-1.39,0-2.09,0-.11,0-.14.03-.14.14,0,.82,0,1.65,0,2.47,0,.12-.03.16-.15.15-.43,0-.86,0-1.3,0Z" fill="#fff" fill-rule="evenodd" stroke-width="0"/>
            <path d="m11.52,17.97c-.09,0-.18,0-.27,0-.71-.03-1.39-.18-2.04-.42-1.17-.44-2.18-1.16-3.1-2.19-.46-.52-.82-1.14-1.11-1.88-.37-.96-.51-1.97-.43-3.09.02-.23.04-.47.06-.7v-.02c.03-.29.06-.6.07-.89.03-.62-.04-1.07-.22-1.45-.03-.06-.07-.12-.14-.19-.17-.18-.21-.46-.1-.68.1-.2.31-.34.54-.34.02,0,.04,0,.06,0,.22.02.38.1.48.15l.05.02c.85.41,1.53.88,2.07,1.43.58.59.97,1.23,1.19,1.95.16.53.27,1.06.37,1.58.09.48.2.99.37,1.48.18.56.38.99.6,1.35.42.67,1,1.15,1.74,1.4.36.12.75.2,1.18.22.17,0,.33.01.49.01.37,0,.69-.02.99-.07l.23-.04c.29-.04.56-.08.81-.16.08-.02.16-.04.24-.04s.17.01.26.04c.21.06.37.24.42.46.05.21-.03.44-.2.58-.19.16-.38.26-.55.35l-.08.04c-.55.3-1.06.53-1.56.69-.57.18-1.09.29-1.6.35-.3.03-.57.05-.82.05Z" fill="#fff" fill-rule="evenodd" stroke-width="0"/>
            <path d="m11.52,17.58c-.08,0-.17,0-.25,0-.66-.03-1.31-.17-1.92-.4-1.11-.42-2.07-1.1-2.94-2.09-.43-.49-.77-1.06-1.04-1.77-.35-.91-.48-1.86-.41-2.93.02-.23.04-.46.06-.69.03-.31.06-.62.07-.93.03-.69-.05-1.19-.25-1.63-.05-.1-.11-.19-.2-.29-.06-.07-.08-.17-.04-.25.04-.08.11-.12.2-.12,0,0,.01,0,.02,0,.15.01.26.07.35.12l.05.02c.81.39,1.46.83,1.97,1.36.54.55.89,1.13,1.09,1.79.15.51.26,1.04.36,1.54.1.49.21,1.02.38,1.53.19.59.4,1.04.64,1.43.46.75,1.12,1.28,1.94,1.56.39.14.83.22,1.29.24.17,0,.34.01.5.01.38,0,.73-.02,1.05-.08l.21-.03c.31-.05.6-.09.88-.18.04-.01.09-.02.13-.02.05,0,.09,0,.15.02.08.02.14.09.15.17.02.08-.01.16-.07.21-.16.14-.32.22-.48.31l-.08.04c-.53.29-1.02.51-1.5.66-.54.17-1.04.28-1.52.33-.28.03-.54.05-.78.05Z" fill="#fff" fill-rule="evenodd" stroke-width="0"/>
            <path d="m11.52,17.74c-.09,0-.17,0-.26,0-.68-.03-1.34-.17-1.97-.41-1.13-.43-2.12-1.13-3.01-2.13-.44-.5-.79-1.1-1.07-1.81-.35-.92-.49-1.92-.42-3,.02-.23.04-.46.06-.69.03-.3.06-.62.07-.92.03-.66-.04-1.14-.24-1.55-.04-.08-.09-.16-.18-.25-.11-.12-.13-.29-.06-.43.06-.13.2-.21.34-.21.01,0,.02,0,.04,0,.19.02.32.08.41.13l.04.02c.83.4,1.49.85,2.02,1.39.56.57.93,1.17,1.13,1.86.16.53.26,1.05.36,1.56.1.49.21,1.01.37,1.51.19.57.39,1.02.62,1.4.44.72,1.07,1.22,1.85,1.5.38.13.79.21,1.24.23.16,0,.33.01.49.01.38,0,.71-.02,1.03-.07l.2-.03c.3-.05.59-.09.86-.17.06-.02.12-.03.17-.03.06,0,.13,0,.19.03.14.04.24.15.27.29s-.02.28-.13.37c-.18.15-.35.24-.51.33l-.07.04c-.54.3-1.04.51-1.52.67-.55.17-1.06.28-1.55.34-.29.03-.55.05-.8.05Z" fill="#fff" fill-rule="evenodd" stroke-width="0"/>
            <path d="m15.73,16.03c-.17.14-.35.23-.52.33-.47.26-.95.48-1.46.64-.48.15-.97.27-1.48.32-.33.04-.67.05-1,.04-.64-.03-1.25-.16-1.85-.38-1.13-.43-2.06-1.13-2.86-2.03-.44-.5-.76-1.07-1-1.7-.35-.92-.46-1.87-.39-2.84.04-.54.11-1.08.13-1.62.03-.59-.02-1.18-.27-1.73-.06-.12-.13-.23-.24-.35.14.01.23.07.33.12.71.34,1.36.75,1.91,1.31.47.48.84,1.04,1.04,1.7.15.5.25,1.01.35,1.52.1.52.22,1.05.39,1.56.17.52.37,1.02.66,1.48.49.79,1.17,1.35,2.05,1.66.43.15.89.23,1.35.25.53.03,1.07.02,1.6-.07.37-.06.75-.1,1.12-.21.04-.01.08-.01.15,0Z" fill="#fff" fill-rule="evenodd" stroke-width="0"/>
            <path d="m13.7,16.6c-.84,0-1.65-.2-2.35-.57-.25-.13-.37-.41-.3-.69.07-.27.31-.45.58-.45.05,0,.15,0,.21,0,1.6,0,2.92-.56,3.92-1.68,1.06-1.17,1.47-2.59,1.22-4.24-.04-.28.11-.55.37-.65.07-.03.15-.04.22-.04.2,0,.38.1.49.26.42.59.68,1.28.79,2.05.21,1.46-.13,2.78-.99,3.92-1,1.33-2.53,2.09-4.18,2.09Z" fill="#fff" fill-rule="evenodd" stroke-width="0"/>
            <path d="m13.7,16.22c-.78,0-1.53-.18-2.17-.52-.09-.05-.14-.15-.11-.25.03-.1.11-.16.21-.16,0,0,.14,0,.21,0,1.71,0,3.12-.61,4.21-1.8,1.14-1.26,1.58-2.79,1.32-4.55-.01-.1.04-.2.14-.24.03-.01.05-.02.08-.02.07,0,.14.03.18.09.38.54.62,1.18.72,1.88.19,1.35-.12,2.57-.92,3.63-.93,1.23-2.34,1.94-3.88,1.94Z" fill="#fff" fill-rule="evenodd" stroke-width="0"/>
            <path d="m13.7,16.38c-.81,0-1.58-.19-2.24-.54-.16-.08-.23-.26-.19-.44.04-.17.2-.28.37-.28,0,0,0,0,.01,0,.07,0,.13,0,.2,0,1.68,0,3.02-.57,4.09-1.75,1.11-1.22,1.54-2.71,1.28-4.42-.03-.18.07-.35.24-.41.05-.02.09-.03.14-.03.12,0,.24.06.31.16.4.57.65,1.22.75,1.95.2,1.4-.12,2.66-.95,3.75-.96,1.27-2.42,2-4,2Z" fill="#fff" fill-rule="evenodd" stroke-width="0"/>
            <path d="m17.59,8.89c.38.54.6,1.14.69,1.79.18,1.27-.1,2.44-.88,3.47-1.54,2.03-4.11,2.23-5.76,1.35,1.82.05,3.37-.54,4.58-1.87,1.22-1.34,1.64-2.94,1.37-4.73Z" fill="#fff" fill-rule="evenodd" stroke-width="0"/>
          </g>
          <g>
            <path d="m11.83,15.54c-3.07,0-5.56-2.49-5.56-5.56s2.49-5.56,5.56-5.56,5.56,2.49,5.56,5.56-2.49,5.56-5.56,5.56Z" fill="#fff" fill-rule="evenodd" stroke-width="0"/>
            <path d="m17.01,9.98c0,2.86-2.32,5.18-5.18,5.18s-5.18-2.32-5.18-5.18,2.32-5.18,5.18-5.18,5.18,2.32,5.18,5.18Z" fill="#fff" fill-rule="evenodd" stroke-width="0"/>
            <path d="m12,15.6c-.31,0-.63-.03-.94-.08-.09-.02-.17-.04-.26-.05-.09-.02-.17-.04-.26-.05-.35-.05-.52-.3-.62-.45-.01-.02-.03-.04-.04-.06-.53-.72-.81-1.52-1.01-2.21-.12-.4-.22-.84-.32-1.36-.01-.07-.06-.28.09-.45.09-.12.24-.17.42-.17.29,0,.56,0,.84,0s.56,0,.85,0h0c.17,0,.3.05.4.14.14.14.14.33.14.4,0,.41,0,.81,0,1.22,0,.33,0,.65,0,.98.27,0,.55,0,.82,0s.52,0,.78,0c0-.29,0-.57,0-.86,0-.44,0-.89,0-1.33,0-.07,0-.26.15-.41.15-.15.34-.15.4-.15.31,0,.62,0,.92,0h.63c.22,0,.45,0,.67,0,0-.58,0-1.11,0-1.62-.36,0-.71,0-1.07,0-.39,0-.78,0-1.18,0h0c-.07,0-.24,0-.38-.14-.14-.14-.14-.32-.14-.38,0-.41,0-.82,0-1.23,0-.34,0-.67,0-1.01-.28,0-.55,0-.82,0-.26,0-.51,0-.77,0,0,.32,0,.63,0,.94,0,.43,0,.86,0,1.29,0,.07,0,.25-.14.4-.14.14-.32.14-.38.14,0,0-.02,0-.02,0-.19,0-.37,0-.56,0h-.73s-1.33,0-1.33,0c-.09,0-.32,0-.47-.23-.19-.27-.41-.51-.67-.73-.1-.08-.3-.3-.14-.65.34-.71.8-1.34,1.39-1.85.84-.73,1.81-1.19,2.9-1.35.29-.04.58-.06.86-.06.59,0,1.17.09,1.75.28.9.29,1.69.79,2.36,1.48.74.76,1.23,1.68,1.45,2.73.13.59.16,1.21.09,1.83-.09.76-.31,1.48-.67,2.13-.46.82-1.1,1.5-1.89,2.02-.6.39-1.26.66-1.96.8-.37.07-.75.11-1.12.11Z" fill="#fff" fill-rule="evenodd" stroke-width="0"/>
            <path d="m9.44,8.7c-.44,0-.88,0-1.33,0-.06,0-.11,0-.15-.06-.21-.3-.46-.57-.74-.8-.07-.06-.07-.11-.03-.19.31-.67.75-1.25,1.3-1.73.78-.68,1.68-1.1,2.7-1.26.82-.12,1.64-.06,2.43.2.85.27,1.58.73,2.2,1.38.7.72,1.14,1.58,1.36,2.55.12.56.15,1.13.08,1.71-.08.7-.28,1.37-.63,1.98-.43.77-1.02,1.4-1.76,1.88-.56.37-1.17.62-1.82.75-.63.13-1.27.14-1.91.03-.18-.03-.35-.08-.53-.11-.22-.03-.31-.21-.42-.36-.47-.63-.73-1.35-.95-2.09-.13-.44-.23-.88-.31-1.32-.03-.13,0-.17.14-.17.56,0,1.12,0,1.68,0,.13,0,.15.04.15.16,0,.82,0,1.63,0,2.45,0,.11.03.15.14.14.69,0,1.39,0,2.08,0,.12,0,.14-.04.14-.15,0-.81,0-1.62,0-2.43,0-.13.03-.17.17-.17.82,0,1.64,0,2.46,0,.12,0,.14-.03.14-.14,0-.7,0-1.39,0-2.09,0-.12-.03-.16-.15-.16-.83,0-1.65,0-2.48,0-.11,0-.14-.03-.13-.14,0-.83,0-1.66,0-2.49,0-.11-.02-.14-.14-.14-.7,0-1.39,0-2.09,0-.11,0-.14.03-.14.14,0,.82,0,1.65,0,2.47,0,.12-.03.16-.15.15-.43,0-.86,0-1.3,0Z" fill="#fff" fill-rule="evenodd" stroke-width="0"/>
            <path d="m11.52,17.74c-.09,0-.17,0-.26,0-.68-.03-1.34-.17-1.97-.41-1.14-.43-2.12-1.13-3.01-2.13-.44-.5-.79-1.1-1.07-1.81-.35-.92-.49-1.93-.42-3,.02-.23.04-.46.06-.69.03-.3.06-.62.07-.93.03-.66-.04-1.14-.24-1.55-.04-.08-.09-.16-.18-.25-.11-.12-.13-.29-.06-.43.07-.13.2-.21.34-.21.01,0,.02,0,.04,0,.18.02.31.08.41.13l.04.02c.83.4,1.49.85,2.02,1.39.56.57.93,1.17,1.13,1.86.16.53.26,1.05.36,1.56.1.48.21,1,.37,1.51.19.57.39,1.02.62,1.4.44.72,1.07,1.22,1.85,1.5.38.13.79.21,1.24.23.16,0,.33.01.49.01.38,0,.71-.02,1.03-.07l.2-.03c.3-.05.59-.09.86-.17.06-.02.12-.03.18-.03.06,0,.13,0,.19.03.13.04.24.15.27.29.03.14-.02.28-.13.37-.18.15-.35.24-.51.33l-.07.04c-.54.3-1.04.51-1.52.67-.55.17-1.06.28-1.55.34-.29.03-.55.05-.8.05Z" fill="#fff" fill-rule="evenodd" stroke-width="0"/>
            <path d="m15.73,16.03c-.17.14-.35.23-.52.33-.47.26-.95.48-1.46.64-.48.15-.97.27-1.48.32-.33.04-.67.05-1,.04-.64-.03-1.25-.16-1.85-.38-1.13-.43-2.06-1.13-2.86-2.03-.44-.5-.76-1.07-1-1.7-.35-.92-.46-1.87-.39-2.84.04-.54.11-1.08.13-1.62.03-.59-.02-1.18-.27-1.73-.06-.12-.13-.23-.24-.35.14.01.23.07.33.12.7.34,1.36.75,1.91,1.31.48.48.84,1.04,1.04,1.7.15.5.25,1.01.35,1.52.1.52.22,1.05.39,1.56.17.52.37,1.02.66,1.48.49.79,1.17,1.35,2.05,1.66.43.15.89.23,1.35.25.53.03,1.07.02,1.6-.07.38-.06.75-.1,1.12-.21.04-.01.08-.01.15,0Z" fill="#fff" fill-rule="evenodd" stroke-width="0"/>
            <path d="m13.7,16.38c-.81,0-1.58-.19-2.24-.54-.16-.08-.23-.26-.19-.44.04-.17.2-.28.37-.28,0,0,0,0,.01,0,.07,0,.13,0,.2,0,1.68,0,3.02-.57,4.09-1.75,1.11-1.22,1.54-2.71,1.28-4.42-.03-.18.07-.35.24-.41.05-.02.09-.03.14-.03.12,0,.24.06.31.16.4.57.65,1.22.75,1.95.2,1.4-.12,2.66-.95,3.75-.96,1.27-2.42,2-4,2Z" fill="#fff" fill-rule="evenodd" stroke-width="0"/>
            <path d="m17.59,8.89c.38.54.6,1.14.69,1.79.18,1.27-.1,2.44-.88,3.47-1.54,2.03-4.11,2.23-5.76,1.35,1.82.05,3.37-.54,4.58-1.87,1.22-1.34,1.64-2.94,1.37-4.73Z" fill="#fff" fill-rule="evenodd" stroke-width="0"/>
          </g>
        </g>
      </g>
      <g>
        <g>
          <path d="m19.72,11.41c-.21,0-.38-.17-.38-.38v-1.76s0-.02-.02-.02c-.02-.02-.04-.05-.06-.08-.03-.04-.07-.09-.1-.14-.03-.05-.07-.11-.09-.17-.04-.08-.05-.17-.05-.26,0-.08,0-.17.03-.25.02-.1.06-.2.12-.29.06-.1.15-.18.26-.25.12-.07.26-.11.42-.11h.68c.21,0,.38.17.38.38v.25c0,.21-.17.38-.38.38h-.34s.06.08.09.13c0,.01.02.03.02.04.01.03.03.07.04.11.01.04.02.08.03.12,0,.05.01.1.01.16v1.76c0,.21-.17.38-.38.38h-.26Z" fill="#fff" stroke-width="0"/>
          <path d="m19.72,11.03v-1.8s0-.07-.02-.1c-.02-.03-.04-.07-.06-.1-.02-.03-.05-.07-.08-.1-.03-.03-.05-.07-.08-.11-.02-.04-.04-.07-.06-.11-.02-.04-.02-.08-.02-.12,0-.05,0-.11.02-.17.01-.06.04-.12.07-.17.03-.05.08-.1.13-.13.06-.03.13-.05.21-.05h.68v.25h-.61s-.08.01-.12.03c-.01,0-.03.02-.04.03-.01.01-.03.03-.04.05-.01.02-.02.04-.03.07,0,.03,0,.06,0,.09,0,.04,0,.08.02.11.01.03.03.05.06.08.02.03.05.06.09.1.03.04.07.09.11.16,0,.02.01.04.02.06,0,.02,0,.04.01.07,0,.03,0,.06,0,.1v1.76h-.26Z" fill="#fff" stroke-width="0"/>
          <path d="m20.82,11.44c-.16,0-.3-.02-.43-.06-.11-.04-.21-.08-.29-.13-.1-.06-.19-.13-.26-.21-.13-.15-.12-.38.02-.52,0,0,.18-.18.19-.18-.01-.02-.03-.03-.04-.05-.05-.07-.09-.15-.11-.23-.03-.08-.04-.18-.04-.28,0-.16.03-.3.09-.42.06-.12.14-.22.24-.29.1-.07.2-.12.32-.16.1-.03.21-.04.31-.04s.21.01.3.04c.08.02.14.04.2.07.08.03.15.07.21.12l.13.09c.17.12.22.35.1.53l-.15.22s-.01.02-.02.03c.06.07.12.15.16.24.05.11.07.22.07.33,0,.15-.03.29-.09.41-.06.12-.14.22-.25.3-.1.07-.21.13-.33.16-.11.03-.22.05-.34.05Z" fill="#fff" stroke-width="0"/>
          <path d="m21.3,9.71l-.11-.07s-.06-.03-.09-.05c-.03-.02-.07-.03-.1-.04-.03-.01-.07-.02-.1-.03-.03,0-.06,0-.08,0-.04,0-.08,0-.12.01-.04,0-.07.02-.1.04-.03.02-.05.05-.07.08-.02.03-.03.08-.03.13s.01.1.04.13c.03.03.07.05.11.07.05.02.1.03.16.04.06,0,.12.02.18.03.06,0,.11.03.17.06.05.03.1.07.14.11.04.04.07.09.1.15.02.06.04.11.04.18,0,.09-.02.17-.05.24-.03.07-.08.12-.13.17-.06.04-.12.08-.2.1-.08.02-.16.03-.24.03-.12,0-.22-.01-.31-.04-.09-.03-.16-.06-.21-.09-.06-.04-.12-.08-.16-.13l.18-.17s.05.04.08.06c.04.02.08.04.12.06.04.02.09.03.14.04.05.01.1.02.16.02s.1,0,.15-.02c.04-.01.08-.03.11-.06.03-.03.06-.06.07-.09.02-.03.02-.07.02-.11s0-.08-.02-.11c-.01-.03-.03-.05-.05-.06-.02-.02-.04-.03-.06-.03-.02,0-.04-.01-.05-.01,0,0-.02,0-.05,0-.03,0-.07-.01-.11-.02-.04,0-.08-.01-.12-.02-.04,0-.07-.01-.09-.02-.01,0-.03,0-.06-.01-.02,0-.05-.02-.08-.03-.03-.01-.06-.03-.09-.05-.03-.02-.06-.05-.08-.09-.02-.03-.04-.08-.06-.12-.02-.05-.02-.1-.02-.17,0-.1.02-.18.05-.24.03-.07.08-.12.13-.16.06-.04.12-.07.19-.09.07-.02.14-.03.21-.03s.14,0,.2.02c.06.02.11.03.16.05.05.02.1.05.14.08l.14.09-.15.22Z" fill="#fff" stroke-width="0"/>
          <path d="m21.98,11.44c-.12,0-.23-.02-.33-.05-.08-.03-.15-.06-.21-.1-.08-.05-.14-.11-.19-.17-.13-.15-.11-.38.03-.52l.18-.17c.07-.07.17-.11.27-.11h0s.05,0,.08,0v-.45c-.15-.05-.25-.19-.25-.36v-.25c0-.21.17-.38.38-.38h.52c.21,0,.38.17.38.38v1.28c0,.13-.02.24-.05.35-.04.1-.09.19-.15.26-.06.07-.13.13-.22.18-.06.03-.12.06-.19.08-.07.02-.12.03-.17.03-.04,0-.07,0-.08,0Z" fill="#fff" stroke-width="0"/>
          <path d="m21.94,9.25h.52v1.28c0,.08-.01.16-.03.22-.02.06-.05.11-.08.15-.03.04-.07.07-.11.09-.04.02-.08.04-.11.05-.04,0-.07.02-.09.02-.03,0-.04,0-.05,0-.08,0-.14,0-.2-.03-.05-.02-.1-.04-.14-.07-.04-.03-.08-.06-.11-.1l.18-.17s.01.01.03.03c.01.01.03.03.05.04.02.01.05.03.08.04.03.01.07.02.11.02.03,0,.05,0,.07-.01.02,0,.04-.02.05-.03.02-.01.03-.03.04-.04,0-.02.02-.03.02-.05.02-.04.03-.09.03-.14v-1.03h-.25v-.25Z" fill="#fff" stroke-width="0"/>
          <path d="m23.9,11.44c-.08,0-.16-.01-.24-.03-.03,0-.05-.02-.08-.03-.03.01-.06.02-.09.03-.06.02-.14.03-.23.03-.1,0-.19-.01-.27-.04-.07-.02-.15-.05-.21-.09-.06-.04-.12-.09-.17-.14-.04-.05-.08-.1-.11-.15-.06-.11-.1-.24-.12-.37,0-.01,0-.03,0-.04v-1.34c0-.21.17-.38.38-.38h.26c.08,0,.16.03.22.07.06-.04.14-.07.22-.07h.23c.08,0,.16.03.22.07.06-.04.14-.07.22-.07h.26c.21,0,.38.17.38.38v1.34s0,.03,0,.04c-.01.14-.05.27-.12.38-.03.05-.07.1-.11.15-.05.05-.11.1-.17.14-.06.04-.14.07-.22.09-.07.02-.16.03-.26.03Z" fill="#fff" stroke-width="0"/>
          <path d="m24.4,9.25v1.34c0,.08-.03.16-.07.23-.02.03-.04.06-.06.08-.02.03-.05.05-.09.07-.03.02-.08.04-.12.05-.05.01-.1.02-.16.02-.04,0-.09,0-.12-.02-.04-.01-.07-.03-.1-.05-.03-.02-.05-.05-.07-.09-.02-.03-.03-.07-.03-.12,0,.05,0,.09-.03.12-.02.03-.04.06-.07.09-.03.02-.06.04-.1.05-.04.01-.08.02-.12.02-.06,0-.11,0-.16-.02-.05-.01-.09-.03-.12-.05-.03-.02-.06-.05-.09-.07-.02-.03-.04-.05-.06-.08-.04-.07-.06-.14-.07-.23v-1.34h.26v1.24c0,.08,0,.14.03.18.02.04.04.07.07.09.03.02.05.03.08.03.03,0,.04,0,.06,0h.01s.08-.01.11-.04c.03-.02.05-.05.06-.08.01-.03.02-.06.03-.1,0-.03,0-.06,0-.07v-1.26h.23v1.26s0,.04,0,.07c0,.03.01.06.03.1.01.03.03.06.06.08.03.02.06.04.11.04h.01s.03,0,.05,0c.02,0,.05-.02.07-.03.02-.02.04-.05.06-.09.02-.04.03-.1.03-.18v-1.24h.26Z" fill="#fff" stroke-width="0"/>
          <path d="m25.2,11.41c-.13,0-.23-.01-.33-.04-.1-.03-.19-.07-.26-.12-.08-.06-.15-.12-.2-.2-.04-.06-.08-.13-.1-.19-.02-.06-.04-.12-.04-.18,0-.06,0-.09,0-.13,0-.13.03-.25.08-.36,0,0,0,0,0-.01-.01-.03-.03-.05-.04-.08-.04-.1-.06-.2-.07-.31,0,0,0-.02,0-.03,0-.1,0-.18.03-.26.02-.08.05-.16.09-.22.04-.06.08-.12.13-.17.05-.05.1-.09.16-.12.12-.07.25-.11.39-.11,0,0,.37,0,.37,0,.07,0,.14.02.19.05.06-.03.12-.05.19-.05h.26c.21,0,.38.17.38.38v1.28c0,.12-.02.24-.06.34-.04.1-.09.18-.16.25-.07.07-.14.12-.22.17-.07.03-.13.06-.19.08-.05.02-.11.03-.17.04-.05,0-.09,0-.11,0h-.33Z" fill="#fff" stroke-width="0"/>
          <path d="m26.06,9.25v1.28c0,.07-.01.14-.03.19-.02.05-.05.1-.08.14-.03.04-.07.07-.11.09-.04.02-.08.04-.12.05-.04.01-.07.02-.1.02-.03,0-.05,0-.07,0h-.33c-.09,0-.16,0-.22-.03-.06-.02-.11-.04-.16-.07-.04-.03-.08-.06-.1-.1-.02-.04-.04-.07-.06-.11-.01-.04-.02-.07-.03-.1,0-.03,0-.06,0-.07,0-.07.01-.13.04-.18.03-.05.05-.09.09-.12.03-.03.06-.05.09-.07.03-.01.05-.02.05-.02-.04,0-.07-.02-.09-.03-.03-.02-.05-.03-.07-.05-.02-.02-.04-.04-.05-.07-.01-.02-.03-.05-.04-.07-.02-.05-.04-.11-.04-.18,0-.06,0-.12.02-.17.01-.05.03-.09.05-.13.02-.04.04-.07.07-.09.03-.02.05-.05.08-.06.06-.04.14-.06.22-.06h.35v.25h-.21s-.07,0-.1.01c-.03,0-.06.02-.08.03-.02.01-.04.03-.05.04-.01.02-.03.03-.04.05-.02.04-.03.08-.04.13,0,.04,0,.08.02.11.01.03.03.06.05.08.02.02.05.04.07.05.03.01.05.02.07.02.02,0,.04,0,.06,0,.02,0,.03,0,.03,0h.21v.25h-.21s-.09,0-.12.02c-.03,0-.06.02-.08.04-.02.02-.04.03-.05.05-.01.02-.02.04-.03.05,0,.02,0,.03,0,.05,0,.01,0,.02,0,.03,0,.04,0,.08.02.11.01.03.03.05.05.07.02.02.04.03.06.04.02.01.04.02.07.02.02,0,.04,0,.06,0,.02,0,.03,0,.04,0h.33c.06,0,.11-.01.15-.04.04-.03.06-.05.08-.09.02-.04.03-.08.04-.13v-1.28h.26Z" fill="#fff" stroke-width="0"/>
          <path d="m26.88,11.41c-.21,0-.38-.17-.38-.38v-1.03s-.05,0-.08,0h0c-.1,0-.2-.04-.27-.12l-.18-.19c-.13-.14-.14-.36-.02-.51.05-.06.12-.12.19-.17.06-.04.13-.08.22-.11.1-.04.21-.05.33-.05,0,0,.03,0,.07,0,.05,0,.1.01.16.03.06.02.13.04.2.08.08.04.15.1.22.18.06.07.11.16.15.26.04.11.06.22.06.35v1.26c0,.21-.17.38-.38.38h-.26Z" fill="#fff" stroke-width="0"/>
          <path d="m26.67,9.24s.02,0,.05,0c.03,0,.06,0,.09.02.04,0,.07.02.11.05.04.02.07.05.11.09.03.04.06.09.08.15.02.06.03.13.03.22v1.26h-.26v-1.26s-.01-.09-.03-.13c0-.02-.02-.03-.02-.05-.01-.02-.02-.03-.04-.04-.01-.01-.03-.02-.05-.03-.02,0-.04-.01-.07-.01-.04,0-.08,0-.11.02-.03.01-.06.02-.07.04-.02.01-.04.03-.05.04-.01.01-.02.02-.03.03l-.18-.19s.06-.07.11-.1c.04-.02.08-.05.14-.07.05-.02.12-.03.2-.03Z" fill="#fff" stroke-width="0"/>
          <path d="m28.18,11.44c-.12,0-.23-.01-.33-.04-.1-.03-.18-.06-.26-.11-.08-.05-.15-.11-.21-.17-.06-.06-.1-.13-.13-.19-.08-.14-.13-.3-.14-.47,0-.01,0-.02,0-.03v-1.16c0-.21.17-.38.38-.38h.26c.21,0,.38.17.38.38v1.16s.03,0,.05.01c.02,0,.03,0,.04,0v-1.16c0-.21.17-.38.38-.38h.26c.21,0,.38.17.38.38v1.16s0,.02,0,.04c-.02.17-.07.33-.15.47-.03.06-.08.12-.13.18-.06.07-.13.12-.21.17-.08.05-.17.09-.27.12-.09.03-.2.04-.32.04Z" fill="#fff" stroke-width="0"/>
          <path d="m28.88,9.25v1.16c-.01.12-.04.23-.1.32-.02.04-.05.08-.08.12-.03.04-.08.07-.12.1-.05.03-.1.05-.17.07-.06.02-.14.03-.22.03s-.16,0-.22-.03c-.06-.02-.12-.04-.17-.07-.05-.03-.09-.06-.12-.1-.03-.04-.06-.08-.08-.12-.05-.09-.08-.2-.09-.32v-1.16h.26v1.16s0,.09.02.13c.01.04.03.07.05.1.02.03.04.05.07.07.03.02.05.03.08.05.06.03.13.04.22.05.08,0,.15-.02.21-.05.03-.01.05-.03.08-.05.03-.02.05-.04.07-.07.02-.03.04-.06.05-.1.01-.04.02-.08.02-.13v-1.16h.26Z" fill="#fff" stroke-width="0"/>
          <path d="m29.69,11.41c-.21,0-.38-.17-.38-.38v-1.03s-.05,0-.08,0h0c-.1,0-.21-.04-.28-.12l-.18-.19c-.13-.14-.14-.36-.02-.51.05-.07.12-.12.19-.17.06-.04.13-.08.22-.11.1-.04.21-.05.33-.05,0,0,.03,0,.07,0,.05,0,.1.01.16.03.07.02.13.04.2.08.08.04.15.1.22.18.06.07.11.15.15.26.04.11.06.22.06.35v1.26c0,.21-.17.38-.38.38h-.26Z" fill="#fff" stroke-width="0"/>
          <path d="m29.48,9.24s.02,0,.05,0c.03,0,.06,0,.09.02.04,0,.07.02.11.05.04.02.07.05.11.09.03.04.06.09.08.15.02.06.03.13.03.22v1.26h-.26v-1.26s-.01-.09-.03-.13c0-.02-.01-.03-.02-.05-.01-.02-.02-.03-.04-.04-.01-.01-.03-.02-.05-.03-.02,0-.04-.01-.07-.01-.04,0-.08,0-.11.02-.03.01-.06.02-.08.04-.02.01-.04.03-.05.04-.01.01-.02.02-.03.03l-.18-.19s.06-.07.11-.1c.04-.02.08-.05.14-.07.05-.02.12-.03.2-.03Z" fill="#fff" stroke-width="0"/>
          <path d="m31.36,11.41c-.07,0-.14-.02-.19-.05-.06.03-.12.05-.19.05h-.3c-.12,0-.24-.03-.34-.08-.1-.05-.19-.12-.26-.2-.07-.08-.13-.17-.17-.27-.04-.1-.06-.22-.06-.33s.03-.24.08-.35c0-.02.02-.04.03-.06-.07-.08-.11-.18-.1-.28,0-.15.04-.28.09-.39.05-.11.11-.2.19-.28.07-.07.15-.13.24-.18.07-.04.15-.07.22-.09.08-.02.14-.03.2-.04.05,0,.09,0,.12,0,.18,0,.31.02.44.07.12.04.22.11.31.18.09.08.15.16.2.25.04.08.07.15.1.23.02.08.04.15.04.22,0,.05,0,.09,0,.12v1.1c0,.21-.17.38-.38.38h-.26Z" fill="#fff" stroke-width="0"/>
          <path d="m31.21,9.29c.08.03.14.07.19.11.05.04.09.09.12.15.03.05.05.11.07.16.01.05.02.1.03.14,0,.04,0,.07,0,.09v1.1h-.26v-.52c0-.05-.01-.09-.04-.13-.02-.03-.05-.06-.09-.09-.03-.02-.07-.04-.11-.05-.04-.01-.08-.02-.11-.03-.03,0-.07,0-.12-.01,0,0-.01,0-.03,0-.02,0-.04,0-.07.01-.03,0-.06.02-.09.03-.03.01-.06.03-.09.05-.03.02-.05.05-.08.08-.02.03-.04.07-.05.12,0,.02,0,.03,0,.04,0,.04,0,.07.03.1.02.03.04.05.07.07.03.02.06.03.1.04.04.01.07.02.11.02.03,0,.07,0,.09.01.03,0,.05,0,.07,0h.02v.25h-.3c-.06,0-.12-.01-.17-.04-.05-.03-.1-.06-.14-.11-.04-.05-.07-.1-.1-.16-.02-.06-.04-.12-.04-.19s.01-.13.04-.2c.03-.07.08-.13.15-.2.04-.04.08-.07.13-.1.04-.03.09-.05.13-.06.04-.02.08-.03.13-.03.04,0,.08,0,.12,0,.06,0,.12,0,.17.02.05.01.1.02.14.04.04.02.09.03.13.05v-.1c0-.05,0-.1-.02-.15-.01-.04-.03-.08-.05-.11-.02-.03-.04-.06-.07-.08-.03-.02-.05-.04-.08-.05-.06-.03-.13-.05-.22-.05-.07,0-.13.01-.18.04-.05.03-.09.06-.12.09-.03.04-.06.08-.07.12-.02.04-.03.08-.04.11h-.28c0-.1.03-.18.06-.25.03-.07.07-.13.11-.17.04-.05.09-.08.14-.11.05-.03.1-.05.15-.06.05-.01.09-.02.13-.02.04,0,.07,0,.08,0h.02c.11,0,.2.01.28.04Z" fill="#fff" stroke-width="0"/>
        </g>
        <g>
          <path d="m20.65,14.68s-.02,0-.03,0c-.14-.01-.27-.04-.39-.08,0,0,0,0,0,0-.05.03-.12.04-.18.04h-.38c-.21,0-.38-.17-.38-.38v-2.57c0-.21.17-.38.38-.38h.38c.21,0,.38.17.38.38v1.63s0,.04.01.06c0,.01.01.04.03.09,0,.01.02.03.03.04,0,0,.02.02.05.03,0,0,.03.01.1.01h.04s.03,0,.05-.01c.01,0,.04-.01.07-.03,0,0,.01,0,.03-.02,0,0,.02-.02.03-.06,0-.02.02-.06.02-.14v-1.6c0-.21.17-.38.38-.38h.38c.21,0,.38.17.38.38v1.63s0,.09,0,.16c0,.08-.02.17-.05.27-.03.1-.07.2-.11.29-.06.12-.14.23-.24.32-.1.09-.22.17-.37.23-.15.06-.31.09-.51.09h-.09Z" fill="#fff" stroke-width="0"/>
          <path d="m21.66,11.69v1.63s0,.07,0,.13c0,.06-.02.12-.04.2-.02.07-.05.15-.09.22-.04.08-.09.15-.16.21-.07.06-.15.11-.25.15-.1.04-.22.06-.37.06h-.09c-.11,0-.21-.03-.29-.06-.04-.01-.07-.03-.11-.05-.04-.02-.07-.04-.1-.07-.03-.03-.05-.06-.07-.09-.02-.04-.03-.08-.03-.13v.36h-.38v-2.57h.38v1.6s0,.03,0,.06c0,.04,0,.08.02.12.01.05.03.1.06.15.03.05.06.1.1.15.04.04.1.08.17.11.07.03.15.05.25.05,0,0,.03,0,.07,0,.03,0,.07,0,.12-.02.05-.01.1-.03.15-.06.05-.03.1-.06.14-.11.04-.05.08-.11.11-.18.03-.07.04-.17.04-.27v-1.6h.38Z" fill="#fff" stroke-width="0"/>
          <path d="m21.18,15.83c-.21,0-.38-.17-.38-.38v-.25c-.11-.07-.18-.19-.18-.33v-.36c0-.21.17-.38.38-.38h.35c.15,0,.29.06.4.16.11.11.17.25.17.4v.75c0,.21-.17.38-.38.38h-.36Z" fill="#fff" stroke-width="0"/>
          <path d="m21.18,14.87h-.18v-.36h.35c.05,0,.1.02.13.06.04.03.05.08.05.13v.75h-.36v-.58Z" fill="#fff" stroke-width="0"/>
          <path d="m23.76,14.64c-.21,0-.38-.17-.38-.38v-1.59c0-.07-.01-.11-.01-.11-.01-.03-.03-.05-.03-.05-.01-.01-.02-.02-.02-.02-.03-.01-.06-.02-.08-.03-.03,0-.04,0-.04,0h-.05c-.05,0-.08,0-.1,0-.03,0-.04.02-.05.02-.01,0-.02.02-.02.02-.01.02-.02.03-.03.04-.02.04-.03.09-.04.15v1.58c0,.21-.17.38-.38.38h-.38c-.21,0-.38-.17-.38-.38v-1.97c0-.06.02-.13.05-.18.07-.13.14-.24.23-.33.08-.09.17-.16.26-.23.09-.06.18-.11.27-.15.08-.03.15-.06.23-.08.08-.02.15-.03.21-.04.05,0,.1,0,.12,0h.02c.17,0,.31.03.44.06.13.04.24.09.34.15.11.07.2.14.27.22.07.08.12.16.17.24.04.08.08.16.1.25.02.07.04.14.05.19.01.07.02.13.02.18,0,.04,0,.07,0,.08v1.59c0,.21-.17.38-.38.38h-.38Z" fill="#fff" stroke-width="0"/>
          <path d="m22.13,14.26v-1.97c.05-.1.11-.18.17-.25.06-.07.13-.13.19-.17.07-.05.13-.08.2-.11.06-.03.12-.05.18-.06.06-.01.1-.02.14-.03.04,0,.07,0,.09,0h.02c.12,0,.23.02.33.05.09.03.18.07.25.11.07.04.13.09.18.15.05.06.09.11.12.17.03.06.06.12.07.18.02.06.03.11.04.16,0,.05.01.09.02.12,0,.03,0,.05,0,.06v1.59h-.38v-1.59c0-.1-.01-.19-.04-.26-.03-.07-.06-.13-.11-.17-.04-.05-.09-.08-.14-.1-.05-.02-.1-.04-.15-.05-.05-.01-.09-.02-.12-.02-.04,0-.06,0-.07,0-.08,0-.15,0-.21.03-.06.02-.11.04-.15.07-.04.03-.08.06-.11.1-.03.04-.05.07-.07.11-.04.09-.07.19-.08.3v1.59h-.38Z" fill="#fff" stroke-width="0"/>
          <path d="m25.29,14.68s-.07,0-.11,0c-.04,0-.09-.01-.14-.02-.13-.03-.26-.09-.37-.17-.11-.08-.2-.17-.27-.28-.07-.1-.13-.22-.16-.34-.03-.12-.05-.24-.05-.37v-.84s0-.02,0-.04c.02-.19.06-.36.12-.51.07-.15.15-.27.24-.37.09-.1.2-.18.31-.25.1-.05.2-.1.3-.13.09-.03.17-.04.25-.05.08,0,.13-.01.16-.01h.06s.09,0,.16.01c.08,0,.17.03.26.05.1.03.2.07.3.13.11.06.21.14.31.24.09.1.17.23.24.37.07.15.11.32.13.51,0,.01,0,.03,0,.04v1.62c0,.21-.17.38-.38.38h-.38c-.14,0-.26-.08-.33-.19-.03.03-.07.05-.1.07-.06.04-.13.07-.22.1-.1.04-.21.05-.32.05Zm.23-1.22c.1,0,.2.04.27.11l.1.1v-1.01s-.02-.08-.03-.12c0-.01-.02-.03-.03-.04,0,0-.01-.01-.03-.02-.02-.01-.04-.02-.07-.03-.02,0-.05-.01-.11-.01-.06,0-.1,0-.11.01-.03,0-.05.02-.06.02-.01,0-.03.02-.04.03,0,.01-.02.02-.03.04-.02.03-.03.07-.04.12v.8s0,.03,0,.04c.05-.03.11-.04.17-.04Z" fill="#fff" stroke-width="0"/>
          <path d="m26.27,14.26v-1.62c0-.11-.04-.21-.09-.29-.02-.04-.05-.07-.08-.11-.03-.04-.07-.07-.12-.09-.05-.03-.1-.05-.16-.07-.06-.02-.13-.02-.21-.02s-.15,0-.21.02c-.06.02-.12.04-.16.07-.05.03-.08.06-.12.09-.03.04-.06.07-.08.11-.05.09-.08.18-.09.29v.84c0,.05.02.11.04.16.01.04.03.09.06.13.03.04.06.08.1.11.05.04.1.06.16.06.05,0,.09-.01.12-.03.04-.02.07-.04.09-.06l.25.25s-.08.07-.13.1c-.04.03-.09.05-.15.07-.06.02-.12.03-.2.03-.02,0-.05,0-.07,0-.03,0-.05,0-.08-.01-.09-.02-.18-.06-.25-.11-.07-.05-.13-.11-.18-.18-.05-.07-.09-.15-.11-.23-.02-.08-.04-.17-.04-.26v-.84c.01-.15.05-.28.09-.39.05-.11.11-.2.17-.27.07-.07.14-.13.21-.17.07-.04.15-.07.22-.09.07-.02.13-.03.19-.04.06,0,.1,0,.12,0h.06s.07,0,.12,0c.06,0,.12.02.19.04.07.02.14.05.22.09.08.04.15.1.21.17.07.07.12.16.17.27.05.11.08.24.1.39v1.62h-.38Z" fill="#fff" stroke-width="0"/>
          <path d="m27.82,14.64c-.21,0-.38-.17-.38-.38v-1.79s-.02.02-.02.03c-.07.07-.17.11-.27.11,0,0,0,0,0,0-.1,0-.2-.04-.27-.12l-.26-.28c-.13-.14-.14-.36-.02-.51.06-.08.15-.15.24-.22.08-.05.17-.1.28-.14.12-.04.26-.07.41-.07.01,0,.04,0,.09,0,.06,0,.13.02.21.04.08.02.16.06.25.1.09.05.18.12.26.22.08.09.14.2.19.33.05.13.07.28.07.45v1.83c0,.21-.17.38-.38.38h-.38Z" fill="#fff" stroke-width="0"/>
          <path d="m27.52,11.67s.03,0,.07,0c.04,0,.08.01.13.02.05.01.11.04.16.07.06.03.11.07.15.13.05.06.09.13.12.21.03.09.05.19.05.32v1.83h-.38v-1.83c0-.07-.02-.13-.04-.18,0-.02-.02-.05-.04-.07-.01-.02-.03-.04-.05-.06-.02-.02-.04-.03-.07-.04-.03-.01-.06-.02-.1-.02-.06,0-.12,0-.16.02-.04.02-.08.03-.11.05-.03.02-.05.04-.07.06-.02.02-.03.03-.04.04l-.26-.28c.04-.05.09-.1.16-.14.05-.04.12-.07.2-.1.08-.03.17-.04.28-.04Z" fill="#fff" stroke-width="0"/>
          <path d="m30.33,14.64c-.21,0-.38-.17-.38-.38v-1.08s0-.04-.01-.05c0,0,0-.02-.01-.04h-.41v1.18c0,.21-.17.38-.38.38h-.38c-.21,0-.38-.17-.38-.38v-2.58c0-.21.17-.38.38-.38h.38c.21,0,.38.17.38.38v.28h.4v-.28c0-.21.17-.38.38-.38h.38c.21,0,.38.17.38.38v.38c0,.05,0,.11-.03.18-.01.06-.03.12-.06.18-.01.03-.03.06-.04.09.04.07.08.15.11.24.04.12.07.25.07.39v1.11c0,.21-.17.38-.38.38h-.38Z" fill="#fff" stroke-width="0"/>
          <path d="m28.74,11.68h.38v.66h.86s.09-.02.13-.05c.03-.02.07-.05.1-.1.03-.04.06-.1.08-.18v-.34h.38v.38s0,.05-.01.09c0,.04-.02.08-.04.12-.02.04-.04.09-.07.13-.03.05-.06.09-.1.12.05.04.09.1.13.16.03.05.06.12.09.19.03.08.04.16.04.26v1.11h-.38v-1.11s-.01-.08-.02-.12c0-.03-.02-.07-.04-.11-.02-.04-.04-.07-.06-.11-.03-.03-.06-.06-.09-.08-.04-.02-.08-.03-.13-.03h-.86v1.56h-.38v-2.58Z" fill="#fff" stroke-width="0"/>
          <path d="m31.86,14.64c-.21,0-.38-.17-.38-.38v-1.79l-.02.02c-.07.07-.17.12-.28.12h0c-.1,0-.2-.04-.28-.12l-.26-.28c-.13-.14-.14-.36-.02-.51.06-.08.14-.15.24-.21.08-.06.18-.1.28-.14.12-.04.26-.07.41-.07.01,0,.04,0,.09,0,.06,0,.13.02.21.04.08.02.16.06.24.1.09.05.18.12.26.22.08.09.14.2.19.33.05.13.07.28.07.45v1.83c0,.21-.17.38-.38.38h-.38Z" fill="#fff" stroke-width="0"/>
          <path d="m31.56,11.67s.03,0,.07,0c.04,0,.08.01.13.02.05.01.1.04.16.07.06.03.11.07.15.13.05.06.09.13.12.21.03.09.05.19.05.32v1.83h-.38v-1.83c0-.07-.02-.13-.04-.18,0-.02-.02-.05-.04-.07-.01-.02-.03-.04-.05-.06-.02-.02-.04-.03-.07-.04-.03-.01-.06-.02-.1-.02-.06,0-.12,0-.16.02-.04.02-.08.03-.11.05-.03.02-.05.04-.07.06-.02.02-.03.03-.04.04l-.26-.28c.04-.05.09-.1.16-.14.05-.04.12-.07.2-.1.08-.03.17-.04.28-.04Z" fill="#fff" stroke-width="0"/>
          <path d="m33.52,14.68c-.21,0-.41-.03-.57-.08-.15-.05-.28-.1-.39-.17-.13-.08-.24-.17-.33-.27-.13-.15-.12-.38.02-.52l.25-.25c.05-.05.12-.09.19-.1,0,0,0,0-.01,0-.08-.06-.14-.12-.2-.21-.06-.08-.11-.18-.14-.28-.04-.11-.05-.23-.05-.36,0-.2.04-.38.12-.53.08-.15.18-.27.3-.37.12-.09.26-.16.4-.2.13-.04.27-.05.4-.05s.27.02.39.05c.11.03.2.06.27.09.1.04.19.09.27.15l.19.13c.17.12.22.35.1.53l-.21.32c-.04.06-.09.1-.14.13.04.03.08.07.11.1.09.09.16.2.22.32.06.13.09.27.09.41,0,.19-.04.36-.11.51-.07.15-.18.28-.31.38-.12.09-.26.16-.42.21-.14.04-.3.06-.46.06Zm-.15-1.14s.06.01.09.01l-.11-.02s.01,0,.02,0Z" fill="#fff" stroke-width="0"/>
          <path d="m34.22,12.35l-.16-.11s-.09-.05-.13-.07c-.05-.02-.1-.04-.15-.06-.05-.02-.1-.03-.14-.04-.04,0-.08-.01-.11-.01-.06,0-.12,0-.17.02-.05,0-.1.03-.14.06-.04.03-.07.07-.1.11-.03.05-.04.11-.04.19s.02.14.06.18c.04.04.1.08.17.1.07.02.14.04.23.06.08.01.17.03.25.04.08.01.17.04.24.08.08.04.15.09.21.16.06.06.11.13.14.21.04.08.05.16.05.25,0,.13-.02.25-.07.35-.05.1-.11.18-.2.24-.08.06-.18.11-.29.14-.11.03-.23.05-.35.05-.18,0-.33-.02-.45-.06-.12-.04-.23-.08-.31-.13-.09-.05-.17-.12-.24-.19l.25-.25s.07.06.12.09c.05.03.11.06.17.09.06.03.13.05.21.06.07.02.15.02.23.02s.15,0,.22-.03c.06-.02.12-.05.17-.09.05-.04.08-.08.1-.13.02-.05.04-.1.04-.17s-.01-.11-.03-.15c-.02-.04-.05-.07-.07-.09-.03-.02-.06-.04-.09-.05-.03,0-.05-.01-.07-.02,0,0-.03,0-.08-.01-.05,0-.1-.02-.15-.03-.06,0-.12-.02-.17-.03-.06,0-.1-.02-.13-.02-.02,0-.05,0-.08-.02-.04-.01-.07-.03-.12-.05-.04-.02-.09-.05-.13-.08-.04-.03-.08-.07-.12-.12-.04-.05-.07-.11-.09-.18-.02-.07-.03-.15-.03-.24,0-.14.03-.26.07-.35.05-.1.11-.18.19-.24.08-.06.17-.1.27-.13.1-.03.2-.04.3-.04s.2.01.29.04c.09.02.16.05.23.08.08.03.14.07.2.11l.2.13-.21.32Z" fill="#fff" stroke-width="0"/>
          <path d="m35.78,14.68c-.16,0-.3-.02-.43-.05-.13-.04-.24-.08-.34-.15-.1-.06-.19-.14-.27-.22-.06-.07-.12-.15-.17-.24-.1-.18-.16-.39-.18-.62,0-.01,0-.02,0-.03v-.52c0-.08.03-.16.07-.22-.05-.08-.06-.18-.04-.27.01-.06.03-.12.05-.19.03-.08.06-.16.11-.24.05-.08.11-.16.17-.23.07-.08.16-.16.26-.22.1-.06.21-.11.34-.14.13-.03.27-.05.42-.05s.3.02.43.05c.13.04.24.09.34.15.1.06.19.14.26.22.07.08.13.16.17.24.1.18.17.39.18.62,0,.01,0,.02,0,.03v.78s0,.02,0,.03c-.02.23-.08.44-.19.62-.04.08-.1.16-.17.24-.07.08-.16.15-.26.22-.1.06-.22.11-.34.15-.13.04-.27.05-.43.05Zm-.09-1.14s.06.01.09.01c.06,0,.11-.02.15-.03.02,0,.03-.02.05-.03,0,0,.01,0,.02-.02,0,0,0,0,0,0,0,0,0,0,.01-.02,0,0,0-.03,0-.07v-.78s0-.05,0-.05c0-.02-.01-.02-.01-.02,0,0-.01-.01-.02-.02-.02-.01-.03-.02-.05-.03-.04-.02-.1-.03-.17-.03h-.02s-.03,0-.06,0c-.01,0-.03,0-.07.02,0,0-.02,0-.02.01.16.05.28.19.28.37v.36c0,.14-.07.26-.18.33Z" fill="#fff" stroke-width="0"/>
          <path d="m36.79,13.37c-.01.17-.06.33-.14.46-.03.06-.07.11-.12.17-.05.06-.11.1-.18.15-.07.04-.15.08-.25.1-.09.03-.2.04-.32.04s-.23-.01-.33-.04c-.09-.03-.18-.06-.25-.1-.07-.04-.13-.09-.18-.15-.05-.05-.09-.11-.12-.17-.08-.13-.12-.29-.14-.46v-.52h.72v.36h-.34v.16c0,.07,0,.13.03.19.02.05.04.1.07.14.03.04.06.07.1.1.04.03.08.05.11.07.09.04.19.06.31.07.12,0,.22-.03.31-.07.04-.02.08-.04.11-.07.04-.03.07-.06.1-.1.03-.04.05-.09.07-.14.02-.05.03-.12.03-.19v-.78c0-.07,0-.13-.03-.18-.02-.05-.04-.1-.07-.13-.03-.04-.06-.07-.1-.1-.04-.03-.08-.05-.11-.06-.09-.04-.19-.06-.31-.07h-.03s-.07,0-.12.01c-.05,0-.11.03-.17.05-.06.03-.11.07-.17.12-.05.05-.09.12-.12.2h-.38s.02-.09.04-.15c.02-.05.05-.11.08-.17.03-.06.07-.11.12-.17.05-.05.11-.1.18-.14.07-.04.15-.08.24-.1.09-.03.2-.04.32-.04s.23.01.32.04c.09.03.18.06.25.11.07.04.13.09.18.15.05.06.09.11.12.17.08.13.12.29.14.46v.78Z" fill="#fff" stroke-width="0"/>
          <rect x="34.72" y="10.63" width="2.2" height="1.13" rx=".38" ry=".38" fill="#fff" stroke-width="0"/>
          <path d="m36.54,11.01v.37h-1.43v-.37h1.43Z" fill="#fff" stroke-width="0"/>
          <path d="m38.07,14.68c-.19,0-.37-.03-.51-.09-.14-.06-.27-.13-.37-.23-.1-.09-.18-.2-.24-.32-.05-.1-.09-.2-.11-.3-.03-.09-.04-.18-.05-.27,0-.07,0-.13,0-.16v-1.63c0-.21.17-.38.38-.38h.38c.21,0,.38.17.38.38v1.6c0,.09.01.13.02.14.02.04.03.06.03.06.01.01.02.02.02.02.03.01.05.02.07.03.02,0,.04,0,.05.01h.05c.05,0,.08,0,.09,0,.02-.01.04-.02.05-.03.01-.01.02-.03.03-.04.02-.03.03-.06.03-.09,0-.02,0-.04.01-.06v-.04s0-1.6,0-1.6c0-.21.17-.38.38-.38h.38c.21,0,.38.17.38.38v2.57c0,.21-.17.38-.38.38h-.38c-.07,0-.13-.02-.18-.04,0,0,0,0,0,0-.12.04-.25.07-.39.08,0,0-.02,0-.03,0h-.09Z" fill="#fff" stroke-width="0"/>
          <path d="m37.54,11.69v1.6c0,.11.01.2.04.27.03.07.06.14.11.18.04.05.09.08.14.11.05.03.1.04.15.06.05.01.09.02.12.02.04,0,.06,0,.07,0,.1,0,.18-.02.25-.05.07-.03.13-.07.17-.11.04-.05.08-.1.1-.15.02-.05.04-.11.06-.15.01-.05.02-.09.02-.12,0-.04,0-.06,0-.06v-1.6h.38v2.57h-.38v-.36s-.01.09-.03.13c-.02.04-.04.07-.07.09-.03.03-.06.05-.1.07-.04.02-.07.03-.11.05-.09.03-.19.05-.29.06h-.09c-.15,0-.27-.02-.37-.06-.1-.04-.19-.09-.25-.15-.07-.06-.12-.13-.16-.21-.04-.08-.07-.15-.09-.22-.02-.07-.03-.14-.04-.2,0-.06,0-.1,0-.13v-1.63h.38Z" fill="#fff" stroke-width="0"/>
          <rect x="39.29" y="11.3" width="1.15" height="3.34" rx=".38" ry=".38" fill="#fff" stroke-width="0"/>
          <path d="m40.06,14.26h-.39v-2.57h.39v2.57Z" fill="#fff" stroke-width="0"/>
          <path d="m42.18,14.64c-.1,0-.2-.04-.26-.11-.07.07-.16.11-.27.11h-.52s-.02,0-.03,0c-.17-.01-.33-.06-.47-.15-.06-.04-.12-.09-.18-.15-.06-.06-.12-.14-.16-.23-.04-.08-.07-.17-.1-.27-.02-.1-.04-.21-.04-.33v-1.12s0-.03,0-.04c.03-.25.11-.47.26-.65.14-.18.32-.31.54-.4.04-.02.09-.02.14-.02.07,0,.14.02.2.06l.25.15.25-.15c.06-.04.13-.06.2-.06.05,0,.09,0,.14.02.22.08.4.21.54.39.08.1.14.2.18.31.04.11.07.22.08.33,0,.02,0,.03,0,.05v1.87c0,.21-.17.38-.38.38h-.38Zm-.53-1.13c.05,0,.1.01.15.03v-.89l-.03.02c-.06.04-.14.06-.21.06s-.15-.02-.21-.06l-.03-.02v.79s0,.05.01.06c0,0,0,0,0,.01,0,0,0,0,0,0,0,0,.3,0,.3,0Z" fill="#fff" stroke-width="0"/>
          <path d="m42.38,11.94c.05.06.09.13.12.21.03.08.05.16.06.25v1.87h-.38v-1.72c0-.11-.02-.2-.06-.27-.04-.08-.09-.14-.15-.18l-.42.27-.41-.27c-.07.04-.12.1-.16.18-.04.08-.06.17-.06.27v.92c0,.08.02.16.06.22.01.03.03.05.05.08.02.03.05.05.08.07.03.02.07.04.11.05.04.01.09.02.14.02h.28v.36h-.51c-.11,0-.21-.04-.29-.09-.04-.02-.07-.05-.11-.09-.04-.04-.07-.08-.09-.13-.03-.05-.05-.11-.07-.19-.02-.07-.03-.15-.03-.25v-1.12c.02-.18.08-.33.18-.45.1-.13.23-.22.38-.28l.45.28.45-.28c.15.06.28.15.38.28Z" fill="#fff" stroke-width="0"/>
          <path d="m44.02,14.68c-.16,0-.3-.02-.43-.05-.13-.04-.24-.09-.34-.15-.1-.06-.19-.14-.27-.22-.06-.07-.12-.15-.17-.24-.1-.18-.16-.39-.18-.62,0-.01,0-.02,0-.03v-.52c0-.08.03-.16.07-.22-.05-.08-.06-.17-.04-.26.01-.06.03-.12.05-.19.03-.09.07-.16.11-.24.05-.08.11-.16.17-.23.07-.08.16-.15.26-.21.1-.06.21-.11.34-.14.13-.03.27-.05.42-.05s.3.02.43.05c.13.04.24.09.34.15.1.06.19.14.26.22.07.07.12.15.17.24.1.18.17.39.18.62,0,.01,0,.02,0,.03v.78s0,.02,0,.03c-.02.23-.08.44-.18.62-.05.08-.1.16-.17.24-.07.08-.16.15-.26.22-.1.06-.22.11-.34.15-.13.04-.27.05-.43.05Zm-.09-1.14s.06.01.09.01c.06,0,.11-.02.15-.03.02,0,.03-.02.05-.03,0,0,.01,0,.02-.02h0s0,0,.01-.03c0,0,0-.03,0-.07v-.78s0-.05,0-.05c0-.02-.01-.02-.01-.03,0,0-.01-.01-.01-.01-.02-.01-.04-.02-.06-.03-.04-.02-.1-.03-.17-.03h-.02s-.03,0-.06,0c0,0-.03,0-.07.02,0,0-.02,0-.03.02.16.05.28.19.28.37v.36c0,.14-.07.26-.18.33Z" fill="#fff" stroke-width="0"/>
          <path d="m45.03,13.37c-.01.17-.06.33-.14.46-.03.06-.07.11-.12.17-.05.06-.11.1-.18.15-.07.04-.15.08-.25.1-.09.03-.2.04-.32.04s-.23-.01-.33-.04c-.09-.03-.18-.06-.25-.1-.07-.04-.13-.09-.18-.15-.05-.05-.09-.11-.12-.17-.08-.13-.12-.29-.14-.46v-.52h.72v.36h-.34v.16c0,.07,0,.13.03.19.02.05.04.1.07.14.03.04.06.07.1.1.04.03.08.05.11.07.09.04.19.06.31.07.12,0,.22-.03.31-.07.04-.02.08-.04.11-.07.04-.03.07-.06.1-.1.03-.04.05-.09.07-.14.02-.05.03-.12.03-.19v-.78c0-.07,0-.13-.03-.18-.02-.05-.04-.1-.07-.13-.03-.04-.06-.07-.1-.1-.04-.03-.08-.05-.11-.06-.09-.04-.19-.06-.31-.07h-.03s-.07,0-.12.01c-.05,0-.11.03-.17.05-.06.03-.11.07-.17.12-.05.05-.09.12-.12.2h-.38s.02-.09.04-.15c.02-.05.05-.11.08-.17.03-.06.07-.11.12-.17.05-.05.11-.1.18-.14.07-.04.15-.08.24-.1.09-.03.2-.04.32-.04s.23.01.32.04c.09.03.17.06.25.11.07.04.13.09.18.15.05.06.09.11.12.17.08.13.12.29.14.46v.78Z" fill="#fff" stroke-width="0"/>
          <path d="m46.15,14.68c-.22,0-.4-.03-.57-.08-.15-.05-.28-.1-.39-.17-.13-.07-.24-.17-.33-.27-.13-.15-.12-.38.02-.52l.25-.25c.05-.05.12-.09.19-.1,0,0,0,0,0,0-.08-.06-.15-.13-.2-.21-.06-.08-.11-.18-.14-.29-.03-.1-.05-.23-.05-.36,0-.2.04-.38.12-.53.07-.15.18-.27.3-.37.12-.09.26-.16.4-.2.13-.04.27-.05.41-.05s.27.02.39.05c.11.03.2.06.27.09.1.04.19.09.27.15l.19.13c.17.12.22.35.1.53l-.21.32c-.04.06-.09.1-.14.13.04.03.08.07.11.1.09.09.16.2.22.32.06.13.09.27.09.41,0,.19-.04.36-.11.51-.07.15-.18.28-.31.38-.12.09-.26.16-.42.21-.14.04-.3.06-.46.06Zm-.15-1.14s.06.01.09.01c0,0-.09-.01-.09-.01Z" fill="#fff" stroke-width="0"/>
          <path d="m46.85,12.35l-.16-.11s-.08-.05-.13-.07c-.05-.02-.1-.04-.15-.06-.05-.02-.1-.03-.14-.04-.04,0-.08-.01-.11-.01-.06,0-.12,0-.17.02-.05,0-.1.03-.14.06-.04.03-.07.07-.1.11-.02.05-.04.11-.04.19s.02.14.06.18c.04.04.1.08.17.1.07.02.14.04.23.06.09.01.17.03.25.04.08.01.17.04.24.08.08.04.15.09.21.16.06.06.11.13.14.21.04.08.05.16.05.25,0,.13-.02.25-.07.35-.05.1-.11.18-.2.24-.08.06-.18.11-.29.14-.11.03-.23.05-.35.05-.18,0-.33-.02-.45-.06-.12-.04-.23-.08-.31-.13-.09-.05-.17-.12-.23-.19l.25-.25s.07.06.12.09c.05.03.11.06.17.09.06.03.13.05.21.06.07.02.15.02.23.02s.15,0,.22-.03c.06-.02.12-.05.17-.09.05-.04.08-.08.1-.13.02-.05.04-.1.04-.17s0-.11-.03-.15c-.02-.04-.04-.07-.07-.09-.03-.02-.06-.04-.09-.05-.03,0-.05-.01-.07-.02,0,0-.03,0-.08-.01-.05,0-.1-.02-.15-.03-.06,0-.11-.02-.17-.03-.06,0-.1-.02-.13-.02-.02,0-.05,0-.08-.02-.04-.01-.07-.03-.12-.05-.04-.02-.08-.05-.13-.08-.04-.03-.08-.07-.12-.12-.04-.05-.07-.11-.09-.18-.02-.07-.03-.15-.03-.24,0-.14.03-.26.07-.35.05-.1.11-.18.19-.24.08-.06.17-.1.27-.13.1-.03.2-.04.31-.04s.2.01.29.04c.09.02.16.05.23.08.08.03.14.07.2.11l.2.13-.21.32Z" fill="#fff" stroke-width="0"/>
          <path d="m45.94,11.75c-.21,0-.38-.17-.38-.38,0,0,0-.39,0-.4,0-.08.03-.17.07-.24.03-.07.09-.13.15-.18.1-.07.21-.11.33-.11h.84c.21,0,.38.17.38.38v.36c0,.21-.17.38-.38.38h-.33c-.07.11-.19.19-.33.19h-.36Z" fill="#fff" stroke-width="0"/>
          <path d="m45.94,11.37v-.38s.01-.06.02-.08c.01-.02.03-.04.05-.06.02-.02.06-.03.1-.03h.84v.36h-.66v.19h-.36Z" fill="#fff" stroke-width="0"/>
          <rect x="47.05" y="11.3" width="1.15" height="3.34" rx=".38" ry=".38" fill="#fff" stroke-width="0"/>
          <path d="m47.82,14.26h-.39v-2.57h.39v2.57Z" fill="#fff" stroke-width="0"/>
          <path d="m49.23,14.68c-.19,0-.37-.03-.51-.09-.14-.06-.27-.13-.37-.23-.1-.09-.18-.2-.24-.32-.05-.1-.09-.19-.11-.29-.03-.09-.04-.18-.05-.27,0-.08,0-.13,0-.17v-1.63c0-.21.17-.38.38-.38h.38c.21,0,.38.17.38.38v1.6c0,.08.01.13.02.14.02.04.03.06.03.07.01.01.02.02.02.02.04.02.06.03.07.03.02,0,.03,0,.05.01h.05c.05,0,.08,0,.09,0,.02-.01.04-.02.06-.04,0,0,.02-.02.02-.04.02-.03.03-.06.03-.09,0-.02,0-.04.01-.06v-.04s0-1.59,0-1.59c0-.21.17-.38.38-.38h.38c.21,0,.38.17.38.38v2.57c0,.21-.17.38-.38.38h-.38c-.07,0-.13-.02-.18-.04,0,0,0,0,0,0-.12.04-.25.07-.39.08,0,0-.02,0-.03,0h-.09Z" fill="#fff" stroke-width="0"/>
          <path d="m48.7,11.69v1.6c0,.11.01.2.04.27.03.07.06.14.11.18.04.05.09.08.14.11.05.03.1.04.15.06.05.01.09.02.12.02.03,0,.06,0,.07,0,.1,0,.18-.02.25-.05.07-.03.12-.07.17-.11.04-.05.08-.1.1-.15.03-.05.04-.11.06-.15.01-.05.02-.09.02-.12,0-.04,0-.06,0-.06v-1.6h.38v2.57h-.38v-.36s-.01.09-.03.13c-.02.04-.04.07-.07.09-.03.03-.06.05-.1.07-.04.02-.07.03-.11.05-.09.03-.19.05-.3.06h-.09c-.15,0-.27-.02-.37-.06-.1-.04-.19-.09-.25-.15-.07-.06-.12-.13-.16-.21-.04-.08-.07-.15-.09-.22-.02-.07-.03-.14-.04-.2,0-.06,0-.1,0-.13v-1.63h.38Z" fill="#fff" stroke-width="0"/>
          <path d="m51.73,14.68c-.2,0-.37-.03-.52-.08-.15-.06-.28-.13-.38-.23-.1-.09-.18-.19-.24-.31-.05-.11-.09-.2-.12-.29-.02-.08-.04-.17-.04-.24,0-.07,0-.11,0-.13,0-.13.02-.25.06-.36.03-.09.08-.18.13-.26.05-.07.1-.14.16-.2,0,0,.12-.13.13-.13-.01,0-.02,0-.03,0-.01,0-.03,0-.04,0h-.03c-.21,0-.38-.17-.38-.38v-.36c0-.21.17-.38.38-.38h.23c.15,0,.29.02.41.07.12.05.22.11.3.18.04.04.08.08.11.12h.03c0-.2.18-.37.38-.37h.38c.21,0,.38.17.38.38v.15c0,.13-.03.26-.08.36.04.08.07.17.08.27,0,.01,0,.03,0,.04v.9c0,.19-.03.36-.09.51-.06.15-.14.27-.23.37-.09.1-.2.17-.31.23-.1.05-.2.09-.29.11-.08.02-.16.03-.24.04-.07,0-.11,0-.13,0Zm-.13-1.26c0,.05,0,.07,0,.07,0,.02.01.03.01.03.03.02.04.02.05.02,0,0,.02,0,.03,0h.04s.06,0,.06,0c.02,0,.03-.01.03-.01,0,0,.02-.02.02-.03,0-.02.02-.04.02-.05,0-.01,0-.03.01-.04v-.02s0-.38,0-.38c-.01.02-.03.04-.05.07,0,0-.01.02-.02.03-.07.08-.11.14-.13.17-.04.06-.05.09-.06.11,0,.01,0,.02-.01.03Z" fill="#fff" stroke-width="0"/>
          <path d="m52.36,12.2c.09.02.15.06.2.11.05.05.07.12.08.2v.9c0,.14-.02.27-.06.37-.04.1-.09.18-.16.25-.06.07-.13.12-.21.15-.07.04-.15.06-.21.08-.07.02-.13.03-.18.03-.05,0-.08,0-.1,0-.15,0-.28-.02-.38-.06-.1-.04-.19-.09-.26-.15-.07-.06-.12-.13-.16-.2-.04-.07-.07-.14-.08-.21-.02-.07-.03-.13-.03-.18,0-.05,0-.08,0-.1,0-.08.01-.16.04-.23.02-.07.05-.13.09-.18.04-.05.08-.11.12-.15.04-.04.08-.09.12-.13.04-.04.07-.08.1-.12.03-.04.04-.08.05-.12,0-.01,0-.02,0-.03v-.03c0-.06,0-.11-.03-.15-.02-.04-.04-.07-.08-.1-.03-.03-.07-.05-.1-.06-.04-.02-.07-.03-.11-.04-.04,0-.07-.01-.1-.02-.03,0-.06,0-.07,0h-.03v-.36h.23c.1,0,.19.01.27.04.07.03.13.07.18.11.05.04.09.1.12.15.03.06.05.11.07.17.01.05.03.11.03.15,0,.05,0,.09,0,.11,0,0,0,.02,0,.02,0,0,0,.01,0,.01h0c0,.06-.02.1-.04.15-.02.04-.04.08-.06.12-.03.04-.05.08-.08.12-.07.08-.13.16-.17.22-.04.06-.07.12-.09.17-.02.05-.03.08-.04.11,0,.03,0,.05,0,.06,0,.09.01.16.04.22.02.06.05.11.09.15.04.04.07.07.12.09.04.02.08.04.12.05.04,0,.07.02.1.02.03,0,.05,0,.06,0,.08,0,.15-.01.2-.04.06-.02.11-.05.14-.09.04-.04.07-.08.09-.12.02-.04.04-.08.06-.12.01-.04.02-.07.03-.1,0-.03,0-.05,0-.06v-.82c0-.16-.11-.24-.34-.24h-.13v-.3h.13c.11,0,.2-.03.26-.08.06-.05.08-.12.08-.22v-.07h.38v.15c0,.2-.09.32-.28.36Z" fill="#fff" stroke-width="0"/>
          <path d="m51.67,11.76c-.16,0-.27-.06-.33-.11-.07-.05-.12-.12-.16-.2-.03-.05-.05-.13-.06-.21,0-.01,0-.03,0-.04v-.38c0-.21.17-.38.38-.38h.36c.14,0,.27.08.33.19h.63c.21,0,.38.17.38.38v.36c0,.21-.17.38-.38.38h-1.15Z" fill="#fff" stroke-width="0"/>
          <path d="m51.86,10.83v.19h.96v.36h-1.15s-.07,0-.1-.03c-.02-.02-.04-.04-.05-.06-.01-.03-.02-.05-.02-.09v-.38h.36Z" fill="#fff" stroke-width="0"/>
          <rect x="51.67" y="9.28" width="1.13" height="1.49" rx=".38" ry=".38" fill="#fff" stroke-width="0"/>
          <path d="m52.41,9.67v.73h-.36v-.73h.36Z" fill="#fff" stroke-width="0"/>
          <path d="m54.04,14.68c-.19,0-.37-.03-.51-.09-.15-.06-.27-.14-.37-.23-.1-.09-.18-.2-.24-.32-.05-.1-.09-.2-.12-.3-.03-.09-.04-.18-.05-.27,0-.07,0-.12,0-.16v-1.63c0-.21.17-.38.38-.38h.38c.21,0,.38.17.38.38v1.6c0,.08.01.12.02.14.02.04.03.06.03.06.01.02.02.02.03.02.03.02.06.02.07.03.02,0,.03,0,.05.01h.05c.05,0,.08,0,.09,0,.03-.01.05-.02.06-.04,0,0,.02-.02.02-.04.02-.04.03-.07.03-.09,0-.03.01-.05.01-.07v-.03s0-1.59,0-1.59c0-.21.17-.38.38-.38h.38c.21,0,.38.17.38.38v2.57c0,.21-.17.38-.38.38h-.38c-.07,0-.13-.02-.18-.04,0,0,0,0,0,0-.12.04-.26.07-.4.08,0,0-.02,0-.03,0h-.09Z" fill="#fff" stroke-width="0"/>
          <path d="m53.51,11.69v1.6c0,.11.01.2.04.27.03.07.06.14.11.18.04.05.09.08.14.11.05.03.1.04.15.06.05.01.09.02.12.02.03,0,.06,0,.07,0,.1,0,.18-.02.25-.05.07-.03.13-.07.17-.11.04-.05.08-.1.1-.15.02-.05.04-.11.05-.15.01-.05.02-.09.02-.12,0-.04,0-.06,0-.06v-1.6h.38v2.57h-.38v-.36s-.01.09-.03.13c-.02.04-.04.07-.07.09-.03.03-.06.05-.1.07-.04.02-.07.03-.11.05-.09.03-.19.05-.3.06h-.09c-.14,0-.27-.02-.37-.06-.1-.04-.19-.09-.25-.15-.07-.06-.12-.13-.16-.21-.04-.08-.07-.15-.09-.22-.02-.07-.03-.14-.04-.2,0-.06,0-.1,0-.13v-1.63h.38Z" fill="#fff" stroke-width="0"/>
          <path d="m56.4,14.64c-.08,0-.15-.02-.21-.06-.06.04-.13.06-.21.06h-.39c-.21,0-.38-.17-.38-.38v-2.57c0-.21.17-.38.38-.38h.39c.08,0,.15.02.21.06.06-.04.13-.06.21-.06h.39c.21,0,.38.17.38.38v2.57c0,.21-.17.38-.38.38h-.39Z" fill="#fff" stroke-width="0"/>
          <path d="m55.98,14.26h-.39v-2.57h.39v2.57Zm.81,0h-.39v-2.57h.39v2.57Z" fill="#fff" stroke-width="0"/>
          <path d="m58.18,14.68c-.2,0-.37-.03-.51-.09-.14-.06-.27-.13-.37-.23-.1-.09-.18-.2-.24-.32-.05-.1-.09-.2-.11-.29-.03-.1-.04-.19-.05-.27,0-.07,0-.13,0-.16v-1.63c0-.21.17-.38.38-.38h.38c.21,0,.38.17.38.38v1.6c0,.08.01.12.02.14.02.05.03.06.03.07.01.01.02.02.02.02.03.02.06.03.07.03.02,0,.04,0,.05.01h.05c.06,0,.08,0,.09,0,.03-.01.05-.03.06-.04,0,0,.02-.02.03-.04.02-.04.03-.07.03-.08,0-.02.01-.04.01-.06v-.05s0-1.58,0-1.58c0-.21.17-.38.38-.38h.38c.21,0,.38.17.38.38v2.57c0,.21-.17.38-.38.38h-.38c-.07,0-.13-.02-.18-.05,0,0,0,0,0,0-.12.04-.25.07-.39.08,0,0-.02,0-.03,0h-.09Z" fill="#fff" stroke-width="0"/>
          <path d="m57.65,11.69v1.6c0,.11.01.2.04.27.03.07.06.14.1.18.04.05.09.08.14.11.05.03.1.04.15.06.05.01.09.02.12.02.03,0,.06,0,.07,0,.1,0,.18-.02.25-.05.07-.03.13-.07.17-.11.04-.05.08-.1.1-.15.02-.05.04-.11.05-.15.01-.05.02-.09.02-.12,0-.04,0-.06,0-.06v-1.6h.38v2.57h-.38v-.36s-.02.09-.03.13c-.02.04-.04.07-.07.09-.03.03-.06.05-.1.07-.04.02-.07.03-.11.05-.09.03-.19.05-.3.06h-.09c-.15,0-.27-.02-.37-.06-.1-.04-.19-.09-.25-.15-.07-.06-.12-.13-.16-.21-.04-.08-.07-.15-.09-.22-.02-.07-.03-.14-.04-.2,0-.06,0-.1,0-.13v-1.63h.38Z" fill="#fff" stroke-width="0"/>
          <path d="m61.29,14.64c-.11,0-.21-.05-.28-.12-.07.07-.17.12-.28.12h-.43c-.15,0-.29-.03-.42-.09-.13-.06-.24-.15-.33-.25-.09-.1-.16-.22-.21-.35-.05-.13-.08-.27-.08-.41s.03-.29.09-.44c.03-.07.07-.14.12-.2-.04-.02-.07-.04-.1-.07-.07-.08-.11-.18-.1-.29.01-.19.05-.36.12-.5.06-.14.14-.26.24-.35.09-.1.2-.17.31-.23.1-.05.2-.09.3-.12.09-.02.17-.04.25-.05.07,0,.12,0,.15,0h.02c.21,0,.39.03.54.09.16.06.29.14.4.23.11.09.19.2.26.32.06.1.1.21.13.31.03.09.05.18.05.27,0,.08,0,.13,0,.16v1.59c0,.21-.17.38-.38.38h-.38Zm-.84-1.16s.05.01.08.02c.03,0,.07,0,.1.01.03,0,.05,0,.07,0h.03c.06,0,.12.01.17.04v-.04s0,0,0,0c-.02-.01-.04-.02-.07-.03-.04-.01-.08-.02-.12-.03-.03,0-.07,0-.11-.01h-.02s-.02,0-.03,0c-.03,0-.05.01-.08.02,0,0-.01,0-.02.01Z" fill="#fff" stroke-width="0"/>
          <path d="m61.08,11.73c.11.04.21.1.28.16.07.07.13.14.18.22.04.08.07.15.1.23.02.07.03.14.04.2,0,.06,0,.1,0,.13v1.59h-.38v-.76c0-.07-.02-.14-.05-.19-.03-.05-.08-.09-.13-.12-.05-.03-.1-.06-.16-.08-.06-.02-.11-.03-.16-.04-.05,0-.11-.01-.18-.02,0,0-.02,0-.05,0-.03,0-.06,0-.1.02-.04,0-.08.02-.13.04-.04.02-.09.04-.13.07-.04.03-.08.07-.11.12-.03.05-.06.11-.07.18,0,.02,0,.04,0,.06,0,.05.01.1.04.14.03.04.06.07.1.1.04.03.09.05.14.06.05.02.1.03.15.04.05,0,.1.01.14.02.04,0,.07,0,.1,0h.03v.36h-.43c-.09,0-.17-.02-.25-.06-.08-.04-.15-.09-.21-.16-.06-.07-.11-.14-.14-.23-.03-.09-.05-.18-.05-.27s.02-.19.06-.29c.04-.1.11-.19.21-.28.06-.05.12-.1.18-.14.06-.04.12-.07.19-.09.06-.02.12-.04.18-.05.06,0,.12-.01.18-.01.09,0,.17,0,.25.02.08.02.14.04.2.05.07.02.13.05.18.08v-.15c0-.08,0-.15-.03-.21-.02-.06-.04-.11-.07-.16-.03-.04-.06-.08-.1-.11-.04-.03-.08-.06-.11-.08-.09-.05-.2-.07-.31-.08-.1,0-.19.02-.26.06-.07.04-.13.08-.18.13-.05.05-.08.11-.11.17-.03.06-.04.11-.05.15h-.4c0-.14.04-.26.08-.36.04-.1.1-.18.16-.25.06-.07.13-.12.21-.16.08-.04.15-.07.22-.08.07-.02.13-.03.19-.04.06,0,.1,0,.12,0h.02c.16,0,.3.02.41.06Z" fill="#fff" stroke-width="0"/>
        </g>
      </g>
    </g>
    <g>
      <g>
        <g>
          <path d="m3.32,19.79v-1h.34l.2.68.2-.68h.34v1h-.21v-.79l-.22.79h-.22l-.22-.79v.79h-.21Z" fill="#1c70aa" stroke-width="0"/>
          <path d="m4.62,18.79h.22v.54c0,.08,0,.14,0,.17,0,.04.03.07.06.09.04.02.09.04.15.04.08,0,.14-.02.17-.05.03-.03.04-.11.04-.24v-.55h.22v.53c0,.12,0,.21-.02.27-.02.06-.06.11-.12.15-.07.04-.16.06-.28.06s-.21-.02-.28-.05c-.07-.03-.11-.08-.14-.14-.02-.06-.04-.15-.04-.29v-.53Z" fill="#1c70aa" stroke-width="0"/>
          <path d="m5.74,19.79v-1h.22v.44l.45-.44h.3l-.42.39.44.61h-.29l-.31-.47-.18.17v.3h-.22Z" fill="#1c70aa" stroke-width="0"/>
          <path d="m7.28,19.79v-1h.23v1h-.23Z" fill="#1c70aa" stroke-width="0"/>
          <path d="m7.72,19.79v-1h.22l.46.67v-.67h.21v1h-.22l-.45-.65v.65h-.21Z" fill="#1c70aa" stroke-width="0"/>
          <path d="m9.09,19.79v-.83h-.33v-.17h.88v.17h-.33v.83h-.22Z" fill="#1c70aa" stroke-width="0"/>
          <path d="m9.79,19.79v-1h.82v.17h-.6v.22h.56v.17h-.56v.27h.62v.17h-.84Z" fill="#1c70aa" stroke-width="0"/>
          <path d="m10.83,19.79v-1h.47c.15,0,.26.02.33.06.07.04.11.11.11.22,0,.16-.1.25-.29.28.08.04.16.12.25.25l.14.2h-.27l-.24-.32s-.05-.06-.08-.07c-.03-.02-.08-.02-.14-.02h-.05v.42h-.22Zm.22-.58h.17c.11,0,.19,0,.23-.03.04-.02.06-.05.06-.1,0-.05-.02-.08-.05-.1-.03-.02-.11-.03-.23-.03h-.17v.25Z" fill="#1c70aa" stroke-width="0"/>
          <path d="m11.95,19.79v-1h.22l.46.67v-.67h.21v1h-.22l-.45-.65v.65h-.21Z" fill="#1c70aa" stroke-width="0"/>
          <path d="m14.07,19.79h-.24l-.09-.23h-.45l-.09.23h-.24l.43-1h.24l.44,1Zm-.41-.4l-.15-.37-.15.37h.3Z" fill="#1c70aa" stroke-width="0"/>
          <path d="m14.44,19.79v-.83h-.33v-.17h.88v.17h-.33v.83h-.22Z" fill="#1c70aa" stroke-width="0"/>
          <path d="m15.13,19.79v-1h.23v1h-.23Z" fill="#1c70aa" stroke-width="0"/>
          <path d="m15.52,19.29c0-.16.05-.29.14-.38.09-.09.23-.14.4-.14.19,0,.33.05.41.15.08.1.13.22.13.36,0,.16-.05.28-.14.38-.1.09-.23.14-.39.14s-.3-.05-.4-.14c-.1-.09-.14-.22-.14-.37Zm.23,0c0,.1.03.19.08.25.05.06.13.09.23.09.1,0,.18-.03.23-.1.05-.07.08-.15.08-.25,0-.23-.1-.34-.31-.34s-.31.11-.31.34Z" fill="#1c70aa" stroke-width="0"/>
          <path d="m16.78,19.79v-1h.22l.46.67v-.67h.21v1h-.22l-.45-.65v.65h-.21Z" fill="#1c70aa" stroke-width="0"/>
          <path d="m18.89,19.79h-.24l-.1-.23h-.45l-.09.23h-.24l.43-1h.24l.44,1Zm-.41-.4l-.15-.37-.15.37h.3Z" fill="#1c70aa" stroke-width="0"/>
          <path d="m19.01,19.79v-1h.23v.83h.56v.17h-.78Z" fill="#1c70aa" stroke-width="0"/>
          <path d="m7.72,21.6v-1h.22v.39h.44v-.39h.22v1h-.22v-.44h-.44v.44h-.22Z" fill="#808186" stroke-width="0"/>
          <path d="m8.79,21.1c0-.16.05-.29.14-.38.09-.09.23-.14.4-.14.19,0,.33.05.41.15.08.1.13.22.13.36,0,.16-.05.28-.14.38-.09.09-.23.14-.39.14s-.3-.05-.4-.14c-.1-.09-.14-.22-.14-.37Zm.23,0c0,.1.03.19.08.25.05.06.13.09.23.09s.18-.03.23-.1c.05-.07.08-.15.08-.25,0-.23-.1-.34-.31-.34s-.31.11-.31.34Z" fill="#808186" stroke-width="0"/>
          <path d="m9.99,21.27l.22-.02c.03.13.11.19.24.19.15,0,.22-.05.22-.14,0-.03-.02-.06-.05-.08-.03-.02-.11-.04-.24-.07-.24-.05-.36-.15-.36-.3,0-.09.04-.16.11-.21.07-.05.17-.07.29-.07.28,0,.42.1.43.3h-.22c-.02-.09-.09-.14-.2-.14-.13,0-.19.03-.19.1,0,.02.01.04.03.06.02.02.09.04.21.07.19.04.3.09.34.14.04.05.06.11.06.19,0,.21-.15.31-.45.31-.28,0-.43-.11-.46-.34Z" fill="#808186" stroke-width="0"/>
          <path d="m11.08,21.6v-1h.36c.12,0,.21,0,.27.02.06,0,.11.04.15.09.05.05.07.12.07.2,0,.07-.02.13-.05.18-.04.05-.08.08-.14.1-.06.02-.15.03-.29.03h-.15v.38h-.22Zm.22-.83v.28h.12c.1,0,.17,0,.21-.03.04-.02.06-.06.06-.11s-.02-.09-.06-.11c-.04-.02-.11-.03-.23-.03h-.11Z" fill="#808186" stroke-width="0"/>
          <path d="m12.11,21.6v-1h.23v1h-.23Z" fill="#808186" stroke-width="0"/>
          <path d="m12.8,21.6v-.83h-.33v-.17h.88v.17h-.33v.83h-.22Z" fill="#808186" stroke-width="0"/>
          <path d="m14.5,21.6h-.24l-.09-.23h-.45l-.09.23h-.24l.43-1h.24l.44,1Zm-.41-.4l-.15-.37-.15.37h.3Z" fill="#808186" stroke-width="0"/>
          <path d="m14.62,21.6v-1h.23v.83h.56v.17h-.78Z" fill="#808186" stroke-width="0"/>
        </g>
        <g>
          <g>
            <path d="m11.83,15.37c-2.98,0-5.4-2.42-5.4-5.4s2.42-5.4,5.4-5.4,5.4,2.42,5.4,5.4-2.42,5.4-5.4,5.4Z" fill="#fff" fill-rule="evenodd" stroke-width="0"/>
            <path d="m17.01,9.98c0,2.86-2.32,5.18-5.18,5.18s-5.18-2.32-5.18-5.18,2.32-5.18,5.18-5.18,5.18,2.32,5.18,5.18Z" fill="#fff" fill-rule="evenodd" stroke-width="0"/>
            <path d="m12,15.43c-.3,0-.61-.03-.91-.08-.08-.01-.17-.03-.25-.05-.09-.02-.18-.04-.27-.06-.28-.04-.42-.24-.52-.38l-.05-.07c-.52-.7-.79-1.48-.99-2.16-.12-.4-.22-.83-.32-1.34-.01-.06-.04-.2.05-.32.09-.11.24-.11.29-.11.28,0,.56,0,.83,0s.57,0,.85,0h0c.05,0,.18,0,.28.1.1.1.1.23.1.28,0,.41,0,.81,0,1.22,0,.38,0,.76,0,1.15.34,0,.66,0,.98,0s.63,0,.94,0c0-.36,0-.69,0-1.03,0-.44,0-.88,0-1.32,0-.09.01-.21.1-.3.09-.09.21-.1.29-.1.33,0,.66,0,.99,0,0,0,1.1,0,1.39,0,0-.66,0-1.3,0-1.94-.41,0-.8,0-1.19,0s-.81,0-1.21,0h0c-.05,0-.17,0-.26-.09-.09-.09-.09-.22-.09-.27,0-.41,0-2.01,0-2.41-.34,0-.66,0-.98,0s-.63,0-.94,0c0,.37,0,.72,0,1.07,0,.44,0,.88,0,1.32,0,.06,0,.19-.09.28-.08.08-.19.09-.27.09-.21,0-.4,0-.6,0h-2.04c-.07,0-.23,0-.34-.15-.19-.28-.43-.54-.7-.76-.1-.08-.2-.23-.09-.45.33-.69.78-1.3,1.35-1.8.81-.71,1.76-1.15,2.82-1.31.28-.04.56-.06.84-.06.57,0,1.14.09,1.7.27.87.28,1.65.76,2.29,1.43.71.74,1.19,1.63,1.41,2.66.12.57.15,1.17.08,1.78-.08.74-.3,1.44-.65,2.07-.45.8-1.07,1.46-1.84,1.96-.59.38-1.23.64-1.9.78-.36.07-.73.11-1.09.11Z" fill="#fff" fill-rule="evenodd" stroke-width="0"/>
            <path d="m9.44,8.7c-.44,0-.88,0-1.33,0-.06,0-.11,0-.15-.06-.21-.3-.46-.57-.74-.8-.07-.06-.07-.11-.03-.19.31-.67.75-1.25,1.3-1.73.78-.68,1.68-1.1,2.7-1.26.83-.12,1.64-.06,2.43.2.85.27,1.58.73,2.2,1.38.7.72,1.14,1.58,1.36,2.55.12.56.15,1.13.08,1.71-.08.7-.28,1.37-.63,1.98-.43.77-1.02,1.4-1.76,1.88-.56.37-1.17.62-1.83.75-.63.13-1.27.14-1.91.03-.18-.03-.35-.08-.53-.11-.22-.03-.31-.21-.42-.36-.47-.63-.73-1.35-.95-2.09-.13-.44-.23-.88-.31-1.32-.03-.13,0-.17.14-.17.56,0,1.12,0,1.68,0,.13,0,.15.04.15.16,0,.82,0,1.63,0,2.45,0,.11.03.15.14.14.69,0,1.39,0,2.08,0,.12,0,.14-.04.14-.15,0-.81,0-1.62,0-2.43,0-.13.03-.17.17-.17.82,0,1.64,0,2.46,0,.12,0,.14-.03.14-.14,0-.7,0-1.39,0-2.09,0-.12-.03-.16-.15-.16-.83,0-1.65,0-2.48,0-.11,0-.14-.03-.13-.14,0-.83,0-1.66,0-2.49,0-.11-.02-.14-.14-.14-.7,0-1.39,0-2.09,0-.11,0-.14.03-.14.14,0,.82,0,1.65,0,2.47,0,.12-.03.16-.15.15-.43,0-.86,0-1.3,0Z" fill="#fff" fill-rule="evenodd" stroke-width="0"/>
            <path d="m11.52,17.58c-.08,0-.17,0-.25,0-.66-.03-1.31-.17-1.92-.4-1.11-.42-2.07-1.1-2.94-2.09-.43-.49-.77-1.06-1.04-1.77-.35-.91-.48-1.86-.41-2.93.02-.23.04-.46.06-.69.03-.31.06-.62.07-.93.03-.69-.05-1.19-.25-1.63-.05-.1-.11-.19-.2-.29-.06-.07-.08-.17-.04-.25.04-.08.11-.12.2-.12,0,0,.01,0,.02,0,.15.01.26.07.35.12l.05.02c.81.39,1.46.83,1.97,1.36.54.55.89,1.13,1.09,1.79.15.51.26,1.04.36,1.54.1.49.21,1.02.38,1.53.19.59.4,1.04.64,1.43.46.75,1.12,1.28,1.94,1.56.39.14.83.22,1.29.24.17,0,.34.01.5.01.38,0,.73-.02,1.05-.08l.21-.03c.31-.05.6-.09.88-.18.04-.01.09-.02.13-.02.05,0,.09,0,.15.02.08.02.14.09.15.17.02.08-.01.16-.07.21-.16.14-.32.22-.48.31l-.08.04c-.53.29-1.02.51-1.5.66-.54.17-1.04.28-1.52.33-.28.03-.54.05-.78.05Z" fill="#fff" fill-rule="evenodd" stroke-width="0"/>
            <path d="m15.73,16.03c-.17.14-.35.23-.52.33-.47.26-.95.48-1.46.64-.48.15-.97.27-1.48.32-.33.04-.67.05-1,.04-.64-.03-1.25-.16-1.85-.38-1.13-.43-2.06-1.13-2.86-2.03-.44-.5-.76-1.07-1-1.7-.35-.92-.46-1.87-.39-2.84.04-.54.11-1.08.13-1.62.03-.59-.02-1.18-.27-1.73-.06-.12-.13-.23-.24-.35.14.01.23.07.33.12.71.34,1.36.75,1.91,1.31.47.48.84,1.04,1.04,1.7.15.5.25,1.01.35,1.52.1.52.22,1.05.39,1.56.17.52.37,1.02.66,1.48.49.79,1.17,1.35,2.05,1.66.43.15.89.23,1.35.25.53.03,1.07.02,1.6-.07.37-.06.75-.1,1.12-.21.04-.01.08-.01.15,0Z" fill="#fff" fill-rule="evenodd" stroke-width="0"/>
            <path d="m13.7,16.22c-.78,0-1.53-.18-2.17-.52-.09-.05-.14-.15-.11-.25.03-.1.11-.16.21-.16,0,0,.14,0,.21,0,1.71,0,3.12-.61,4.21-1.8,1.14-1.26,1.58-2.79,1.32-4.55-.01-.1.04-.2.14-.24.03-.01.05-.02.08-.02.07,0,.14.03.18.09.38.54.62,1.18.72,1.88.19,1.35-.12,2.57-.92,3.63-.93,1.23-2.34,1.94-3.88,1.94Z" fill="#fff" fill-rule="evenodd" stroke-width="0"/>
            <path d="m17.59,8.89c.38.54.6,1.14.69,1.79.18,1.27-.1,2.44-.88,3.47-1.54,2.03-4.11,2.23-5.76,1.35,1.82.05,3.37-.54,4.58-1.87,1.22-1.34,1.64-2.94,1.37-4.73Z" fill="#fff" fill-rule="evenodd" stroke-width="0"/>
          </g>
          <g>
            <path d="m17.01,9.98c0,2.86-2.32,5.18-5.18,5.18s-5.18-2.32-5.18-5.18,2.32-5.18,5.18-5.18,5.18,2.32,5.18,5.18Z" fill="#fff" fill-rule="evenodd" stroke-width="0"/>
            <path d="m9.44,8.7c-.44,0-.88,0-1.33,0-.06,0-.11,0-.15-.06-.21-.3-.46-.57-.74-.8-.07-.06-.07-.11-.03-.19.31-.67.75-1.25,1.3-1.73.78-.68,1.68-1.1,2.7-1.26.82-.12,1.64-.06,2.43.2.85.27,1.58.73,2.2,1.38.7.72,1.14,1.58,1.36,2.55.12.56.15,1.13.08,1.71-.08.7-.28,1.37-.63,1.98-.43.77-1.02,1.4-1.76,1.88-.56.37-1.17.62-1.82.75-.63.13-1.27.14-1.91.03-.18-.03-.35-.08-.53-.11-.22-.03-.31-.21-.42-.36-.47-.63-.73-1.35-.95-2.09-.13-.44-.23-.88-.31-1.32-.03-.13,0-.17.14-.17.56,0,1.12,0,1.68,0,.13,0,.15.04.15.16,0,.82,0,1.63,0,2.45,0,.11.03.15.14.14.69,0,1.39,0,2.08,0,.12,0,.14-.04.14-.15,0-.81,0-1.62,0-2.43,0-.13.03-.17.17-.17.82,0,1.64,0,2.46,0,.12,0,.14-.03.14-.14,0-.7,0-1.39,0-2.09,0-.12-.03-.16-.15-.16-.83,0-1.65,0-2.48,0-.11,0-.14-.03-.13-.14,0-.83,0-1.66,0-2.49,0-.11-.02-.14-.14-.14-.7,0-1.39,0-2.09,0-.11,0-.14.03-.14.14,0,.82,0,1.65,0,2.47,0,.12-.03.16-.15.15-.43,0-.86,0-1.3,0Z" fill="#148843" fill-rule="evenodd" stroke-width="0"/>
            <path d="m15.73,16.03c-.17.14-.35.23-.52.33-.47.26-.95.48-1.46.64-.48.15-.97.27-1.48.32-.33.04-.67.05-1,.04-.64-.03-1.25-.16-1.85-.38-1.13-.43-2.06-1.13-2.86-2.03-.44-.5-.76-1.07-1-1.7-.35-.92-.46-1.87-.39-2.84.04-.54.11-1.08.13-1.62.03-.59-.02-1.18-.27-1.73-.06-.12-.13-.23-.24-.35.14.01.23.07.33.12.7.34,1.36.75,1.91,1.31.48.48.84,1.04,1.04,1.7.15.5.25,1.01.35,1.52.1.52.22,1.05.39,1.56.17.52.37,1.02.66,1.48.49.79,1.17,1.35,2.05,1.66.43.15.89.23,1.35.25.53.03,1.07.02,1.6-.07.38-.06.75-.1,1.12-.21.04-.01.08-.01.15,0Z" fill="#f69623" fill-rule="evenodd" stroke-width="0"/>
            <path d="m17.59,8.89c.38.54.6,1.14.69,1.79.18,1.27-.1,2.44-.88,3.47-1.54,2.03-4.11,2.23-5.76,1.35,1.82.05,3.37-.54,4.58-1.87,1.22-1.34,1.64-2.94,1.37-4.73Z" fill="#828386" fill-rule="evenodd" stroke-width="0"/>
          </g>
        </g>
      </g>
      <g>
        <g>
          <path d="m19.72,11.03v-1.8s0-.07-.02-.1c-.02-.03-.04-.07-.06-.1-.02-.03-.05-.07-.08-.1-.03-.03-.05-.07-.08-.11-.02-.04-.04-.07-.06-.11-.02-.04-.02-.08-.02-.12,0-.05,0-.11.02-.17.01-.06.04-.12.07-.17.03-.05.08-.1.13-.13.06-.03.13-.05.21-.05h.68v.25h-.61s-.08.01-.12.03c-.01,0-.03.02-.04.03-.01.01-.03.03-.04.05-.01.02-.02.04-.03.07,0,.03,0,.06,0,.09,0,.04,0,.08.02.11.01.03.03.05.06.08.02.03.05.06.09.1.03.04.07.09.11.16,0,.02.01.04.02.06,0,.02,0,.04.01.07,0,.03,0,.06,0,.1v1.76h-.26Z" fill="#148843" stroke-width="0"/>
          <path d="m21.3,9.71l-.11-.07s-.06-.03-.09-.05c-.03-.02-.07-.03-.1-.04-.03-.01-.07-.02-.1-.03-.03,0-.06,0-.08,0-.04,0-.08,0-.12.01-.04,0-.07.02-.1.04-.03.02-.05.05-.07.08-.02.03-.03.08-.03.13s.01.1.04.13c.03.03.07.05.11.07.05.02.1.03.16.04.06,0,.12.02.18.03.06,0,.11.03.17.06.05.03.1.07.14.11.04.04.07.09.1.15.02.06.04.11.04.18,0,.09-.02.17-.05.24-.03.07-.08.12-.13.17-.06.04-.12.08-.2.1-.08.02-.16.03-.24.03-.12,0-.22-.01-.31-.04-.09-.03-.16-.06-.21-.09-.06-.04-.12-.08-.16-.13l.18-.17s.05.04.08.06c.04.02.08.04.12.06.04.02.09.03.14.04.05.01.1.02.16.02s.1,0,.15-.02c.04-.01.08-.03.11-.06.03-.03.06-.06.07-.09.02-.03.02-.07.02-.11s0-.08-.02-.11c-.01-.03-.03-.05-.05-.06-.02-.02-.04-.03-.06-.03-.02,0-.04-.01-.05-.01,0,0-.02,0-.05,0-.03,0-.07-.01-.11-.02-.04,0-.08-.01-.12-.02-.04,0-.07-.01-.09-.02-.01,0-.03,0-.06-.01-.02,0-.05-.02-.08-.03-.03-.01-.06-.03-.09-.05-.03-.02-.06-.05-.08-.09-.02-.03-.04-.08-.06-.12-.02-.05-.02-.1-.02-.17,0-.1.02-.18.05-.24.03-.07.08-.12.13-.16.06-.04.12-.07.19-.09.07-.02.14-.03.21-.03s.14,0,.2.02c.06.02.11.03.16.05.05.02.1.05.14.08l.14.09-.15.22Z" fill="#148843" stroke-width="0"/>
          <path d="m21.94,9.25h.52v1.28c0,.08-.01.16-.03.22-.02.06-.05.11-.08.15-.03.04-.07.07-.11.09-.04.02-.08.04-.11.05-.04,0-.07.02-.09.02-.03,0-.04,0-.05,0-.08,0-.14,0-.2-.03-.05-.02-.1-.04-.14-.07-.04-.03-.08-.06-.11-.1l.18-.17s.01.01.03.03c.01.01.03.03.05.04.02.01.05.03.08.04.03.01.07.02.11.02.03,0,.05,0,.07-.01.02,0,.04-.02.05-.03.02-.01.03-.03.04-.04,0-.02.02-.03.02-.05.02-.04.03-.09.03-.14v-1.03h-.25v-.25Z" fill="#148843" stroke-width="0"/>
          <path d="m24.4,9.25v1.34c0,.08-.03.16-.07.23-.02.03-.04.06-.06.08-.02.03-.05.05-.09.07-.03.02-.08.04-.12.05-.05.01-.1.02-.16.02-.04,0-.09,0-.12-.02-.04-.01-.07-.03-.1-.05-.03-.02-.05-.05-.07-.09-.02-.03-.03-.07-.03-.12,0,.05,0,.09-.03.12-.02.03-.04.06-.07.09-.03.02-.06.04-.1.05-.04.01-.08.02-.12.02-.06,0-.11,0-.16-.02-.05-.01-.09-.03-.12-.05-.03-.02-.06-.05-.09-.07-.02-.03-.04-.05-.06-.08-.04-.07-.06-.14-.07-.23v-1.34h.26v1.24c0,.08,0,.14.03.18.02.04.04.07.07.09.03.02.05.03.08.03.03,0,.04,0,.06,0h.01s.08-.01.11-.04c.03-.02.05-.05.06-.08.01-.03.02-.06.03-.1,0-.03,0-.06,0-.07v-1.26h.23v1.26s0,.04,0,.07c0,.03.01.06.03.1.01.03.03.06.06.08.03.02.06.04.11.04h.01s.03,0,.05,0c.02,0,.05-.02.07-.03.02-.02.04-.05.06-.09.02-.04.03-.1.03-.18v-1.24h.26Z" fill="#148843" stroke-width="0"/>
          <path d="m26.06,9.25v1.28c0,.07-.01.14-.03.19-.02.05-.05.1-.08.14-.03.04-.07.07-.11.09-.04.02-.08.04-.12.05-.04.01-.07.02-.1.02-.03,0-.05,0-.07,0h-.33c-.09,0-.16,0-.22-.03-.06-.02-.11-.04-.16-.07-.04-.03-.08-.06-.1-.1-.02-.04-.04-.07-.06-.11-.01-.04-.02-.07-.03-.1,0-.03,0-.06,0-.07,0-.07.01-.13.04-.18.03-.05.05-.09.09-.12.03-.03.06-.05.09-.07.03-.01.05-.02.05-.02-.04,0-.07-.02-.09-.03-.03-.02-.05-.03-.07-.05-.02-.02-.04-.04-.05-.07-.01-.02-.03-.05-.04-.07-.02-.05-.04-.11-.04-.18,0-.06,0-.12.02-.17.01-.05.03-.09.05-.13.02-.04.04-.07.07-.09.03-.02.05-.05.08-.06.06-.04.14-.06.22-.06h.35v.25h-.21s-.07,0-.1.01c-.03,0-.06.02-.08.03-.02.01-.04.03-.05.04-.01.02-.03.03-.04.05-.02.04-.03.08-.04.13,0,.04,0,.08.02.11.01.03.03.06.05.08.02.02.05.04.07.05.03.01.05.02.07.02.02,0,.04,0,.06,0,.02,0,.03,0,.03,0h.21v.25h-.21s-.09,0-.12.02c-.03,0-.06.02-.08.04-.02.02-.04.03-.05.05-.01.02-.02.04-.03.05,0,.02,0,.03,0,.05,0,.01,0,.02,0,.03,0,.04,0,.08.02.11.01.03.03.05.05.07.02.02.04.03.06.04.02.01.04.02.07.02.02,0,.04,0,.06,0,.02,0,.03,0,.04,0h.33c.06,0,.11-.01.15-.04.04-.03.06-.05.08-.09.02-.04.03-.08.04-.13v-1.28h.26Z" fill="#148843" stroke-width="0"/>
          <path d="m26.67,9.24s.02,0,.05,0c.03,0,.06,0,.09.02.04,0,.07.02.11.05.04.02.07.05.11.09.03.04.06.09.08.15.02.06.03.13.03.22v1.26h-.26v-1.26s-.01-.09-.03-.13c0-.02-.02-.03-.02-.05-.01-.02-.02-.03-.04-.04-.01-.01-.03-.02-.05-.03-.02,0-.04-.01-.07-.01-.04,0-.08,0-.11.02-.03.01-.06.02-.07.04-.02.01-.04.03-.05.04-.01.01-.02.02-.03.03l-.18-.19s.06-.07.11-.1c.04-.02.08-.05.14-.07.05-.02.12-.03.2-.03Z" fill="#148843" stroke-width="0"/>
          <path d="m28.88,9.25v1.16c-.01.12-.04.23-.1.32-.02.04-.05.08-.08.12-.03.04-.08.07-.12.1-.05.03-.1.05-.17.07-.06.02-.14.03-.22.03s-.16,0-.22-.03c-.06-.02-.12-.04-.17-.07-.05-.03-.09-.06-.12-.1-.03-.04-.06-.08-.08-.12-.05-.09-.08-.2-.09-.32v-1.16h.26v1.16s0,.09.02.13c.01.04.03.07.05.1.02.03.04.05.07.07.03.02.05.03.08.05.06.03.13.04.22.05.08,0,.15-.02.21-.05.03-.01.05-.03.08-.05.03-.02.05-.04.07-.07.02-.03.04-.06.05-.1.01-.04.02-.08.02-.13v-1.16h.26Z" fill="#148843" stroke-width="0"/>
          <path d="m29.48,9.24s.02,0,.05,0c.03,0,.06,0,.09.02.04,0,.07.02.11.05.04.02.07.05.11.09.03.04.06.09.08.15.02.06.03.13.03.22v1.26h-.26v-1.26s-.01-.09-.03-.13c0-.02-.01-.03-.02-.05-.01-.02-.02-.03-.04-.04-.01-.01-.03-.02-.05-.03-.02,0-.04-.01-.07-.01-.04,0-.08,0-.11.02-.03.01-.06.02-.08.04-.02.01-.04.03-.05.04-.01.01-.02.02-.03.03l-.18-.19s.06-.07.11-.1c.04-.02.08-.05.14-.07.05-.02.12-.03.2-.03Z" fill="#148843" stroke-width="0"/>
          <path d="m31.21,9.29c.08.03.14.07.19.11.05.04.09.09.12.15.03.05.05.11.07.16.01.05.02.1.03.14,0,.04,0,.07,0,.09v1.1h-.26v-.52c0-.05-.01-.09-.04-.13-.02-.03-.05-.06-.09-.09-.03-.02-.07-.04-.11-.05-.04-.01-.08-.02-.11-.03-.03,0-.07,0-.12-.01,0,0-.01,0-.03,0-.02,0-.04,0-.07.01-.03,0-.06.02-.09.03-.03.01-.06.03-.09.05-.03.02-.05.05-.08.08-.02.03-.04.07-.05.12,0,.02,0,.03,0,.04,0,.04,0,.07.03.1.02.03.04.05.07.07.03.02.06.03.1.04.04.01.07.02.11.02.03,0,.07,0,.09.01.03,0,.05,0,.07,0h.02v.25h-.3c-.06,0-.12-.01-.17-.04-.05-.03-.1-.06-.14-.11-.04-.05-.07-.1-.1-.16-.02-.06-.04-.12-.04-.19s.01-.13.04-.2c.03-.07.08-.13.15-.2.04-.04.08-.07.13-.1.04-.03.09-.05.13-.06.04-.02.08-.03.13-.03.04,0,.08,0,.12,0,.06,0,.12,0,.17.02.05.01.1.02.14.04.04.02.09.03.13.05v-.1c0-.05,0-.1-.02-.15-.01-.04-.03-.08-.05-.11-.02-.03-.04-.06-.07-.08-.03-.02-.05-.04-.08-.05-.06-.03-.13-.05-.22-.05-.07,0-.13.01-.18.04-.05.03-.09.06-.12.09-.03.04-.06.08-.07.12-.02.04-.03.08-.04.11h-.28c0-.1.03-.18.06-.25.03-.07.07-.13.11-.17.04-.05.09-.08.14-.11.05-.03.1-.05.15-.06.05-.01.09-.02.13-.02.04,0,.07,0,.08,0h.02c.11,0,.2.01.28.04Z" fill="#148843" stroke-width="0"/>
        </g>
        <g>
          <path d="m21.66,11.69v1.63s0,.07,0,.13c0,.06-.02.12-.04.2-.02.07-.05.15-.09.22-.04.08-.09.15-.16.21-.07.06-.15.11-.25.15-.1.04-.22.06-.37.06h-.09c-.11,0-.21-.03-.29-.06-.04-.01-.07-.03-.11-.05-.04-.02-.07-.04-.1-.07-.03-.03-.05-.06-.07-.09-.02-.04-.03-.08-.03-.13v.36h-.38v-2.57h.38v1.6s0,.03,0,.06c0,.04,0,.08.02.12.01.05.03.1.06.15.03.05.06.1.1.15.04.04.1.08.17.11.07.03.15.05.25.05,0,0,.03,0,.07,0,.03,0,.07,0,.12-.02.05-.01.1-.03.15-.06.05-.03.1-.06.14-.11.04-.05.08-.11.11-.18.03-.07.04-.17.04-.27v-1.6h.38Z" fill="#1c70aa" stroke-width="0"/>
          <path d="m21.18,14.87h-.18v-.36h.35c.05,0,.1.02.13.06.04.03.05.08.05.13v.75h-.36v-.58Z" fill="#1c70aa" stroke-width="0"/>
          <path d="m22.13,14.26v-1.97c.05-.1.11-.18.17-.25.06-.07.13-.13.19-.17.07-.05.13-.08.2-.11.06-.03.12-.05.18-.06.06-.01.1-.02.14-.03.04,0,.07,0,.09,0h.02c.12,0,.23.02.33.05.09.03.18.07.25.11.07.04.13.09.18.15.05.06.09.11.12.17.03.06.06.12.07.18.02.06.03.11.04.16,0,.05.01.09.02.12,0,.03,0,.05,0,.06v1.59h-.38v-1.59c0-.1-.01-.19-.04-.26-.03-.07-.06-.13-.11-.17-.04-.05-.09-.08-.14-.1-.05-.02-.1-.04-.15-.05-.05-.01-.09-.02-.12-.02-.04,0-.06,0-.07,0-.08,0-.15,0-.21.03-.06.02-.11.04-.15.07-.04.03-.08.06-.11.1-.03.04-.05.07-.07.11-.04.09-.07.19-.08.3v1.59h-.38Z" fill="#1c70aa" stroke-width="0"/>
          <path d="m26.27,14.26v-1.62c0-.11-.04-.21-.09-.29-.02-.04-.05-.07-.08-.11-.03-.04-.07-.07-.12-.09-.05-.03-.1-.05-.16-.07-.06-.02-.13-.02-.21-.02s-.15,0-.21.02c-.06.02-.12.04-.16.07-.05.03-.08.06-.12.09-.03.04-.06.07-.08.11-.05.09-.08.18-.09.29v.84c0,.05.02.11.04.16.01.04.03.09.06.13.03.04.06.08.1.11.05.04.1.06.16.06.05,0,.09-.01.12-.03.04-.02.07-.04.09-.06l.25.25s-.08.07-.13.1c-.04.03-.09.05-.15.07-.06.02-.12.03-.2.03-.02,0-.05,0-.07,0-.03,0-.05,0-.08-.01-.09-.02-.18-.06-.25-.11-.07-.05-.13-.11-.18-.18-.05-.07-.09-.15-.11-.23-.02-.08-.04-.17-.04-.26v-.84c.01-.15.05-.28.09-.39.05-.11.11-.2.17-.27.07-.07.14-.13.21-.17.07-.04.15-.07.22-.09.07-.02.13-.03.19-.04.06,0,.1,0,.12,0h.06s.07,0,.12,0c.06,0,.12.02.19.04.07.02.14.05.22.09.08.04.15.1.21.17.07.07.12.16.17.27.05.11.08.24.1.39v1.62h-.38Z" fill="#1c70aa" stroke-width="0"/>
          <path d="m27.52,11.67s.03,0,.07,0c.04,0,.08.01.13.02.05.01.11.04.16.07.06.03.11.07.15.13.05.06.09.13.12.21.03.09.05.19.05.32v1.83h-.38v-1.83c0-.07-.02-.13-.04-.18,0-.02-.02-.05-.04-.07-.01-.02-.03-.04-.05-.06-.02-.02-.04-.03-.07-.04-.03-.01-.06-.02-.1-.02-.06,0-.12,0-.16.02-.04.02-.08.03-.11.05-.03.02-.05.04-.07.06-.02.02-.03.03-.04.04l-.26-.28c.04-.05.09-.1.16-.14.05-.04.12-.07.2-.1.08-.03.17-.04.28-.04Z" fill="#1c70aa" stroke-width="0"/>
          <path d="m28.74,11.68h.38v.66h.86s.09-.02.13-.05c.03-.02.07-.05.1-.1.03-.04.06-.1.08-.18v-.34h.38v.38s0,.05-.01.09c0,.04-.02.08-.04.12-.02.04-.04.09-.07.13-.03.05-.06.09-.1.12.05.04.09.1.13.16.03.05.06.12.09.19.03.08.04.16.04.26v1.11h-.38v-1.11s-.01-.08-.02-.12c0-.03-.02-.07-.04-.11-.02-.04-.04-.07-.06-.11-.03-.03-.06-.06-.09-.08-.04-.02-.08-.03-.13-.03h-.86v1.56h-.38v-2.58Z" fill="#1c70aa" stroke-width="0"/>
          <path d="m31.56,11.67s.03,0,.07,0c.04,0,.08.01.13.02.05.01.1.04.16.07.06.03.11.07.15.13.05.06.09.13.12.21.03.09.05.19.05.32v1.83h-.38v-1.83c0-.07-.02-.13-.04-.18,0-.02-.02-.05-.04-.07-.01-.02-.03-.04-.05-.06-.02-.02-.04-.03-.07-.04-.03-.01-.06-.02-.1-.02-.06,0-.12,0-.16.02-.04.02-.08.03-.11.05-.03.02-.05.04-.07.06-.02.02-.03.03-.04.04l-.26-.28c.04-.05.09-.1.16-.14.05-.04.12-.07.2-.1.08-.03.17-.04.28-.04Z" fill="#1c70aa" stroke-width="0"/>
          <path d="m34.22,12.35l-.16-.11s-.09-.05-.13-.07c-.05-.02-.1-.04-.15-.06-.05-.02-.1-.03-.14-.04-.04,0-.08-.01-.11-.01-.06,0-.12,0-.17.02-.05,0-.1.03-.14.06-.04.03-.07.07-.1.11-.03.05-.04.11-.04.19s.02.14.06.18c.04.04.1.08.17.1.07.02.14.04.23.06.08.01.17.03.25.04.08.01.17.04.24.08.08.04.15.09.21.16.06.06.11.13.14.21.04.08.05.16.05.25,0,.13-.02.25-.07.35-.05.1-.11.18-.2.24-.08.06-.18.11-.29.14-.11.03-.23.05-.35.05-.18,0-.33-.02-.45-.06-.12-.04-.23-.08-.31-.13-.09-.05-.17-.12-.24-.19l.25-.25s.07.06.12.09c.05.03.11.06.17.09.06.03.13.05.21.06.07.02.15.02.23.02s.15,0,.22-.03c.06-.02.12-.05.17-.09.05-.04.08-.08.1-.13.02-.05.04-.1.04-.17s-.01-.11-.03-.15c-.02-.04-.05-.07-.07-.09-.03-.02-.06-.04-.09-.05-.03,0-.05-.01-.07-.02,0,0-.03,0-.08-.01-.05,0-.1-.02-.15-.03-.06,0-.12-.02-.17-.03-.06,0-.1-.02-.13-.02-.02,0-.05,0-.08-.02-.04-.01-.07-.03-.12-.05-.04-.02-.09-.05-.13-.08-.04-.03-.08-.07-.12-.12-.04-.05-.07-.11-.09-.18-.02-.07-.03-.15-.03-.24,0-.14.03-.26.07-.35.05-.1.11-.18.19-.24.08-.06.17-.1.27-.13.1-.03.2-.04.3-.04s.2.01.29.04c.09.02.16.05.23.08.08.03.14.07.2.11l.2.13-.21.32Z" fill="#1c70aa" stroke-width="0"/>
          <path d="m36.79,13.37c-.01.17-.06.33-.14.46-.03.06-.07.11-.12.17-.05.06-.11.1-.18.15-.07.04-.15.08-.25.1-.09.03-.2.04-.32.04s-.23-.01-.33-.04c-.09-.03-.18-.06-.25-.1-.07-.04-.13-.09-.18-.15-.05-.05-.09-.11-.12-.17-.08-.13-.12-.29-.14-.46v-.52h.72v.36h-.34v.16c0,.07,0,.13.03.19.02.05.04.1.07.14.03.04.06.07.1.1.04.03.08.05.11.07.09.04.19.06.31.07.12,0,.22-.03.31-.07.04-.02.08-.04.11-.07.04-.03.07-.06.1-.1.03-.04.05-.09.07-.14.02-.05.03-.12.03-.19v-.78c0-.07,0-.13-.03-.18-.02-.05-.04-.1-.07-.13-.03-.04-.06-.07-.1-.1-.04-.03-.08-.05-.11-.06-.09-.04-.19-.06-.31-.07h-.03s-.07,0-.12.01c-.05,0-.11.03-.17.05-.06.03-.11.07-.17.12-.05.05-.09.12-.12.2h-.38s.02-.09.04-.15c.02-.05.05-.11.08-.17.03-.06.07-.11.12-.17.05-.05.11-.1.18-.14.07-.04.15-.08.24-.1.09-.03.2-.04.32-.04s.23.01.32.04c.09.03.18.06.25.11.07.04.13.09.18.15.05.06.09.11.12.17.08.13.12.29.14.46v.78Z" fill="#1c70aa" stroke-width="0"/>
          <path d="m36.54,11.01v.37h-1.43v-.37h1.43Z" fill="#1c70aa" stroke-width="0"/>
          <path d="m37.54,11.69v1.6c0,.11.01.2.04.27.03.07.06.14.11.18.04.05.09.08.14.11.05.03.1.04.15.06.05.01.09.02.12.02.04,0,.06,0,.07,0,.1,0,.18-.02.25-.05.07-.03.13-.07.17-.11.04-.05.08-.1.1-.15.02-.05.04-.11.06-.15.01-.05.02-.09.02-.12,0-.04,0-.06,0-.06v-1.6h.38v2.57h-.38v-.36s-.01.09-.03.13c-.02.04-.04.07-.07.09-.03.03-.06.05-.1.07-.04.02-.07.03-.11.05-.09.03-.19.05-.29.06h-.09c-.15,0-.27-.02-.37-.06-.1-.04-.19-.09-.25-.15-.07-.06-.12-.13-.16-.21-.04-.08-.07-.15-.09-.22-.02-.07-.03-.14-.04-.2,0-.06,0-.1,0-.13v-1.63h.38Z" fill="#1c70aa" stroke-width="0"/>
          <path d="m40.06,14.26h-.39v-2.57h.39v2.57Z" fill="#1c70aa" stroke-width="0"/>
          <path d="m42.38,11.94c.05.06.09.13.12.21.03.08.05.16.06.25v1.87h-.38v-1.72c0-.11-.02-.2-.06-.27-.04-.08-.09-.14-.15-.18l-.42.27-.41-.27c-.07.04-.12.1-.16.18-.04.08-.06.17-.06.27v.92c0,.08.02.16.06.22.01.03.03.05.05.08.02.03.05.05.08.07.03.02.07.04.11.05.04.01.09.02.14.02h.28v.36h-.51c-.11,0-.21-.04-.29-.09-.04-.02-.07-.05-.11-.09-.04-.04-.07-.08-.09-.13-.03-.05-.05-.11-.07-.19-.02-.07-.03-.15-.03-.25v-1.12c.02-.18.08-.33.18-.45.1-.13.23-.22.38-.28l.45.28.45-.28c.15.06.28.15.38.28Z" fill="#1c70aa" stroke-width="0"/>
          <path d="m45.03,13.37c-.01.17-.06.33-.14.46-.03.06-.07.11-.12.17-.05.06-.11.1-.18.15-.07.04-.15.08-.25.1-.09.03-.2.04-.32.04s-.23-.01-.33-.04c-.09-.03-.18-.06-.25-.1-.07-.04-.13-.09-.18-.15-.05-.05-.09-.11-.12-.17-.08-.13-.12-.29-.14-.46v-.52h.72v.36h-.34v.16c0,.07,0,.13.03.19.02.05.04.1.07.14.03.04.06.07.1.1.04.03.08.05.11.07.09.04.19.06.31.07.12,0,.22-.03.31-.07.04-.02.08-.04.11-.07.04-.03.07-.06.1-.1.03-.04.05-.09.07-.14.02-.05.03-.12.03-.19v-.78c0-.07,0-.13-.03-.18-.02-.05-.04-.1-.07-.13-.03-.04-.06-.07-.1-.1-.04-.03-.08-.05-.11-.06-.09-.04-.19-.06-.31-.07h-.03s-.07,0-.12.01c-.05,0-.11.03-.17.05-.06.03-.11.07-.17.12-.05.05-.09.12-.12.2h-.38s.02-.09.04-.15c.02-.05.05-.11.08-.17.03-.06.07-.11.12-.17.05-.05.11-.1.18-.14.07-.04.15-.08.24-.1.09-.03.2-.04.32-.04s.23.01.32.04c.09.03.17.06.25.11.07.04.13.09.18.15.05.06.09.11.12.17.08.13.12.29.14.46v.78Z" fill="#1c70aa" stroke-width="0"/>
          <path d="m46.85,12.35l-.16-.11s-.08-.05-.13-.07c-.05-.02-.1-.04-.15-.06-.05-.02-.1-.03-.14-.04-.04,0-.08-.01-.11-.01-.06,0-.12,0-.17.02-.05,0-.1.03-.14.06-.04.03-.07.07-.1.11-.02.05-.04.11-.04.19s.02.14.06.18c.04.04.1.08.17.1.07.02.14.04.23.06.09.01.17.03.25.04.08.01.17.04.24.08.08.04.15.09.21.16.06.06.11.13.14.21.04.08.05.16.05.25,0,.13-.02.25-.07.35-.05.1-.11.18-.2.24-.08.06-.18.11-.29.14-.11.03-.23.05-.35.05-.18,0-.33-.02-.45-.06-.12-.04-.23-.08-.31-.13-.09-.05-.17-.12-.23-.19l.25-.25s.07.06.12.09c.05.03.11.06.17.09.06.03.13.05.21.06.07.02.15.02.23.02s.15,0,.22-.03c.06-.02.12-.05.17-.09.05-.04.08-.08.1-.13.02-.05.04-.1.04-.17s0-.11-.03-.15c-.02-.04-.04-.07-.07-.09-.03-.02-.06-.04-.09-.05-.03,0-.05-.01-.07-.02,0,0-.03,0-.08-.01-.05,0-.1-.02-.15-.03-.06,0-.11-.02-.17-.03-.06,0-.1-.02-.13-.02-.02,0-.05,0-.08-.02-.04-.01-.07-.03-.12-.05-.04-.02-.08-.05-.13-.08-.04-.03-.08-.07-.12-.12-.04-.05-.07-.11-.09-.18-.02-.07-.03-.15-.03-.24,0-.14.03-.26.07-.35.05-.1.11-.18.19-.24.08-.06.17-.1.27-.13.1-.03.2-.04.31-.04s.2.01.29.04c.09.02.16.05.23.08.08.03.14.07.2.11l.2.13-.21.32Z" fill="#1c70aa" stroke-width="0"/>
          <path d="m45.94,11.37v-.38s.01-.06.02-.08c.01-.02.03-.04.05-.06.02-.02.06-.03.1-.03h.84v.36h-.66v.19h-.36Z" fill="#1c70aa" stroke-width="0"/>
          <path d="m47.82,14.26h-.39v-2.57h.39v2.57Z" fill="#1c70aa" stroke-width="0"/>
          <path d="m48.7,11.69v1.6c0,.11.01.2.04.27.03.07.06.14.11.18.04.05.09.08.14.11.05.03.1.04.15.06.05.01.09.02.12.02.03,0,.06,0,.07,0,.1,0,.18-.02.25-.05.07-.03.12-.07.17-.11.04-.05.08-.1.1-.15.03-.05.04-.11.06-.15.01-.05.02-.09.02-.12,0-.04,0-.06,0-.06v-1.6h.38v2.57h-.38v-.36s-.01.09-.03.13c-.02.04-.04.07-.07.09-.03.03-.06.05-.1.07-.04.02-.07.03-.11.05-.09.03-.19.05-.3.06h-.09c-.15,0-.27-.02-.37-.06-.1-.04-.19-.09-.25-.15-.07-.06-.12-.13-.16-.21-.04-.08-.07-.15-.09-.22-.02-.07-.03-.14-.04-.2,0-.06,0-.1,0-.13v-1.63h.38Z" fill="#1c70aa" stroke-width="0"/>
          <path d="m52.36,12.2c.09.02.15.06.2.11.05.05.07.12.08.2v.9c0,.14-.02.27-.06.37-.04.1-.09.18-.16.25-.06.07-.13.12-.21.15-.07.04-.15.06-.21.08-.07.02-.13.03-.18.03-.05,0-.08,0-.1,0-.15,0-.28-.02-.38-.06-.1-.04-.19-.09-.26-.15-.07-.06-.12-.13-.16-.2-.04-.07-.07-.14-.08-.21-.02-.07-.03-.13-.03-.18,0-.05,0-.08,0-.1,0-.08.01-.16.04-.23.02-.07.05-.13.09-.18.04-.05.08-.11.12-.15.04-.04.08-.09.12-.13.04-.04.07-.08.1-.12.03-.04.04-.08.05-.12,0-.01,0-.02,0-.03v-.03c0-.06,0-.11-.03-.15-.02-.04-.04-.07-.08-.1-.03-.03-.07-.05-.1-.06-.04-.02-.07-.03-.11-.04-.04,0-.07-.01-.1-.02-.03,0-.06,0-.07,0h-.03v-.36h.23c.1,0,.19.01.27.04.07.03.13.07.18.11.05.04.09.1.12.15.03.06.05.11.07.17.01.05.03.11.03.15,0,.05,0,.09,0,.11,0,0,0,.02,0,.02,0,0,0,.01,0,.01h0c0,.06-.02.1-.04.15-.02.04-.04.08-.06.12-.03.04-.05.08-.08.12-.07.08-.13.16-.17.22-.04.06-.07.12-.09.17-.02.05-.03.08-.04.11,0,.03,0,.05,0,.06,0,.09.01.16.04.22.02.06.05.11.09.15.04.04.07.07.12.09.04.02.08.04.12.05.04,0,.07.02.1.02.03,0,.05,0,.06,0,.08,0,.15-.01.2-.04.06-.02.11-.05.14-.09.04-.04.07-.08.09-.12.02-.04.04-.08.06-.12.01-.04.02-.07.03-.1,0-.03,0-.05,0-.06v-.82c0-.16-.11-.24-.34-.24h-.13v-.3h.13c.11,0,.2-.03.26-.08.06-.05.08-.12.08-.22v-.07h.38v.15c0,.2-.09.32-.28.36Z" fill="#1c70aa" stroke-width="0"/>
          <path d="m51.86,10.83v.19h.96v.36h-1.15s-.07,0-.1-.03c-.02-.02-.04-.04-.05-.06-.01-.03-.02-.05-.02-.09v-.38h.36Z" fill="#1c70aa" stroke-width="0"/>
          <path d="m52.41,9.67v.73h-.36v-.73h.36Z" fill="#1c70aa" stroke-width="0"/>
          <path d="m53.51,11.69v1.6c0,.11.01.2.04.27.03.07.06.14.11.18.04.05.09.08.14.11.05.03.1.04.15.06.05.01.09.02.12.02.03,0,.06,0,.07,0,.1,0,.18-.02.25-.05.07-.03.13-.07.17-.11.04-.05.08-.1.1-.15.02-.05.04-.11.05-.15.01-.05.02-.09.02-.12,0-.04,0-.06,0-.06v-1.6h.38v2.57h-.38v-.36s-.01.09-.03.13c-.02.04-.04.07-.07.09-.03.03-.06.05-.1.07-.04.02-.07.03-.11.05-.09.03-.19.05-.3.06h-.09c-.14,0-.27-.02-.37-.06-.1-.04-.19-.09-.25-.15-.07-.06-.12-.13-.16-.21-.04-.08-.07-.15-.09-.22-.02-.07-.03-.14-.04-.2,0-.06,0-.1,0-.13v-1.63h.38Z" fill="#1c70aa" stroke-width="0"/>
          <path d="m55.98,14.26h-.39v-2.57h.39v2.57Zm.81,0h-.39v-2.57h.39v2.57Z" fill="#1c70aa" stroke-width="0"/>
          <path d="m57.65,11.69v1.6c0,.11.01.2.04.27.03.07.06.14.1.18.04.05.09.08.14.11.05.03.1.04.15.06.05.01.09.02.12.02.03,0,.06,0,.07,0,.1,0,.18-.02.25-.05.07-.03.13-.07.17-.11.04-.05.08-.1.1-.15.02-.05.04-.11.05-.15.01-.05.02-.09.02-.12,0-.04,0-.06,0-.06v-1.6h.38v2.57h-.38v-.36s-.02.09-.03.13c-.02.04-.04.07-.07.09-.03.03-.06.05-.1.07-.04.02-.07.03-.11.05-.09.03-.19.05-.3.06h-.09c-.15,0-.27-.02-.37-.06-.1-.04-.19-.09-.25-.15-.07-.06-.12-.13-.16-.21-.04-.08-.07-.15-.09-.22-.02-.07-.03-.14-.04-.2,0-.06,0-.1,0-.13v-1.63h.38Z" fill="#1c70aa" stroke-width="0"/>
          <path d="m61.08,11.73c.11.04.21.1.28.16.07.07.13.14.18.22.04.08.07.15.1.23.02.07.03.14.04.2,0,.06,0,.1,0,.13v1.59h-.38v-.76c0-.07-.02-.14-.05-.19-.03-.05-.08-.09-.13-.12-.05-.03-.1-.06-.16-.08-.06-.02-.11-.03-.16-.04-.05,0-.11-.01-.18-.02,0,0-.02,0-.05,0-.03,0-.06,0-.1.02-.04,0-.08.02-.13.04-.04.02-.09.04-.13.07-.04.03-.08.07-.11.12-.03.05-.06.11-.07.18,0,.02,0,.04,0,.06,0,.05.01.1.04.14.03.04.06.07.1.1.04.03.09.05.14.06.05.02.1.03.15.04.05,0,.1.01.14.02.04,0,.07,0,.1,0h.03v.36h-.43c-.09,0-.17-.02-.25-.06-.08-.04-.15-.09-.21-.16-.06-.07-.11-.14-.14-.23-.03-.09-.05-.18-.05-.27s.02-.19.06-.29c.04-.1.11-.19.21-.28.06-.05.12-.1.18-.14.06-.04.12-.07.19-.09.06-.02.12-.04.18-.05.06,0,.12-.01.18-.01.09,0,.17,0,.25.02.08.02.14.04.2.05.07.02.13.05.18.08v-.15c0-.08,0-.15-.03-.21-.02-.06-.04-.11-.07-.16-.03-.04-.06-.08-.1-.11-.04-.03-.08-.06-.11-.08-.09-.05-.2-.07-.31-.08-.1,0-.19.02-.26.06-.07.04-.13.08-.18.13-.05.05-.08.11-.11.17-.03.06-.04.11-.05.15h-.4c0-.14.04-.26.08-.36.04-.1.1-.18.16-.25.06-.07.13-.12.21-.16.08-.04.15-.07.22-.08.07-.02.13-.03.19-.04.06,0,.1,0,.12,0h.02c.16,0,.3.02.41.06Z" fill="#1c70aa" stroke-width="0"/>
        </g>
      </g>
    </g>
  </g>
</svg>